<svg width="210" height="99" viewBox="0 0 210 99" fill="none" xmlns="http://www.w3.org/2000/svg">
<path d="M18.8084 19.2518C19.0611 19.8962 19.177 20.5661 19.1561 21.2592C19.1353 21.9523 18.9776 22.613 18.6855 23.2412C20.7208 23.3385 22.6309 23.8763 24.4159 24.8592C23.433 23.0743 22.8952 21.1642 22.7978 19.1289C22.1696 19.421 21.509 19.5786 20.8159 19.5995C20.1228 19.6203 19.4552 19.5044 18.8084 19.2518Z" fill="#2F3729" stroke="#2F3729" stroke-width="0.96087"/>
<path d="M0.962249 55.8698V56.0901L0.999339 56.5282L1.05034 56.9709C1.05034 57.0428 1.05034 57.117 1.07815 57.1888L1.10829 57.409C1.18015 57.9955 1.2891 58.5889 1.40732 59.1754L1.53482 59.6344C1.56959 59.7804 1.60436 59.9265 1.64145 60.0748L1.69708 60.295L1.75272 60.5129L1.87326 60.9557C1.96135 61.2478 2.0448 61.5398 2.14679 61.8319L2.21865 62.0521C2.24184 62.124 2.26502 62.1982 2.29283 62.27L2.4296 62.7081C2.64982 63.2853 2.87931 63.8625 3.14589 64.4235L3.24093 64.6345L3.34525 64.8454L3.55156 65.265C3.6976 65.5455 3.84827 65.8259 4.01286 66.0995C4.33739 66.6512 4.69438 67.182 5.0815 67.6897C5.17886 67.8172 5.28317 67.9423 5.38285 68.0745L5.53584 68.2576L5.69347 68.443L5.85574 68.6239L5.93455 68.7166L6.02032 68.8047L6.18491 68.9808L6.35877 69.1547C6.58594 69.3842 6.82702 69.6067 7.07737 69.8223C7.32773 70.0379 7.58504 70.2465 7.84466 70.4366C7.97911 70.5386 8.1182 70.629 8.25728 70.7217C8.32682 70.7681 8.39869 70.8098 8.46823 70.8562L8.68381 70.9883L8.90171 71.1111L9.01298 71.1714L9.12657 71.2294L9.35142 71.3453L9.58323 71.4519C10.2114 71.7393 10.8675 71.9433 11.5467 72.0639H12.0705C12.2421 72.0639 12.4159 72.0986 12.5921 72.0986H13.6608C14.0247 72.0476 14.3794 71.9642 14.7248 71.8437C14.8963 71.7857 15.0655 71.7185 15.2324 71.6443C15.3182 71.6095 15.3947 71.5678 15.4758 71.5261L15.7123 71.4032L16.06 71.1946L16.1712 71.1181L16.3938 70.9605L16.6047 70.7866L16.7137 70.7032L16.8134 70.6104L17.0127 70.4227L17.1982 70.2233L17.2886 70.1236L17.3743 70.0193L17.5436 69.8084L17.7012 69.5882L17.7777 69.4769L17.8495 69.361C17.8959 69.2845 17.9469 69.208 17.9886 69.1315C18.0744 68.9739 18.1625 68.8186 18.2343 68.6586C18.2738 68.5775 18.3108 68.501 18.3456 68.4199L18.4453 68.1788C18.4801 68.0977 18.5079 68.0165 18.538 67.9354C18.5682 67.8543 18.6006 67.7708 18.6238 67.6897C18.6725 67.5251 18.7258 67.3582 18.7698 67.1936C18.8602 66.8621 18.9228 66.5283 18.9808 66.1992C19.0828 65.5408 19.1384 64.8802 19.1454 64.2149C19.1523 63.5658 19.1268 62.9168 19.0642 62.27C19.0063 61.6279 18.9182 60.9951 18.8116 60.3715L18.7304 59.9056L18.6377 59.4443L18.5913 59.2148L18.5427 58.983L18.4453 58.5148L18.334 58.0627L18.2807 57.8356L18.2204 57.6084L18.0999 57.1587L17.9724 56.7136L17.9075 56.4888L17.838 56.2662L17.7035 55.8258L17.5621 55.3877L17.4926 55.1675L17.4207 54.9519L17.27 54.5184L17.0405 53.8717L16.7971 53.2388C16.5792 52.6779 16.3521 52.1192 16.1179 51.5698C15.8815 51.0205 15.6358 50.4827 15.39 49.9518L14.6575 48.3918L13.2157 45.3481C12.766 44.4 12.3278 43.4682 11.9013 42.5572L11.2824 43.9874L11.1479 44.2865L10.7631 45.0908L10.9022 45.3783L11.1734 45.9439L11.3195 46.2475L12.7961 49.2564L13.5425 50.7933C13.7882 51.3079 14.0293 51.8225 14.2611 52.3302C14.4906 52.8378 14.7178 53.3872 14.9334 53.9227L15.0956 54.326L15.2533 54.734L15.4063 55.1397L15.5569 55.5523L15.6288 55.7586L15.6984 55.9672L15.8398 56.3821L15.9742 56.8017L16.0437 57.008L16.1087 57.219L16.2362 57.6432L16.3544 58.0651L16.417 58.276L16.4749 58.4916L16.5862 58.9181L16.6905 59.3493L16.7392 59.5648L16.7855 59.7804L16.8783 60.2139L16.9617 60.6474C17.0776 61.2292 17.1657 61.8018 17.2283 62.3975C17.2932 62.9794 17.328 63.5635 17.3326 64.15C17.3372 64.7272 17.3002 65.2997 17.2237 65.8723C17.1819 66.1528 17.1356 66.4333 17.066 66.7022C17.066 66.7856 17.0243 66.8714 17.0011 66.9548L16.9594 67.1055C16.9594 67.1704 16.9154 67.2353 16.8945 67.3002C16.8713 67.3675 16.8504 67.4324 16.8249 67.4926L16.7508 67.685C16.7276 67.7476 16.6975 67.8079 16.6696 67.8705C16.6163 67.998 16.5514 68.1116 16.4935 68.2321C16.4633 68.2901 16.4286 68.3457 16.3938 68.4036L16.3428 68.4894L16.2895 68.5705L16.1782 68.7351L16.06 68.8881L15.9974 68.9646L15.9325 69.0388L15.8027 69.1848L15.6636 69.3239L15.594 69.3911L15.3715 69.6276L15.2139 69.7412L15.1374 69.7991L15.0516 69.8524L14.887 69.9614L14.6668 70.0773L14.537 70.1445L14.3608 70.2256L14.18 70.2998C13.9366 70.3902 13.6863 70.4551 13.4313 70.4945H11.804L11.6 70.4598L11.2963 70.3949L10.9926 70.3184L10.7933 70.2581L10.6936 70.2256C10.5615 70.1816 10.4317 70.1329 10.3088 70.0796L10.2137 70.0379L10.0167 69.9544L9.82431 69.8617L9.72927 69.8153L9.63191 69.7643L9.44414 69.6647L9.39778 69.6392L9.26101 69.558L9.12193 69.4769L9.07557 69.4468L8.94112 69.361L8.89476 69.3309L8.76031 69.2428L8.71858 69.2126C8.59804 69.1315 8.48445 69.0457 8.36855 68.9577L8.28278 68.8928L8.02547 68.6934L7.6963 68.4083L7.4529 68.1881L7.37177 68.1116L6.98929 67.7291L6.76675 67.4857L6.62071 67.3211L6.47467 67.1542L6.40513 67.0708C6.33558 66.9873 6.2614 66.9062 6.1965 66.8181L6.06669 66.6558L5.93224 66.482L5.80011 66.3058L5.67493 66.1296C5.50571 65.8909 5.34344 65.6475 5.19045 65.3994C5.03282 65.1537 4.8891 64.8987 4.74769 64.6298L4.54138 64.245L4.49038 64.15L4.43939 64.0526L4.34434 63.8533C4.08008 63.3271 3.84364 62.7893 3.6211 62.2515C3.10648 60.9742 2.71009 59.6599 2.43424 58.3108C2.40642 58.1694 2.3786 58.0303 2.34847 57.8935C2.32065 57.7544 2.29515 57.6154 2.27197 57.474L2.2372 57.263C2.14911 56.702 2.07725 56.1387 2.02162 55.5778C1.98685 55.1999 1.95903 54.8151 1.93817 54.4257H1.91962C1.91962 54.2101 1.91035 53.9945 1.8918 53.7789C1.8918 53.619 1.8918 53.4591 1.8918 53.2991C1.8918 52.5851 1.91035 51.8781 1.94512 51.1781C1.94512 51.0367 1.95439 50.8976 1.97294 50.7585V50.6866C1.97294 50.5406 1.98453 50.3946 2.00771 50.2509C2.04248 49.8336 2.08652 49.421 2.1352 49.0107C2.26502 47.956 2.43887 46.9314 2.63823 45.9346C2.83758 44.9402 3.07171 43.9643 3.3267 43.0231C3.70919 41.5535 4.1589 40.158 4.61324 38.8436L4.83346 38.2224L4.99805 37.7611C5.20436 37.1885 5.41298 36.6345 5.61929 36.0967L5.37821 35.5195C5.09309 36.1802 4.80796 36.871 4.52052 37.5872C3.87609 39.2006 3.2363 40.9531 2.66836 42.8423C2.38324 43.7858 2.11434 44.764 1.88021 45.7747C1.64609 46.7853 1.43746 47.8262 1.26824 48.9017C1.19174 49.4395 1.11524 49.982 1.05729 50.536C1.02716 50.8118 1.00398 51.09 0.980794 51.3658C0.980794 51.5049 0.962249 51.6463 0.950659 51.7854C0.939068 51.9245 0.932114 52.0659 0.922842 52.2073L0.904297 52.6315C0.904297 52.7729 0.904297 52.9143 0.904297 53.058C0.904297 53.3408 0.904297 53.6306 0.904297 53.9134C0.904297 54.4906 0.904297 55.0678 0.962249 55.6519V55.8698Z" fill="#2F3729" stroke="#2F3729" stroke-width="0.96087"/>
<path d="M9.47326 26.9435C9.08846 27.6691 8.65729 28.5569 8.14268 29.6001L7.86914 30.1564L7.97345 30.4531L8.31885 29.6835C8.79638 28.6265 9.21131 27.7224 9.55439 26.9922L9.99251 26.0024L10.3217 25.2838C10.4955 24.899 10.5952 24.7112 10.5999 24.6997C10.6022 24.6881 10.4886 24.906 10.2985 25.2745L9.47326 26.9435Z" fill="#2F3729" stroke="#2F3729" stroke-width="0.96087"/>
<path d="M11.185 41.5345L11.2939 41.2679L11.7437 40.1738C11.892 39.789 12.0473 39.4042 12.1934 39.0194L12.446 38.368L12.5782 38.0365C12.6199 37.9253 12.657 37.814 12.701 37.7027L13.2041 36.3374C13.8601 34.4853 14.5138 32.5172 15.1257 30.4425C15.2718 29.9233 15.4132 29.3971 15.5592 28.8663L15.6682 28.4815C15.703 28.347 15.7331 28.2126 15.7679 28.0967L15.9672 27.2853L16.1712 26.4671L16.3543 25.6372C16.4772 25.0809 16.6093 24.5222 16.7206 23.9589L16.7925 23.5046L16.8365 23.289L16.8736 23.0734L16.9547 22.6422L17.0289 22.2088C17.0544 22.0627 17.0729 21.9167 17.0961 21.7707C17.1193 21.6246 17.1425 21.4786 17.1634 21.3279C17.2004 21.0335 17.2422 20.7368 17.2746 20.4401C17.3048 20.1457 17.3326 19.842 17.3581 19.5407C17.3581 19.3923 17.3766 19.237 17.3882 19.0886V18.9102H17.2932C17.1425 18.9102 17.0057 18.9102 16.8713 18.9102H16.2199V19.0771C16.2199 19.2231 16.2199 19.3645 16.2199 19.5059C16.2199 19.7957 16.1898 20.0831 16.1619 20.3729C16.1364 20.6603 16.1086 20.9454 16.0831 21.2329C16.0831 21.3743 16.0483 21.518 16.0321 21.6594C16.0159 21.8008 15.9973 21.9445 15.9788 22.0859L15.9209 22.5124L15.8559 22.9343L15.8258 23.1476L15.7215 23.7804C15.6241 24.3414 15.5129 24.8954 15.4109 25.4494L15.2532 26.2723L15.0747 27.086L14.8986 27.8927C14.8684 28.0271 14.8406 28.1616 14.8105 28.2775L14.7131 28.6623C14.5879 29.1931 14.4605 29.7147 14.3306 30.2339C13.7581 32.3016 13.1739 34.265 12.5782 36.1334L12.1192 37.5057C12.0821 37.617 12.0473 37.7329 12.0079 37.8441L11.8897 38.1756L11.6579 38.8316C11.4469 39.4482 11.2244 40.0463 11.0042 40.6281L10.7353 41.3491C10.6634 41.553 10.5823 41.7339 10.5058 41.9494L10.274 42.5382L10.0491 43.1131L9.9564 43.3519V43.3982L9.8405 43.6787L9.39079 44.7659L9.17057 45.2921L8.92485 45.7974C8.63277 46.4697 8.36156 47.1118 8.08802 47.7191L7.70322 48.5907C7.63831 48.7321 7.57572 48.8712 7.51545 49.0056L7.32769 49.3904C7.07965 49.912 6.8548 50.4057 6.63922 50.8508L6.04578 52.0701L5.79311 52.587L5.56594 53.0368L5.21359 53.7461L4.92383 54.321L5.23677 53.7553L5.61926 53.0646L5.86266 52.6218L6.13155 52.1142L6.76671 50.9204C6.9962 50.4822 7.23728 49.9978 7.50386 49.4832L7.70322 49.0984C7.77276 48.9639 7.83767 48.8248 7.90721 48.6857L8.33374 47.8257C8.63046 47.2369 8.92254 46.6041 9.2378 45.9388L9.47424 45.4358L9.71069 44.9166L10.1905 43.8549L10.3134 43.579L10.4362 43.2985L10.682 42.7213L10.9323 42.1418C11.0158 41.9309 11.1039 41.7339 11.185 41.5345Z" fill="#2F3729" stroke="#2F3729" stroke-width="0.96087"/>
<path d="M2.52413 20.7835C2.6864 22.0167 2.90894 23.2291 3.13611 24.4205C3.36097 25.6097 3.65305 26.7827 3.96599 27.9324C4.04248 28.2199 4.1213 28.505 4.20475 28.7901C4.28357 29.0729 4.36934 29.3627 4.45742 29.6385L4.71937 30.4777L4.84918 30.8926L4.99522 31.3029L5.27339 32.1212C5.31743 32.2556 5.3638 32.3947 5.41479 32.5245L5.56083 32.9093C5.65588 33.1782 5.75324 33.4448 5.84828 33.709L6.01054 34.1356L6.14499 34.4972L6.19831 34.6386C6.58775 35.6632 6.98646 36.6553 7.39444 37.615C7.80243 38.5723 8.21041 39.5135 8.62303 40.4361C8.85948 40.9484 9.10288 41.4792 9.35091 42.0263L9.59199 41.4073C9.64995 41.2567 9.7079 41.1153 9.75658 40.9762L9.99998 40.3318L10.3755 39.2631C10.1507 38.7508 9.92348 38.2385 9.69631 37.7262L9.5804 37.4574L9.27442 36.7341L9.1191 36.3679L9.00552 36.092L8.89657 35.8301L8.77835 35.538C8.5419 34.9585 8.30545 34.3697 8.07133 33.767L7.76998 32.9974L7.64712 32.6636L7.48717 32.2208L7.34808 31.8384L7.22522 31.4999L7.20668 31.442L6.91692 30.6469L6.78015 30.2621L6.64802 29.8773L6.38608 29.0659C6.29799 28.7971 6.21685 28.5282 6.13804 28.2523C6.05691 27.9741 5.97577 27.7006 5.89928 27.4248C5.58865 26.319 5.30353 25.1878 5.05317 24.0381C4.80282 22.8906 4.58028 21.7339 4.41106 20.5494C4.23489 19.3695 4.11898 18.1849 4.06567 16.9935C4.04248 16.3977 4.03785 15.8066 4.06567 15.2132C4.08653 14.6174 4.13984 14.024 4.22793 13.4352C4.31138 12.865 4.43888 12.3063 4.61042 11.7593C4.63128 11.6897 4.65678 11.6248 4.67996 11.5599L4.7495 11.3629L4.826 11.1705L4.86541 11.0754L4.90713 10.9827L4.99522 10.7973C5.02536 10.737 5.06013 10.679 5.09258 10.6164C5.15285 10.4936 5.22703 10.3823 5.29425 10.2687V10.2479L5.39625 10.1018L5.44957 10.0207C5.44957 9.99521 5.48666 9.97203 5.50984 9.94421L5.6327 9.79122L5.76483 9.64518L5.82973 9.571L5.89928 9.50609L6.03604 9.37165L6.18672 9.24879L6.2609 9.18852L6.33739 9.13289C6.54602 8.98221 6.76624 8.85472 7.00269 8.7504C7.12091 8.70404 7.23913 8.64609 7.36663 8.60668L7.55439 8.54641L7.74679 8.49542L7.84415 8.46992H7.94383L8.14319 8.43051H8.34718L8.55117 8.40269H9.77744C9.91189 8.40269 10.0417 8.4421 10.1622 8.46528L10.357 8.51164L10.4566 8.53482L10.554 8.56032L10.7487 8.61827L10.9411 8.68782H10.9875L11.0338 8.70636L11.1289 8.74577C11.1915 8.77359 11.2564 8.79445 11.319 8.8269L11.5299 8.89876L11.7107 8.99612L11.8035 9.0448L11.8915 9.09811L12.0677 9.20706L12.2416 9.32297L12.2833 9.34847L12.325 9.38092L12.4108 9.44119C12.5244 9.52232 12.6333 9.61041 12.7446 9.69849L12.9045 9.83758L12.9857 9.90712L13.0622 9.97898L13.2175 10.125L13.3658 10.2757L13.5119 10.4287L13.6556 10.5863C13.7483 10.6953 13.8434 10.8019 13.9268 10.9178C14.0126 11.0314 14.1053 11.145 14.1888 11.2586C14.3557 11.4927 14.5156 11.7314 14.6617 11.9772C14.7382 12.1 14.8054 12.2275 14.8772 12.362L14.9769 12.5544L15.0279 12.6517L15.0743 12.7468C15.1995 13.0041 15.3107 13.2683 15.4197 13.5164C15.5263 13.7621 15.6121 14.0541 15.6932 14.323L15.7488 14.527C15.7488 14.5618 15.7697 14.5943 15.7767 14.629L15.7998 14.7333L15.8949 15.1575C15.9181 15.2595 15.9389 15.3685 15.9575 15.4728H16.085L16.6135 15.5261H17.2649L17.2324 15.3221C17.2092 15.1645 17.1884 15.0115 17.1559 14.8539L17.0632 14.3879L17.0423 14.272L17.0145 14.1538L16.9566 13.9197C16.8731 13.6068 16.7758 13.2961 16.6691 12.9878C16.5602 12.6818 16.4373 12.3805 16.2843 12.0884L16.2333 11.9772L16.18 11.8659L16.0734 11.648C15.9969 11.5043 15.9227 11.3582 15.8416 11.2168C15.6839 10.9317 15.5078 10.6559 15.3223 10.3823C15.2273 10.2479 15.1346 10.1134 15.0349 9.99752C14.9352 9.88394 14.8309 9.7379 14.7266 9.61504L14.562 9.42496C14.5087 9.36469 14.4553 9.29979 14.3974 9.24183L14.2235 9.06103L14.0474 8.88485L13.9593 8.79445L13.8666 8.711L13.6788 8.54178C13.5467 8.43515 13.4215 8.32388 13.294 8.21957L13.1943 8.14307L13.1433 8.10366L13.09 8.06426L12.879 7.91822L12.682 7.81622L12.5592 7.74668L12.4479 7.68178L12.2207 7.55428L11.9912 7.43838C11.9147 7.40129 11.8336 7.36652 11.7525 7.32711L11.6342 7.2738L11.5299 7.22743L11.2842 7.13471L11.0338 7.05358L10.9064 7.01649L10.7603 6.97708L10.503 6.91218C10.3616 6.88436 10.2179 6.85423 10.0765 6.83104H9.71949L9.45523 6.8125H8.42368L8.16173 6.83568H7.90211L7.64016 6.87741L7.51035 6.90059L7.37822 6.93072L7.11627 6.99331L6.85897 7.06981C6.68743 7.1208 6.51821 7.19266 6.34899 7.25757C6.01982 7.39202 5.70687 7.55428 5.41016 7.74668L5.38002 7.76986L5.26412 7.84636L5.15749 7.92981L4.9419 8.10366L4.73791 8.28911L4.63823 8.37951L4.54551 8.48151L4.35774 8.68086L4.18389 8.88717C4.15839 8.92194 4.12594 8.95671 4.10044 8.99148L4.0193 9.09811C3.96599 9.17229 3.91267 9.24415 3.86167 9.31833C3.76663 9.46901 3.66464 9.61736 3.58582 9.77267C3.54178 9.84917 3.49773 9.92566 3.45833 10.0022L3.34242 10.2363L3.28447 10.3568L3.23579 10.475L3.13147 10.7138L3.03875 10.9549C3.00862 11.036 2.97848 11.1172 2.95066 11.1983C2.7374 11.8334 2.57513 12.4848 2.46618 13.1455C2.35955 13.7899 2.29001 14.4389 2.25524 15.0903C2.22046 15.7371 2.21351 16.3792 2.22742 17.012C2.25987 18.2753 2.35955 19.5317 2.52413 20.7835Z" fill="#2F3729" stroke="#2F3729" stroke-width="0.96087"/>
<path d="M7.01665 55.3199C6.42322 55.6839 6.01987 56.1962 5.8066 56.8591C5.69765 57.1628 5.62347 57.4758 5.58407 57.7956C5.37312 59.365 5.81819 61.3817 6.92161 63.2964C8.80853 66.5672 11.9171 68.3197 13.8712 67.1977C15.0233 66.5394 15.4916 65.0442 15.3224 63.2617C15.283 62.8653 15.2181 62.4735 15.123 62.0841C14.8773 61.0757 14.4925 60.123 13.9709 59.2259C12.0747 55.9481 8.95921 54.198 7.01665 55.3199ZM13.7901 59.3209C15.3803 62.0771 15.378 64.467 13.7159 65.4244C11.8707 66.4907 8.90821 64.8263 7.11401 61.7155C5.54466 59.0034 5.54234 56.5624 7.18587 55.612C9.03107 54.548 11.9936 56.2124 13.7901 59.3209Z" fill="#2F3729" stroke="#2F3729" stroke-width="0.96087"/>
<path d="M71.6633 12.5145C71.6633 12.4728 71.6633 12.4265 71.6633 12.3847V11.993C71.5196 11.3161 71.2924 10.6694 70.9818 10.0527L70.8752 9.82094L70.7593 9.59377L70.7013 9.4825L70.6411 9.37124L70.5182 9.15334C70.4765 9.07916 70.4301 9.00962 70.3861 8.93776C70.3443 8.86358 70.298 8.79404 70.2516 8.72682C70.1612 8.58773 70.0685 8.44865 69.9688 8.3142C69.7764 8.0453 69.584 7.788 69.3522 7.54692C69.1227 7.30352 68.9141 7.05781 68.6846 6.82832L68.5107 6.65446L68.3346 6.48988L68.2465 6.40411L68.1584 6.32298L67.9776 6.16303L67.7921 6.0054L67.609 5.85009C67.4815 5.75042 67.3586 5.64842 67.2242 5.55106C66.7142 5.16163 66.1857 4.80696 65.6317 4.48243C65.3604 4.32017 65.08 4.16718 64.7995 4.02114L64.3799 3.81483L64.1829 3.69197L63.9719 3.59461C63.4109 3.33035 62.8198 3.09855 62.2588 2.88065L61.823 2.72302L61.6051 2.64884L61.3849 2.57698C61.0975 2.47731 60.8008 2.39617 60.5087 2.30345L60.0682 2.18523L59.848 2.12728L59.6278 2.07396L59.1874 1.98124L58.7446 1.88388C58.1558 1.76566 57.5647 1.66135 56.9759 1.58485L56.758 1.55471L56.5378 1.5269L56.0974 1.47822L55.6592 1.43881H55.2211C54.637 1.39709 54.0667 1.3855 53.4825 1.38086C53.1951 1.38086 52.91 1.38086 52.6272 1.38086H52.1983L51.7764 1.3994L51.3545 1.42722L50.935 1.45736C50.6591 1.48054 50.3786 1.50372 50.1051 1.53385C49.5557 1.58949 49.0086 1.66598 48.4708 1.74711C47.3999 1.9117 46.3544 2.12959 45.3414 2.35677C44.3307 2.58394 43.3363 2.83661 42.3951 3.13332C40.5082 3.70356 38.7557 4.34335 37.14 4.98545C36.4237 5.26826 35.7329 5.54643 35.0723 5.82459L35.6495 6.04249C36.1873 5.83618 36.7413 5.62756 37.3139 5.42125L37.7752 5.25435L38.3964 5.055C39.7108 4.60297 41.0877 4.16486 42.5759 3.76847C43.5171 3.51812 44.4976 3.28399 45.4874 3.08C46.4796 2.87601 47.5181 2.6952 48.5636 2.57698C48.9739 2.5283 49.3865 2.48426 49.8037 2.44949L50.2395 2.41472H50.3114L50.731 2.36604C51.431 2.32431 52.1381 2.30577 52.852 2.3104H53.3342L53.9786 2.33822C54.3565 2.35908 54.739 2.3869 55.133 2.42167C55.6917 2.47731 56.2527 2.54917 56.816 2.63725L57.0269 2.67202L57.4465 2.74852L57.8637 2.83429C59.2129 3.11014 60.5272 3.50653 61.8045 4.02114C62.3469 4.24367 62.8847 4.47548 63.4063 4.74438L63.608 4.83942L63.703 4.89041L63.7981 4.93909L64.1829 5.14772C64.4378 5.28912 64.6905 5.43284 64.9525 5.59047C65.2144 5.7481 65.4439 5.90573 65.6827 6.07495L65.8588 6.20012L66.035 6.33225L66.2089 6.4667L66.3711 6.59651C66.4546 6.66605 66.5404 6.73559 66.6238 6.80514L66.7096 6.87236L67.0387 7.16444L67.201 7.31511L67.2821 7.38929L67.5881 7.69528L67.6669 7.77177L67.7434 7.8529L67.9613 8.0963L68.2465 8.42547L68.4458 8.68277L68.5107 8.76854C68.5988 8.88444 68.6846 8.99803 68.7657 9.11857L68.7959 9.16029L68.8839 9.29474L68.9141 9.3411L68.9998 9.47555L69.03 9.52191L69.1111 9.661L69.1922 9.79776L69.2178 9.84412L69.3174 10.0319L69.3684 10.1292L69.4148 10.2243L69.5075 10.4167L69.591 10.6137L69.6327 10.7088C69.6883 10.8409 69.737 10.9684 69.7787 11.0936L69.8112 11.1932C69.8297 11.2581 69.8529 11.3277 69.8715 11.3926C69.8923 11.4598 69.9248 11.5943 69.9479 11.6963C69.9711 11.8006 69.9943 11.9002 70.0152 11.9999C70.0337 12.0996 70.0384 12.1344 70.0499 12.2039V12.5655C70.0499 12.6003 70.0499 12.6351 70.0499 12.6698C70.0499 12.7046 70.0499 12.7626 70.0499 12.8066C70.0499 12.853 70.0499 12.8692 70.0499 12.8993C70.0499 12.9318 70.0499 12.9318 70.0499 12.9457C70.0499 12.9619 70.0499 12.9735 70.0499 12.9851C70.0499 12.9967 70.0499 13.05 70.0499 13.0801C70.0499 13.1103 70.0499 13.1311 70.0499 13.1543C70.0499 13.1775 70.0499 13.2424 70.0499 13.2841V13.8799C70.0082 14.1372 69.9433 14.3852 69.8529 14.6286C69.8297 14.6912 69.8065 14.7515 69.7787 14.8094L69.6999 14.9879C69.6791 15.0343 69.6559 15.076 69.6304 15.1177L69.6072 15.1595L69.5608 15.2475L69.5145 15.3379L69.4078 15.5025L69.3522 15.586L69.2966 15.6625L69.1807 15.8178L68.9929 16.0403L68.9234 16.1099L68.7843 16.2466L68.6382 16.3788L68.564 16.4437L68.4875 16.5062L68.3346 16.6245L68.17 16.7357L68.0888 16.7891L68.0031 16.8401L67.8315 16.9397C67.711 17 67.5974 17.0672 67.4699 17.1159L67.2845 17.197L67.0921 17.2712C67.0318 17.2967 66.9622 17.3153 66.902 17.3384L66.7049 17.4057L66.5543 17.4474C66.4708 17.4706 66.3897 17.4937 66.3016 17.5123C66.0327 17.5818 65.7522 17.6282 65.4717 17.6699C64.8991 17.7464 64.3266 17.7835 63.7494 17.7766C63.1629 17.7742 62.5787 17.7395 61.9969 17.6746C61.4127 17.6073 60.8425 17.5192 60.2467 17.408L59.8133 17.3245L59.3798 17.2318L59.1642 17.1854L58.5174 17.0325L58.0909 16.9212L57.8753 16.8632L57.6644 16.8006L57.2425 16.6824L56.8183 16.5549L56.6073 16.49L56.401 16.4205L55.9814 16.286L55.5665 16.1446L55.3579 16.0751L54.739 15.8526L54.3333 15.6972L54.1293 15.6207L53.9253 15.5396L53.522 15.3797C52.9865 15.1595 52.4533 14.9416 51.9294 14.7074C51.4079 14.471 50.8886 14.2345 50.3925 13.9888L48.8556 13.2424L45.8259 11.7774L45.5222 11.6314L44.9589 11.3578L44.6692 11.2211L43.8671 11.6059L43.5658 11.7403L42.103 12.3592L44.8917 13.6736L47.9377 15.1131L49.5024 15.8178C50.0309 16.0635 50.5733 16.3092 51.1204 16.5433C51.6652 16.7775 52.2215 17.0046 52.7871 17.2249L53.2113 17.3848L53.4223 17.4659L53.6379 17.5424L54.0667 17.6977L54.5025 17.8461L54.7158 17.9203L54.936 17.9898L55.3741 18.1312L55.8169 18.2657L56.0394 18.3352L56.2619 18.4001L56.707 18.5276L57.1567 18.6458L57.3839 18.7084L57.6111 18.7617L58.0654 18.873L58.5221 18.9773L58.7516 19.026L58.9834 19.0723L59.4447 19.1651L59.9106 19.2462C60.5319 19.3575 61.167 19.4409 61.8091 19.4989C62.4559 19.5591 63.1026 19.587 63.754 19.58C64.417 19.5731 65.08 19.5174 65.736 19.4154C66.0675 19.3575 66.4013 19.2949 66.7328 19.2045C66.8973 19.1604 67.0619 19.1071 67.2265 19.0584C67.3123 19.0353 67.3934 19.0005 67.4745 18.9727C67.5534 18.9449 67.6391 18.9147 67.7156 18.88L67.959 18.7803C68.0378 18.7455 68.119 18.7084 68.1955 18.669C68.3577 18.5971 68.5107 18.5067 68.6684 18.4233L68.9002 18.2842L69.0138 18.2123L69.1273 18.1359L69.3452 17.9782L69.5562 17.809L69.6605 17.7232L69.7602 17.6305L69.9595 17.4474L70.1496 17.248L70.24 17.146L70.3258 17.0394L70.4997 16.8285L70.655 16.6059L70.7338 16.4947L70.801 16.3788L70.9401 16.1469C70.9818 16.0705 71.0259 15.9893 71.063 15.9105C71.1024 15.8294 71.1487 15.7529 71.1835 15.6671C71.2577 15.5025 71.3226 15.3333 71.3828 15.1595C71.5011 14.8141 71.5868 14.4594 71.6355 14.0955V13.8196C71.6355 13.7732 71.6355 13.7269 71.6355 13.6805V13.2888C71.6355 13.2007 71.6355 13.1149 71.6355 13.0268C71.6981 12.8646 71.6796 12.6884 71.6633 12.5145Z" fill="#2F3729" stroke="#2F3729" stroke-width="0.96087"/>
<path d="M29.1509 8.59286C28.1101 9.10283 27.2292 9.55254 26.4943 9.92111L24.8276 10.7626C24.4428 10.9527 24.262 11.0546 24.2504 11.0639C24.2388 11.0709 24.4614 10.9596 24.8346 10.7857L25.5578 10.4357L26.5384 9.9837C27.2755 9.64062 28.1796 9.2141 29.2274 8.75049L29.997 8.40278L29.7003 8.30078L29.1509 8.59286Z" fill="#2F3729" stroke="#2F3729" stroke-width="0.96087"/>
<path d="M7.45427 5.82481L7.71389 5.78309H7.81125L8.04538 5.75991L8.33746 5.73209H9.52432L9.78627 5.75063H9.80481C9.92072 5.68109 10.032 5.60923 10.1548 5.54664L10.3357 5.4516L10.5211 5.36352L10.6138 5.32179L10.7089 5.28238L10.9013 5.20589L11.0983 5.13635L11.2977 5.0668C11.8447 4.89527 12.4034 4.76546 12.9736 4.682C13.5532 4.59855 14.1373 4.54756 14.7261 4.52901C15.3172 4.50583 15.9083 4.52901 16.5041 4.52901C17.6956 4.58233 18.8801 4.69823 20.06 4.8744C21.2353 5.04826 22.4013 5.2592 23.5511 5.51651C24.6985 5.77381 25.8298 6.05198 26.9355 6.3626L27.7631 6.60136C28.0366 6.6825 28.3055 6.76131 28.5767 6.85172L29.3857 7.11598L29.7682 7.24579L30.153 7.38487L30.9458 7.66072L31.0038 7.68158L31.3422 7.80444L31.7247 7.94121L32.1674 8.10347L32.5012 8.22633L32.886 8.377L33.2709 8.52536C33.8736 8.75949 34.467 8.99825 35.0535 9.24164L35.3455 9.35987L35.6075 9.46881L35.8833 9.5824L36.2496 9.73771L36.9728 10.0437L37.2417 10.1596L38.8204 10.8202L39.8844 10.4354L40.5311 10.1944L40.9623 10.0298L41.5812 9.78639L39.9887 9.06083C39.0777 8.64822 38.1365 8.23792 37.1676 7.82994C36.1986 7.42428 35.2134 7.02325 34.2074 6.62686L34.0729 6.59209L33.7136 6.45764L33.2848 6.2977L32.4873 6.00794L32.1025 5.86654L31.6992 5.72514L30.86 5.44001L30.4497 5.30093L30.0348 5.17112L29.2119 4.89758C28.9314 4.8095 28.6463 4.72837 28.3635 4.64492L27.5058 4.40615C26.3374 4.09785 25.1598 3.82432 23.9776 3.5786C22.7861 3.33753 21.5738 3.12658 20.3405 2.96895C19.0934 2.80205 17.8393 2.70237 16.5829 2.66992C15.9431 2.66992 15.3056 2.66992 14.6612 2.69542C14.0075 2.73019 13.3608 2.80205 12.7163 2.90636C12.051 3.01531 11.3997 3.17758 10.7622 3.39084C10.6811 3.41866 10.6022 3.44879 10.5211 3.47893L10.2777 3.57165L10.0413 3.67596L9.92072 3.72928L9.8025 3.78723L9.57069 3.90313L9.34119 4.02831C9.18588 4.11408 9.03753 4.21376 8.88685 4.30648C8.81499 4.35516 8.74081 4.41079 8.66895 4.46411L8.56 4.54524C8.52291 4.57074 8.49046 4.60319 8.45337 4.62869L8.24474 4.80254L8.04538 4.99031L7.9457 5.08303L7.85298 5.18271L7.66985 5.3867L7.49599 5.60228C7.46818 5.63705 7.43804 5.6695 7.41022 5.70891L7.33373 5.82481L7.31055 5.85495H7.4195L7.45427 5.82481Z" fill="#2F3729" stroke="#2F3729" stroke-width="0.96087"/>
<path d="M42.8335 10.8842L43.114 10.7613L43.3898 10.6385L44.4515 10.1563L44.9708 9.92219L45.4738 9.68343C46.1344 9.37049 46.7696 9.07841 47.3607 8.7817L48.2207 8.35518L48.6334 8.15119L49.0182 7.9472L50.4554 7.21005L51.6492 6.5749L52.1568 6.306L52.5996 6.06493L53.2904 5.68013L53.856 5.36719L53.2788 5.65695L52.5764 6.00929L52.1267 6.23646L51.6075 6.48681L50.3905 7.07792L48.9556 7.74784L48.5708 7.93561L48.1558 8.12337L47.2842 8.50817C46.6838 8.78634 46.0417 9.05523 45.3625 9.34731L44.8502 9.56984L44.324 9.78774L43.2368 10.2374L42.9563 10.3534H42.91L42.6712 10.4461L42.094 10.6732L41.5075 10.9027C41.3105 10.9792 41.1227 11.0604 40.9072 11.1345L40.1839 11.4034C39.5997 11.6213 39.004 11.8439 38.3897 12.0571L37.7337 12.2866L37.3976 12.4048L37.0591 12.5161L35.6868 12.9751C33.8277 13.5708 31.8434 14.155 29.785 14.6858L28.2133 15.0683L27.8285 15.1657L27.4437 15.2537L26.637 15.4299L25.821 15.6084L24.9795 15.8194C24.4255 15.9237 23.8738 16.0349 23.3105 16.13L22.6777 16.2343L22.4667 16.2644L22.0425 16.3293L21.616 16.3873L21.1895 16.4406L20.7513 16.4916C20.4685 16.5217 20.1788 16.5519 19.8913 16.575C19.6016 16.5982 19.3188 16.6145 19.0267 16.633H16.6506L16.5231 16.5866H16.4165L15.9854 16.5449H15.7698L15.5565 16.5148L15.3711 16.4615L15.1601 16.4221H15.0674L14.7336 16.3618L14.3094 16.2644L14.1912 16.2042H14.0868L13.8828 16.1462C13.6116 16.0651 13.3404 15.9723 13.0761 15.8727C12.8119 15.773 12.5453 15.6571 12.3065 15.5273L12.2115 15.4809L12.0956 15.4346L11.9125 15.3187C11.7896 15.2468 11.6575 15.1819 11.5277 15.1031C11.2819 14.957 11.0432 14.7971 10.8091 14.6302C10.6932 14.5467 10.5772 14.461 10.466 14.3706C10.3547 14.2778 10.2481 14.1898 10.1368 14.097L9.99077 13.9556L9.83546 13.8096L9.6871 13.6589L9.54106 13.5059L9.46688 13.4271L9.39734 13.3483L9.26057 13.186C9.17016 13.0748 9.08208 12.9658 9.00326 12.8522L8.94067 12.7665L8.90127 12.7433L8.87113 12.7016L8.75523 12.5277C8.71814 12.4721 8.68337 12.4095 8.64859 12.3515L8.59528 12.2634L8.54428 12.1707L8.45156 11.976L8.36347 11.7906C8.33333 11.7303 8.31015 11.6631 8.28234 11.6028L8.24525 11.5054L8.2267 11.4614V11.415L8.15716 11.2226C8.13398 11.1577 8.11775 11.0905 8.09921 11.0256L8.06907 10.9213L8.02966 10.8216L7.9833 10.6269C7.96476 10.4924 7.93462 10.3603 7.92303 10.2421V10.1424C7.92071 10.1076 7.92071 10.0752 7.92303 10.0427V9.55825H7.87203L7.80713 9.58143L7.71904 9.61157H7.68427L7.55214 9.66489L7.4571 9.70661C7.29715 9.78079 7.14647 9.86656 7.00275 9.96855L6.93321 10.0195L6.89612 10.0543L6.78021 10.1447L6.62954 10.2908L6.59245 10.3371L6.53913 10.3951L6.49277 10.4484L6.43945 10.5179C6.46263 10.6617 6.49277 10.8031 6.51827 10.9445C6.54609 11.0882 6.56231 11.1183 6.58549 11.2018C6.60867 11.2875 6.60867 11.2875 6.62026 11.3293L6.65735 11.4568C6.68517 11.5402 6.70835 11.626 6.73849 11.7071L6.83121 11.9528L6.85439 12.0131L6.87989 12.0757L6.93321 12.1939C6.96798 12.275 7.00275 12.3562 7.04216 12.4327L7.16038 12.6621L7.28787 12.8893L7.35278 13.0006L7.42232 13.1095C7.46869 13.1814 7.51505 13.2556 7.56141 13.3251L7.70745 13.5361L7.74454 13.5894L7.78395 13.6404L7.86044 13.74C7.96012 13.8768 8.07139 14.0043 8.18266 14.1248L8.35188 14.3126L8.43765 14.4053L8.52574 14.4934L8.70191 14.6742L8.88272 14.8458L9.06817 15.0127L9.25593 15.1726C9.38575 15.2769 9.51324 15.3836 9.64074 15.4809C9.76591 15.576 9.905 15.6756 10.0255 15.7684C10.2968 15.9538 10.5749 16.13 10.8577 16.2876C11.0015 16.3734 11.1475 16.4452 11.2889 16.5194L11.5091 16.626L11.6204 16.6794L11.7317 16.7304C12.0261 16.8671 12.3274 16.9877 12.6334 17.1152C12.9417 17.2403 13.25 17.3168 13.5606 17.4026L13.7948 17.4605L13.9153 17.486L14.0289 17.5092L14.4948 17.6019L14.9631 17.6784L15.1972 17.7132L15.4313 17.741L15.6678 17.7665L15.9019 17.7897L16.3702 17.8245H16.8361C16.9891 17.8245 17.1467 17.8245 17.2997 17.8245H18.6813L19.1333 17.7943C19.4324 17.7665 19.736 17.7434 20.0327 17.7109C20.3295 17.6761 20.6285 17.6367 20.9206 17.5973L21.3633 17.5324L21.8014 17.4629L22.2349 17.391L22.6661 17.3099L22.8817 17.2728L23.0578 17.2403L23.4844 17.1569C24.05 17.0456 24.611 16.9135 25.165 16.7906L25.9949 16.6075L26.8132 16.4035L27.6314 16.2042L28.0162 16.1022L28.401 15.9955L29.9774 15.562C32.0474 14.9663 34.0155 14.3126 35.8676 13.6404L37.2793 13.1513L37.6131 13.0284L37.9446 12.8986L38.5983 12.6436C38.9808 12.4976 39.3656 12.3446 39.7504 12.1939L40.8469 11.7419L41.1111 11.6329C41.3105 11.5518 41.4959 11.4637 41.7023 11.3803L42.2748 11.1299L42.8335 10.8842Z" fill="#2F3729" stroke="#2F3729" stroke-width="0.96087"/>
<path d="M58.7756 14.4103C59.675 14.9319 60.6278 15.3167 61.6361 15.5624C62.0233 15.6574 62.415 15.7246 62.8114 15.764C64.5963 15.9333 66.0915 15.4488 66.7475 14.3106C67.8625 12.3588 66.1054 9.25259 62.8439 7.36104C60.9222 6.25764 58.9101 5.82417 57.343 6.02352C57.0231 6.06524 56.7102 6.13942 56.4042 6.24605C55.7412 6.45932 55.2289 6.86266 54.8673 7.45608C53.7523 9.40094 55.5025 12.5187 58.7756 14.4103ZM55.1664 7.62994C56.1168 5.98411 58.5577 5.98875 61.2699 7.55808C64.3808 9.35226 66.0452 12.3148 64.9811 14.1599C64.0238 15.8197 61.6315 15.8243 58.8776 14.2341C55.7667 12.4376 54.1023 9.47512 55.1664 7.62994Z" fill="#2F3729" stroke="#2F3729" stroke-width="0.96087"/>
<mask id="mask0_2233_9782" style="mask-type:luminance" maskUnits="userSpaceOnUse" x="55" y="-1" width="167" height="22">
<path d="M55.623 0.462891H221V20.4771H55.623V0.462891Z" fill="white" stroke="white" stroke-width="0.96087"/>
</mask>
<g mask="url(#mask0_2233_9782)">
<path d="M152.173 17.4C143.844 17.363 135.519 17.4232 127.195 17.5809C119.131 17.7338 111.017 18.2577 102.942 18.0445C99.4538 17.9796 95.9901 17.6342 92.5529 17.0106L91.9185 16.8854L91.6024 16.8228L91.4454 16.7927H91.2951C90.9017 16.7046 90.5171 16.5864 90.1413 16.438C89.7611 16.2943 89.3942 16.1205 89.0405 15.9165C88.6957 15.7125 88.3663 15.483 88.0524 15.228C87.7363 14.973 87.4379 14.6949 87.1572 14.3981C86.8765 14.1014 86.609 13.7908 86.3548 13.464C85.853 12.808 85.3866 12.1264 84.9556 11.4148C84.0869 10.0054 83.2956 8.55662 82.3893 7.23764C81.9494 6.58394 81.4675 5.96502 80.9459 5.38086C80.4419 4.81989 79.8915 4.31455 79.2925 3.86717C78.7288 3.4476 78.1408 3.07439 77.5263 2.74522C76.9494 2.43692 76.357 2.17266 75.7447 1.95244C74.6528 1.56532 73.5343 1.31034 72.3871 1.18516C71.8676 1.12257 71.3725 1.0878 70.9216 1.06926C70.4706 1.0484 70.0131 1.04608 69.6019 1.06926C68.7819 1.06926 68.0745 1.12257 67.502 1.16198C66.9295 1.19907 66.483 1.23848 66.1824 1.26398L65.7248 1.30802H66.1824C66.483 1.30802 66.9163 1.2802 67.502 1.26861C68.0878 1.25702 68.7819 1.26861 69.5975 1.26861C70.0042 1.26861 70.4441 1.31034 70.9061 1.34974C71.3681 1.38683 71.8566 1.44942 72.3738 1.53287C73.4768 1.68818 74.5511 1.96403 75.5988 2.36506C76.178 2.60382 76.7394 2.8843 77.281 3.20652C77.8557 3.54959 78.4039 3.93207 78.9255 4.3586C79.4715 4.80367 79.9689 5.30205 80.422 5.84911C80.895 6.42631 81.3305 7.03596 81.7262 7.67575C82.1373 8.32945 82.5219 9.02023 82.911 9.73651C83.2978 10.4505 83.6868 11.1853 84.1046 11.9271C84.529 12.6897 84.9932 13.4246 85.4972 14.1339C85.758 14.4932 86.0365 14.8479 86.3393 15.1863C86.6444 15.5317 86.9671 15.8539 87.3119 16.1552C87.659 16.4612 88.0259 16.7394 88.4105 16.9874C88.8062 17.2401 89.2173 17.4603 89.6461 17.6458C90.0838 17.8382 90.5325 17.9981 90.9923 18.1233L91.0763 18.1465H91.1559L91.3172 18.1836L91.64 18.26L92.2854 18.4154C93.3685 18.6703 94.4671 18.8813 95.5834 19.0482L94.3964 18.9879L93.3177 18.9207L92.7717 18.8836L92.2191 18.8442L91.0984 18.7561L89.9578 18.6634L88.815 18.5637L88.2271 18.5058L87.6678 18.4617L87.3805 18.4293L87.0997 18.3945L86.8168 18.3597H86.6731L86.5339 18.3412L85.9702 18.26L85.4132 18.1673C84.6793 18.0422 83.9477 17.8915 83.2403 17.7107C82.5551 17.5322 81.8831 17.3143 81.22 17.0616L80.7469 16.8646L80.6298 16.8159L80.5193 16.7649L80.3049 16.6629L80.0904 16.5493L79.9843 16.496L79.8827 16.438L79.6771 16.3198L79.4804 16.1923C78.9631 15.8585 78.4813 15.476 78.0325 15.0472C77.0798 14.1362 76.2399 13.1209 75.5149 12.0036C75.1103 11.4009 74.7147 10.7657 74.3234 10.1004C73.93 9.43516 73.5387 8.75134 73.1342 8.06055L72.8314 7.53667C72.7828 7.45322 72.7209 7.35586 72.6656 7.26777L72.4976 6.99656C72.4689 6.9502 72.4423 6.90383 72.4136 6.85979L72.3208 6.72998L72.1373 6.46804L72.0467 6.33823L71.9516 6.21073L71.7571 5.95806C71.2377 5.29278 70.6607 4.68544 70.0308 4.13606C69.4185 3.60291 68.7664 3.1277 68.0745 2.71277C67.4136 2.3187 66.7306 1.97794 66.021 1.6905C65.3579 1.42392 64.6815 1.19907 63.9919 1.01826C63.3575 0.855995 62.7164 0.728502 62.071 0.633461L61.6156 0.573191L61.1758 0.531466L60.7447 0.496695L60.5458 0.480469H58.8239C58.1011 0.496695 57.3849 0.552329 56.6687 0.649688C56.4145 0.679822 56.2244 0.714594 56.094 0.735456L55.8906 0.765591H56.094C56.2244 0.765591 56.4189 0.765591 56.6709 0.765591C57.3871 0.749364 58.1011 0.772545 58.8128 0.835133L59.1576 0.869904H59.3367L59.5202 0.893085L59.8871 0.937128L60.2739 0.99508L60.4729 1.02753L60.674 1.06462L61.0874 1.14112L61.514 1.2292L61.7306 1.2802L61.945 1.33352C62.5573 1.48651 63.1585 1.66964 63.7531 1.8829C64.3897 2.11702 65.0087 2.38824 65.6143 2.69886C66.2509 3.02339 66.8632 3.3966 67.4468 3.81617C68.0436 4.24733 68.6028 4.72485 69.1223 5.25337C69.6439 5.78653 70.117 6.36372 70.5414 6.98728L70.6939 7.22141L70.7713 7.34195L70.8442 7.46481L70.9879 7.70589L71.0608 7.82643C71.0874 7.86351 71.105 7.90988 71.1271 7.94928L71.2598 8.19732C71.3018 8.28308 71.346 8.35958 71.3946 8.4523L71.6665 8.98546C72.3981 10.4134 73.1033 11.8506 73.9233 13.1788C74.3256 13.8349 74.7611 14.4631 75.2319 15.0658L75.4065 15.286L75.5878 15.5015L75.6762 15.6082L75.7668 15.7125L75.9503 15.9165L76.136 16.1158C76.2001 16.1807 76.2576 16.2456 76.3239 16.3082C76.4521 16.4357 76.5759 16.5609 76.6908 16.693C77.2324 17.1984 77.8181 17.6434 78.4459 18.0259L78.6957 18.172L79.0803 18.3806L79.2129 18.4455L79.4759 18.573L79.7478 18.6866L79.8827 18.7445L80.0175 18.7955L80.5613 18.9949C81.304 19.2452 82.0599 19.4515 82.8248 19.6092C83.5984 19.7668 84.3875 19.8781 85.1744 19.9638L85.769 20.0218L86.3614 20.0635H93.2823L94.3809 20.0287C95.2098 20.0287 96.0387 20.0009 96.8698 19.9661C99.5555 19.9661 102.243 19.8873 104.934 19.9128C107.701 19.9453 110.466 19.9777 113.234 19.9453C121.052 19.8526 128.892 19.6416 136.691 19.2684C144.847 18.9926 153.004 18.7561 161.163 18.5568C169.365 18.3713 177.692 17.764 185.891 18.0561C174.651 17.6666 163.411 17.4487 152.173 17.4Z" fill="#2F3729" stroke="#2F3729" stroke-width="0.96087"/>
</g>
<path d="M190.815 79.0217C190.562 78.3773 190.446 77.7073 190.467 77.0142C190.488 76.3211 190.645 75.6605 190.938 75.0323C188.902 74.9349 186.992 74.3971 185.207 73.4143C186.19 75.1992 186.728 77.1093 186.825 79.1445C187.453 78.8525 188.114 78.6948 188.807 78.674C189.5 78.6531 190.168 78.769 190.815 79.0217Z" fill="#2F3729" stroke="#2F3729" stroke-width="0.96087"/>
<path d="M208.661 42.4036V42.1834L208.624 41.7453L208.573 41.3025C208.573 41.2306 208.573 41.1565 208.545 41.0846L208.515 40.8644C208.443 40.2779 208.334 39.6845 208.216 39.098L208.088 38.639C208.053 38.493 208.019 38.347 207.982 38.1986L207.926 37.9784L207.87 37.7605L207.75 37.3177C207.662 37.0257 207.578 36.7336 207.476 36.4415L207.404 36.2213C207.381 36.1494 207.358 36.0753 207.33 36.0034L207.193 35.5653C206.973 34.9881 206.744 34.4109 206.477 33.8499L206.382 33.639L206.278 33.428L206.071 33.0085C205.925 32.728 205.775 32.4475 205.61 32.174C205.286 31.6223 204.929 31.0914 204.542 30.5838C204.444 30.4563 204.34 30.3311 204.24 30.199L204.087 30.0158L203.93 29.8304L203.767 29.6496L203.688 29.5569L203.603 29.4688L203.438 29.2926L203.264 29.1187C203.037 28.8893 202.796 28.6667 202.546 28.4511C202.295 28.2356 202.038 28.0269 201.778 27.8369C201.644 27.7349 201.505 27.6445 201.366 27.5517C201.296 27.5054 201.224 27.4636 201.155 27.4173L200.939 27.2852L200.721 27.1623L200.61 27.102L200.496 27.0441L200.272 26.9282L200.04 26.8215C199.412 26.5341 198.756 26.3301 198.076 26.2096H197.553C197.381 26.2096 197.207 26.1748 197.031 26.1748H195.962C195.598 26.2258 195.244 26.3092 194.898 26.4298C194.727 26.4877 194.558 26.555 194.391 26.6291C194.305 26.6639 194.228 26.7056 194.147 26.7474L193.911 26.8702L193.563 27.0788L193.452 27.1553L193.229 27.313L193.018 27.4868L192.909 27.5703L192.81 27.663L192.61 27.8508L192.425 28.0501L192.334 28.1498L192.249 28.2541L192.079 28.465L191.922 28.6853L191.845 28.7965L191.774 28.9124C191.727 28.9889 191.676 29.0654 191.634 29.1419C191.549 29.2996 191.461 29.4549 191.389 29.6148C191.349 29.6959 191.312 29.7724 191.277 29.8536L191.178 30.0947C191.143 30.1758 191.115 30.2569 191.085 30.338C191.055 30.4192 191.022 30.5026 190.999 30.5838C190.951 30.7483 190.897 30.9152 190.853 31.0798C190.763 31.4113 190.7 31.7451 190.642 32.0743C190.54 32.7326 190.485 33.3933 190.478 34.0585C190.471 34.7076 190.496 35.3567 190.559 36.0034C190.617 36.6455 190.705 37.2783 190.811 37.9019L190.893 38.3678L190.985 38.8291L191.032 39.0586L191.08 39.2904L191.178 39.7587L191.289 40.2107L191.342 40.4379L191.403 40.665L191.523 41.1147L191.651 41.5598L191.716 41.7847L191.785 42.0072L191.92 42.4476L192.061 42.8857L192.13 43.106L192.202 43.3215L192.353 43.755L192.583 44.4018L192.826 45.0346C193.044 45.5956 193.271 46.1542 193.505 46.7036C193.742 47.253 193.987 47.7908 194.233 48.3216L194.966 49.8817L196.407 52.9253C196.857 53.8734 197.295 54.8053 197.722 55.7163L198.341 54.286L198.475 53.987L198.86 53.1826L198.721 52.8952L198.45 52.3296L198.304 52.0259L196.827 49.017L196.081 47.4802C195.835 46.9655 195.594 46.4509 195.362 45.9433C195.132 45.4356 194.905 44.8862 194.69 44.3508L194.527 43.9474L194.37 43.5394L194.217 43.1338L194.066 42.7212L193.994 42.5149L193.925 42.3062L193.783 41.8913L193.649 41.4717L193.579 41.2654L193.514 41.0545L193.387 40.6303L193.269 40.2084L193.206 39.9974L193.148 39.7819L193.037 39.3553L192.933 38.9242L192.884 38.7086L192.838 38.493L192.745 38.0595L192.661 37.6261C192.545 37.0442 192.457 36.4717 192.395 35.8759C192.33 35.2941 192.295 34.7099 192.29 34.1235C192.286 33.5463 192.323 32.9737 192.399 32.4011C192.441 32.1206 192.487 31.8402 192.557 31.5713C192.557 31.4878 192.599 31.402 192.622 31.3186L192.664 31.1679C192.664 31.103 192.708 31.0381 192.729 30.9732C192.752 30.906 192.773 30.8411 192.798 30.7808L192.872 30.5884C192.895 30.5258 192.926 30.4655 192.953 30.403C193.007 30.2755 193.072 30.1619 193.13 30.0413C193.16 29.9834 193.194 29.9277 193.229 29.8698L193.28 29.784L193.334 29.7029L193.445 29.5383L193.563 29.3853L193.626 29.3088L193.691 29.2346L193.82 29.0886L193.959 28.9495L194.029 28.8823L194.252 28.6459L194.409 28.5323L194.486 28.4743L194.571 28.421L194.736 28.3121L194.956 28.1962L195.086 28.1289L195.262 28.0478L195.443 27.9736C195.686 27.8832 195.937 27.8183 196.192 27.7789H197.819L198.023 27.8137L198.327 27.8786L198.63 27.9551L198.83 28.0153L198.929 28.0478C199.062 28.0918 199.191 28.1405 199.314 28.1938L199.409 28.2356L199.606 28.319L199.799 28.4117L199.894 28.4581L199.991 28.5091L200.179 28.6088L200.225 28.6343L200.362 28.7154L200.501 28.7965L200.547 28.8267L200.682 28.9124L200.728 28.9426L200.863 29.0307L200.904 29.0608C201.025 29.1419 201.139 29.2277 201.254 29.3158L201.34 29.3807L201.598 29.58L201.927 29.8652L202.17 30.0854L202.251 30.1619L202.634 30.5444L202.856 30.7878L203.002 30.9523L203.148 31.1192L203.218 31.2027C203.287 31.2861 203.362 31.3673 203.427 31.4554L203.556 31.6176L203.691 31.7915L203.823 31.9676L203.948 32.1438C204.117 32.3826 204.28 32.626 204.433 32.874C204.59 33.1197 204.734 33.3747 204.875 33.6436L205.082 34.0284L205.133 34.1235L205.184 34.2208L205.279 34.4202C205.543 34.9464 205.779 35.4842 206.002 36.0219C206.517 37.2992 206.913 38.6135 207.189 39.9627C207.217 40.1041 207.244 40.2432 207.275 40.3799C207.302 40.519 207.328 40.6581 207.351 40.7995L207.386 41.0104C207.474 41.5714 207.546 42.1347 207.601 42.6957C207.636 43.0735 207.664 43.4583 207.685 43.8477H207.703C207.703 44.0633 207.713 44.2789 207.731 44.4945C207.731 44.6544 207.731 44.8144 207.731 44.9743C207.731 45.6883 207.713 46.3953 207.678 47.0954C207.678 47.2368 207.669 47.3758 207.65 47.5149V47.5868C207.65 47.7328 207.639 47.8789 207.615 48.0226C207.581 48.4398 207.537 48.8525 207.488 49.2628C207.358 50.3175 207.184 51.3421 206.985 52.3388C206.785 53.3333 206.551 54.3092 206.296 55.2503C205.914 56.72 205.464 58.1155 205.01 59.4298L204.79 60.051L204.625 60.5123C204.419 61.0849 204.21 61.6389 204.004 62.1767L204.245 62.7539C204.53 62.0933 204.815 61.4025 205.103 60.6862C205.747 59.0728 206.387 57.3204 206.955 55.4311C207.24 54.4877 207.509 53.5095 207.743 52.4988C207.977 51.4881 208.186 50.4473 208.355 49.3717C208.431 48.8339 208.508 48.2915 208.566 47.7375C208.596 47.4616 208.619 47.1834 208.642 46.9076C208.642 46.7685 208.661 46.6271 208.672 46.488C208.684 46.3489 208.691 46.2075 208.7 46.0661L208.719 45.6419C208.719 45.5005 208.719 45.3591 208.719 45.2154C208.719 44.9326 208.719 44.6428 208.719 44.36C208.719 43.7828 208.719 43.2056 208.661 42.6215V42.4036Z" fill="#2F3729" stroke="#2F3729" stroke-width="0.96087"/>
<path d="M200.15 71.3299C200.535 70.6043 200.966 69.7165 201.48 68.6734L201.754 68.117L201.65 67.8203L201.304 68.5899C200.827 69.647 200.412 70.551 200.069 71.2812L199.631 72.271L199.301 72.9896C199.128 73.3744 199.028 73.5622 199.023 73.5738C199.021 73.5854 199.134 73.3675 199.325 72.9989L200.15 71.3299Z" fill="#2F3729" stroke="#2F3729" stroke-width="0.96087"/>
<path d="M198.438 56.7389L198.329 57.0055L197.879 58.0996C197.731 58.4844 197.576 58.8692 197.43 59.254L197.177 59.9054L197.045 60.2369C197.003 60.3482 196.966 60.4594 196.922 60.5707L196.419 61.936C195.763 63.7882 195.109 65.7562 194.497 67.8309C194.351 68.3501 194.21 68.8763 194.064 69.4072L193.955 69.792C193.92 69.9264 193.89 70.0609 193.855 70.1768L193.656 70.9881L193.452 71.8064L193.269 72.6362C193.146 73.1926 193.014 73.7512 192.902 74.3145L192.831 74.7689L192.787 74.9845L192.749 75.2L192.668 75.6312L192.594 76.0647C192.569 76.2107 192.55 76.3567 192.527 76.5028C192.504 76.6488 192.481 76.7949 192.46 76.9455C192.423 77.2399 192.381 77.5366 192.348 77.8334C192.318 78.1278 192.29 78.4314 192.265 78.7328C192.265 78.8811 192.246 79.0364 192.235 79.1848V79.3633H192.33C192.481 79.3633 192.617 79.3633 192.752 79.3633H193.403V79.1964C193.403 79.0503 193.403 78.9089 193.403 78.7675C193.403 78.4778 193.433 78.1903 193.461 77.9006C193.487 77.6131 193.514 77.328 193.54 77.0406C193.54 76.8992 193.575 76.7555 193.591 76.6141C193.607 76.4727 193.626 76.3289 193.644 76.1875L193.702 75.761L193.767 75.3391L193.797 75.1259L193.902 74.493C193.999 73.932 194.11 73.378 194.212 72.824L194.37 72.0011L194.548 71.1875L194.724 70.3808C194.755 70.2463 194.782 70.1119 194.813 69.996L194.91 69.6112C195.035 69.0803 195.163 68.5588 195.292 68.0395C195.865 65.9718 196.449 64.0084 197.045 62.14L197.504 60.7677C197.541 60.6565 197.576 60.5406 197.615 60.4293L197.733 60.0978L197.965 59.4418C198.176 58.8252 198.399 58.2271 198.619 57.6453L198.888 56.9244C198.96 56.7204 199.041 56.5396 199.117 56.324L199.349 55.7352L199.574 55.1603L199.667 54.9216V54.8752L199.783 54.5947L200.232 53.5076L200.452 52.9814L200.698 52.476C200.99 51.8038 201.261 51.1617 201.535 50.5543L201.92 49.6827C201.985 49.5413 202.047 49.4023 202.108 49.2678L202.295 48.883C202.543 48.3614 202.768 47.8677 202.984 47.4226L203.577 46.2033L203.83 45.6864L204.057 45.2367L204.409 44.5274L204.699 43.9525L204.386 44.5181L204.004 45.2089L203.76 45.6516L203.491 46.1593L202.856 47.3531C202.627 47.7912 202.386 48.2757 202.119 48.7903L201.92 49.1751C201.85 49.3095 201.785 49.4486 201.716 49.5877L201.289 50.4477C200.993 51.0365 200.701 51.6693 200.385 52.3346L200.149 52.8376L199.912 53.3569L199.433 54.4186L199.31 54.6944L199.187 54.9749L198.941 55.5521L198.691 56.1316C198.607 56.3426 198.519 56.5396 198.438 56.7389Z" fill="#2F3729" stroke="#2F3729" stroke-width="0.96087"/>
<path d="M207.099 77.4899C206.937 76.2567 206.714 75.0444 206.487 73.8529C206.262 72.6637 205.97 71.4908 205.657 70.341C205.581 70.0536 205.502 69.7685 205.418 69.4833C205.339 69.2005 205.254 68.9108 205.166 68.6349L204.904 67.7958L204.774 67.3809L204.628 66.9706L204.35 66.1523C204.306 66.0178 204.259 65.8787 204.208 65.7489L204.062 65.3641C203.967 65.0952 203.87 64.8287 203.775 64.5644L203.613 64.1379L203.478 63.7763L203.425 63.6349C203.035 62.6103 202.637 61.6181 202.229 60.6585C201.821 59.7011 201.413 58.76 201 57.8374C200.764 57.3251 200.52 56.7942 200.272 56.2472L200.031 56.8661C199.973 57.0168 199.915 57.1582 199.866 57.2973L199.623 57.9417L199.248 59.0103C199.472 59.5226 199.7 60.0349 199.927 60.5472L200.043 60.8161L200.349 61.5393L200.504 61.9056L200.618 62.1814L200.726 62.4434L200.845 62.7354C201.081 63.315 201.318 63.9038 201.552 64.5064L201.853 65.276L201.976 65.6098L202.136 66.0526L202.275 66.4351L202.398 66.7735L202.416 66.8315L202.706 67.6266L202.843 68.0114L202.975 68.3962L203.237 69.2075C203.325 69.4764 203.406 69.7453 203.485 70.0211C203.566 70.2993 203.647 70.5728 203.724 70.8487C204.034 71.9544 204.32 73.0856 204.57 74.2354C204.82 75.3828 205.043 76.5395 205.212 77.7241C205.388 78.904 205.504 80.0885 205.557 81.28C205.581 81.8757 205.585 82.4668 205.557 83.0603C205.537 83.656 205.483 84.2494 205.395 84.8382C205.312 85.4085 205.184 85.9671 205.013 86.5142C204.992 86.5837 204.966 86.6486 204.943 86.7135L204.874 86.9106L204.797 87.103L204.758 87.198L204.716 87.2907L204.628 87.4762C204.598 87.5364 204.563 87.5944 204.53 87.657C204.47 87.7798 204.396 87.8911 204.329 88.0047V88.0256L204.227 88.1716L204.173 88.2527C204.173 88.2782 204.136 88.3014 204.113 88.3292L203.99 88.4822L203.858 88.6283L203.793 88.7024L203.724 88.7673L203.587 88.9018L203.436 89.0246L203.362 89.0849L203.286 89.1406C203.077 89.2912 202.857 89.4187 202.62 89.523C202.502 89.5694 202.384 89.6273 202.256 89.6668L202.069 89.727L201.876 89.778L201.779 89.8035H201.679L201.48 89.8429H201.276L201.072 89.8707H199.846C199.711 89.8707 199.581 89.8313 199.461 89.8082L199.266 89.7618L199.166 89.7386L199.069 89.7131L198.874 89.6552L198.682 89.5856H198.636L198.589 89.5671L198.494 89.5277C198.432 89.4999 198.367 89.479 198.304 89.4465L198.093 89.3747L197.912 89.2773L197.82 89.2286L197.732 89.1753L197.555 89.0664L197.381 88.9505L197.34 88.925L197.298 88.8925L197.212 88.8322C197.099 88.7511 196.99 88.663 196.878 88.5749L196.719 88.4359L196.637 88.3663L196.561 88.2945L196.406 88.1484L196.257 87.9977L196.111 87.8448L195.967 87.6871C195.875 87.5782 195.78 87.4715 195.696 87.3556C195.61 87.2421 195.518 87.1285 195.434 87.0149C195.267 86.7808 195.107 86.542 194.961 86.2963C194.885 86.1734 194.818 86.0459 194.746 85.9115L194.646 85.7191L194.595 85.6217L194.549 85.5267C194.424 85.2694 194.312 85.0051 194.203 84.7571C194.097 84.5114 194.011 84.2193 193.93 83.9504L193.874 83.7464C193.874 83.7116 193.853 83.6792 193.846 83.6444L193.823 83.5401L193.728 83.1159C193.705 83.0139 193.684 82.905 193.666 82.8006H193.538L193.01 82.7473H192.358L192.391 82.9513C192.414 83.1089 192.435 83.2619 192.467 83.4196L192.56 83.8855L192.581 84.0014L192.609 84.1196L192.666 84.3537C192.75 84.6667 192.847 84.9773 192.954 85.2856C193.063 85.5916 193.186 85.8929 193.339 86.185L193.39 86.2963L193.443 86.4076L193.55 86.6254C193.626 86.7692 193.7 86.9152 193.781 87.0566C193.939 87.3417 194.115 87.6176 194.301 87.8911C194.396 88.0256 194.488 88.16 194.588 88.2759C194.688 88.3895 194.792 88.5355 194.896 88.6584L195.061 88.8485C195.114 88.9087 195.168 88.9737 195.226 89.0316L195.4 89.2124L195.576 89.3886L195.664 89.479L195.756 89.5624L195.944 89.7317C196.076 89.8383 196.202 89.9496 196.329 90.0539L196.429 90.1304L196.48 90.1698L196.533 90.2092L196.744 90.3552L196.941 90.4572L197.064 90.5268L197.175 90.5917L197.402 90.7192L197.632 90.8351C197.708 90.8721 197.789 90.9069 197.871 90.9463L197.989 90.9996L198.093 91.046L198.339 91.1387L198.589 91.2199L198.717 91.2569L198.863 91.2964L199.12 91.3613C199.261 91.3891 199.405 91.4192 199.547 91.4424H199.904L200.168 91.4609H201.199L201.461 91.4378H201.721L201.983 91.396L202.113 91.3729L202.245 91.3427L202.507 91.2801L202.764 91.2036C202.936 91.1526 203.105 91.0808 203.274 91.0159C203.603 90.8814 203.916 90.7192 204.213 90.5268L204.243 90.5036L204.359 90.4271L204.466 90.3436L204.681 90.1698L204.885 89.9843L204.985 89.8939L205.078 89.7919L205.265 89.5926L205.439 89.3863C205.465 89.3515 205.497 89.3167 205.523 89.282L205.604 89.1753C205.657 89.1011 205.71 89.0293 205.761 88.9551C205.856 88.8044 205.958 88.6561 206.037 88.5008C206.081 88.4243 206.125 88.3478 206.165 88.2713L206.281 88.0372L206.339 87.9166L206.387 87.7984L206.492 87.5596L206.584 87.3186C206.614 87.2374 206.645 87.1563 206.672 87.0752C206.886 86.44 207.048 85.7886 207.157 85.128C207.263 84.4836 207.333 83.8345 207.368 83.1831C207.403 82.5364 207.41 81.8943 207.396 81.2614C207.363 79.9981 207.263 78.7417 207.099 77.4899Z" fill="#2F3729" stroke="#2F3729" stroke-width="0.96087"/>
<path d="M202.606 42.9535C203.2 42.5896 203.603 42.0773 203.816 41.4143C203.925 41.1106 204 40.7977 204.039 40.4778C204.25 38.9085 203.805 36.8917 202.701 34.977C200.815 31.7062 197.706 29.9538 195.752 31.0757C194.6 31.734 194.131 33.2292 194.301 35.0118C194.34 35.4082 194.405 35.7999 194.5 36.1894C194.746 37.1977 195.131 38.1505 195.652 39.0475C197.548 42.3253 200.664 44.0754 202.606 42.9535ZM195.833 38.9525C194.243 36.1963 194.245 33.8064 195.907 32.849C197.752 31.7827 200.715 33.4471 202.509 36.5579C204.078 39.2701 204.081 41.711 202.437 42.6614C200.592 43.7254 197.629 42.061 195.833 38.9525Z" fill="#2F3729" stroke="#2F3729" stroke-width="0.96087"/>
<path d="M137.96 85.7589C137.96 85.8006 137.96 85.847 137.96 85.8887V86.2805C138.103 86.9573 138.331 87.6041 138.641 88.2207L138.748 88.4525L138.864 88.6797L138.922 88.7909L138.982 88.9022L139.105 89.1201C139.147 89.1943 139.193 89.2638 139.237 89.3357C139.279 89.4099 139.325 89.4794 139.371 89.5466C139.462 89.6857 139.555 89.8248 139.654 89.9592C139.847 90.2281 140.039 90.4854 140.271 90.7265C140.5 90.9699 140.709 91.2156 140.938 91.4451L141.112 91.619L141.288 91.7836L141.377 91.8693L141.465 91.9505L141.645 92.1104L141.831 92.268L142.014 92.4233C142.142 92.523 142.264 92.625 142.399 92.7224C142.909 93.1118 143.437 93.4665 143.991 93.791C144.263 93.9533 144.543 94.1063 144.824 94.2523L145.243 94.4586L145.44 94.5815L145.651 94.6788C146.212 94.9431 146.803 95.1749 147.364 95.3928L147.8 95.5504L148.018 95.6246L148.238 95.6965C148.526 95.7961 148.822 95.8773 149.114 95.97L149.555 96.0882L149.775 96.1462L149.995 96.1995L150.436 96.2922L150.878 96.3896C151.467 96.5078 152.058 96.6121 152.647 96.6886L152.865 96.7187L153.085 96.7465L153.526 96.7952L153.964 96.8346H154.402C154.986 96.8764 155.556 96.8879 156.141 96.8926C156.428 96.8926 156.713 96.8926 156.996 96.8926H157.425L157.847 96.874L158.269 96.8462L158.688 96.8161C158.964 96.7929 159.244 96.7697 159.518 96.7396C160.067 96.684 160.614 96.6075 161.152 96.5263C162.223 96.3617 163.269 96.1438 164.282 95.9167C165.292 95.6895 166.287 95.4368 167.228 95.1401C169.115 94.5699 170.867 93.9301 172.483 93.288C173.199 93.0052 173.89 92.727 174.551 92.4488L173.974 92.2309C173.436 92.4373 172.882 92.6459 172.309 92.8522L171.848 93.0191L171.227 93.2184C169.912 93.6705 168.535 94.1086 167.047 94.505C166.106 94.7553 165.125 94.9894 164.136 95.1934C163.143 95.3974 162.105 95.5782 161.059 95.6965C160.649 95.7451 160.237 95.7892 159.819 95.8239L159.384 95.8587H159.312L158.892 95.9074C158.192 95.9491 157.485 95.9677 156.771 95.963H156.289L155.644 95.9352C155.267 95.9144 154.884 95.8865 154.49 95.8518C153.931 95.7961 153.37 95.7243 152.807 95.6362L152.596 95.6014L152.177 95.5249L151.759 95.4391C150.41 95.1633 149.096 94.7669 147.819 94.2523C147.276 94.0298 146.738 93.798 146.217 93.5291L146.015 93.434L145.92 93.383L145.825 93.3343L145.44 93.1257C145.185 92.9843 144.933 92.8406 144.671 92.683C144.409 92.5253 144.179 92.3677 143.94 92.1985L143.764 92.0733L143.588 91.9412L143.414 91.8067L143.252 91.6769C143.168 91.6074 143.083 91.5378 142.999 91.4683L142.913 91.4011L142.584 91.109L142.422 90.9583L142.341 90.8841L142.035 90.5782L141.956 90.5017L141.88 90.4205L141.662 90.1771L141.377 89.848L141.177 89.5907L141.112 89.5049C141.024 89.389 140.938 89.2754 140.857 89.1549L140.827 89.1131L140.739 88.9787L140.709 88.9323L140.623 88.7979L140.593 88.7515L140.512 88.6124L140.431 88.4757L140.405 88.4293L140.306 88.2416L140.255 88.1442L140.208 88.0492L140.116 87.8568L140.032 87.6597L139.99 87.5647C139.935 87.4325 139.886 87.3051 139.844 87.1799L139.812 87.0802C139.793 87.0153 139.77 86.9458 139.752 86.8808C139.731 86.8136 139.698 86.6792 139.675 86.5772C139.652 86.4729 139.629 86.3732 139.608 86.2735C139.589 86.1738 139.585 86.1391 139.573 86.0695V85.7079C139.573 85.6731 139.573 85.6384 139.573 85.6036C139.573 85.5688 139.573 85.5109 139.573 85.4668C139.573 85.4205 139.573 85.4042 139.573 85.3741C139.573 85.3416 139.573 85.3416 139.573 85.3277C139.573 85.3115 139.573 85.2999 139.573 85.2883C139.573 85.2767 139.573 85.2234 139.573 85.1933C139.573 85.1632 139.573 85.1423 139.573 85.1191C139.573 85.0959 139.573 85.031 139.573 84.9893V84.3936C139.615 84.1363 139.68 83.8882 139.77 83.6448C139.793 83.5822 139.817 83.522 139.844 83.464L139.923 83.2855C139.944 83.2392 139.967 83.1974 139.993 83.1557L140.016 83.114L140.062 83.0259L140.109 82.9355L140.215 82.7709L140.271 82.6875L140.326 82.611L140.442 82.4557L140.63 82.2331L140.7 82.1636L140.839 82.0268L140.985 81.8947L141.059 81.8298L141.135 81.7672L141.288 81.649L141.453 81.5377L141.534 81.4844L141.62 81.4334L141.792 81.3337C141.912 81.2734 142.026 81.2062 142.153 81.1575L142.339 81.0764L142.531 81.0022C142.591 80.9767 142.661 80.9582 142.721 80.935L142.918 80.8678L143.069 80.8261C143.152 80.8029 143.233 80.7797 143.321 80.7611C143.59 80.6916 143.871 80.6452 144.151 80.6035C144.724 80.527 145.296 80.4899 145.874 80.4969C146.46 80.4992 147.044 80.534 147.626 80.5989C148.21 80.6661 148.781 80.7542 149.376 80.8655L149.81 80.9489L150.243 81.0416L150.459 81.088L151.106 81.241L151.532 81.3523L151.748 81.4102L151.959 81.4728L152.381 81.591L152.805 81.7185L153.016 81.7834L153.222 81.853L153.642 81.9874L154.057 82.1288L154.265 82.1983L154.884 82.4209L155.29 82.5762L155.494 82.6527L155.698 82.7338L156.101 82.8938C156.637 83.114 157.17 83.3319 157.694 83.566C158.215 83.8025 158.734 84.0389 159.231 84.2846L160.767 85.031L163.797 86.496L164.101 86.6421L164.664 86.9156L164.954 87.0524L165.756 86.6676L166.057 86.5331L167.52 85.9142L164.731 84.5999L161.685 83.1603L160.121 82.4557C159.592 82.2099 159.05 81.9642 158.503 81.7301C157.958 81.496 157.402 81.2688 156.836 81.0486L156.412 80.8886L156.201 80.8075L155.985 80.731L155.556 80.5757L155.121 80.4273L154.907 80.3532L154.687 80.2836L154.249 80.1422L153.806 80.0078L153.584 79.9382L153.361 79.8733L152.916 79.7458L152.466 79.6276L152.239 79.565L152.012 79.5117L151.558 79.4004L151.101 79.2961L150.871 79.2474L150.64 79.2011L150.178 79.1084L149.712 79.0272C149.091 78.916 148.456 78.8325 147.814 78.7746C147.167 78.7143 146.52 78.6865 145.869 78.6934C145.206 78.7004 144.543 78.756 143.887 78.858C143.556 78.916 143.222 78.9786 142.89 79.069C142.726 79.113 142.561 79.1663 142.397 79.215C142.311 79.2382 142.23 79.2729 142.149 79.3008C142.07 79.3286 141.984 79.3587 141.907 79.3935L141.664 79.4932C141.585 79.5279 141.504 79.565 141.428 79.6044C141.265 79.6763 141.112 79.7667 140.955 79.8501L140.723 79.9892L140.609 80.0611L140.496 80.1376L140.278 80.2952L140.067 80.4644L139.963 80.5502L139.863 80.6429L139.664 80.8261L139.473 81.0254L139.383 81.1274L139.297 81.234L139.123 81.445L138.968 81.6675L138.889 81.7788L138.822 81.8947L138.683 82.1265C138.641 82.203 138.597 82.2841 138.56 82.3629C138.521 82.4441 138.474 82.5206 138.44 82.6063C138.365 82.7709 138.3 82.9401 138.24 83.114C138.122 83.4594 138.036 83.814 137.988 84.178V84.4538C137.988 84.5002 137.988 84.5466 137.988 84.5929V84.9847C137.988 85.0728 137.988 85.1585 137.988 85.2466C137.925 85.4089 137.943 85.585 137.96 85.7589Z" fill="#2F3729" stroke="#2F3729" stroke-width="0.96087"/>
<path d="M180.472 89.6806C181.513 89.1706 182.394 88.7209 183.129 88.3523L184.795 87.5109C185.18 87.3208 185.361 87.2188 185.373 87.2095C185.384 87.2026 185.162 87.3138 184.788 87.4877L184.065 87.8377L183.085 88.2897C182.348 88.6328 181.443 89.0593 180.396 89.523L179.626 89.8707L179.923 89.9727L180.472 89.6806Z" fill="#2F3729" stroke="#2F3729" stroke-width="0.96087"/>
<path d="M202.169 92.4486L201.909 92.4904H201.812L201.578 92.5135L201.286 92.5413H200.099L199.837 92.5228H199.818C199.702 92.5923 199.591 92.6642 199.468 92.7268L199.287 92.8218L199.102 92.9099L199.009 92.9516L198.914 92.9911L198.722 93.0675L198.525 93.1371L198.325 93.2066C197.778 93.3782 197.22 93.508 196.649 93.5914C196.07 93.6749 195.486 93.7259 194.897 93.7444C194.306 93.7676 193.715 93.7444 193.119 93.7444C191.927 93.6911 190.743 93.5752 189.563 93.399C188.388 93.2252 187.222 93.0142 186.072 92.7569C184.924 92.4996 183.793 92.2215 182.688 91.9108L181.86 91.6721C181.586 91.5909 181.318 91.5121 181.046 91.4217L180.237 91.1575L179.855 91.0276L179.47 90.8886L178.677 90.6127L178.619 90.5919L178.281 90.469L177.898 90.3322L177.456 90.17L177.122 90.0471L176.737 89.8964L176.352 89.7481C175.749 89.514 175.156 89.2752 174.57 89.0318L174.278 88.9136L174.016 88.8046L173.74 88.691L173.373 88.5357L172.65 88.2297L172.381 88.1138L170.803 87.4532L169.739 87.838L169.092 88.0791L168.661 88.2437L168.042 88.487L169.634 89.2126C170.545 89.6252 171.487 90.0355 172.455 90.4435C173.424 90.8492 174.41 91.2502 175.416 91.6466L175.55 91.6813L175.909 91.8158L176.338 91.9757L177.136 92.2655L177.521 92.4069L177.924 92.5483L178.763 92.8334L179.173 92.9725L179.588 93.1023L180.411 93.3759C180.692 93.4639 180.977 93.5451 181.26 93.6285L182.117 93.8673C183.286 94.1756 184.463 94.4491 185.645 94.6948C186.837 94.9359 188.049 95.1469 189.283 95.3045C190.53 95.4714 191.784 95.5711 193.04 95.6035C193.68 95.6035 194.317 95.6035 194.962 95.578C195.616 95.5432 196.262 95.4714 196.907 95.3671C197.572 95.2581 198.223 95.0959 198.861 94.8826C198.942 94.8548 199.021 94.8246 199.102 94.7945L199.345 94.7018L199.582 94.5975L199.702 94.5442L199.821 94.4862L200.052 94.3703L200.282 94.2451C200.437 94.1594 200.586 94.0597 200.736 93.967C200.808 93.9183 200.882 93.8626 200.954 93.8093L201.063 93.7282C201.1 93.7027 201.133 93.6702 201.17 93.6447L201.378 93.4709L201.578 93.2831L201.677 93.1904L201.77 93.0907L201.953 92.8867L202.127 92.6712C202.155 92.6364 202.185 92.6039 202.213 92.5645L202.289 92.4486L202.312 92.4185H202.204L202.169 92.4486Z" fill="#2F3729" stroke="#2F3729" stroke-width="0.96087"/>
<path d="M166.79 87.3892L166.509 87.5121L166.233 87.635L165.172 88.1171L164.652 88.3512L164.149 88.59C163.489 88.9029 162.853 89.195 162.262 89.4917L161.402 89.9183L160.99 90.1223L160.605 90.3262L159.168 91.0634L157.974 91.6985L157.466 91.9674L157.023 92.2085L156.333 92.5933L155.767 92.9062L156.344 92.6165L157.047 92.2641L157.496 92.037L158.016 91.7866L159.233 91.1955L160.667 90.5256L161.052 90.3378L161.467 90.1501L162.339 89.7653C162.939 89.4871 163.581 89.2182 164.261 88.9261L164.773 88.7036L165.299 88.4857L166.386 88.036L166.667 87.9201H166.713L166.952 87.8274L167.529 87.6002L168.116 87.3707C168.313 87.2942 168.5 87.2131 168.716 87.1389L169.439 86.87C170.023 86.6521 170.619 86.4296 171.233 86.2163L171.889 85.9868L172.225 85.8686L172.564 85.7573L173.936 85.2984C175.795 84.7026 177.78 84.1185 179.838 83.5876L181.41 83.2051L181.795 83.1078L182.179 83.0197L182.986 82.8435L183.802 82.665L184.643 82.4541C185.198 82.3498 185.749 82.2385 186.313 82.1435L186.945 82.0391L187.156 82.009L187.581 81.9441L188.007 81.8862L188.434 81.8328L188.872 81.7818C189.155 81.7517 189.444 81.7216 189.732 81.6984C190.021 81.6752 190.304 81.659 190.596 81.6404H192.972L193.1 81.6868H193.207L193.638 81.7285H193.853L194.067 81.7587L194.252 81.812L194.463 81.8514H194.556L194.889 81.9117L195.314 82.009L195.432 82.0693H195.536L195.74 82.1272C196.011 82.2084 196.283 82.3011 196.547 82.4008C196.811 82.5004 197.078 82.6163 197.317 82.7462L197.412 82.7925L197.527 82.8389L197.711 82.9548C197.833 83.0266 197.966 83.0916 198.095 83.1704C198.341 83.3164 198.58 83.4764 198.814 83.6433C198.93 83.7267 199.046 83.8125 199.157 83.9029C199.268 83.9956 199.375 84.0837 199.486 84.1764L199.632 84.3178L199.788 84.4638L199.936 84.6145L200.082 84.7675L200.156 84.8463L200.226 84.9251L200.362 85.0874C200.453 85.1987 200.541 85.3076 200.62 85.4212L200.682 85.507L200.722 85.5302L200.752 85.5719L200.868 85.7457C200.905 85.8014 200.94 85.864 200.974 85.9219L201.028 86.01L201.079 86.1027L201.171 86.2974L201.26 86.4829C201.29 86.5432 201.313 86.6104 201.341 86.6706L201.378 86.768L201.396 86.812V86.8584L201.466 87.0508C201.489 87.1157 201.505 87.1829 201.524 87.2478L201.554 87.3522L201.593 87.4518L201.64 87.6466C201.658 87.781 201.688 87.9131 201.7 88.0314V88.131C201.702 88.1658 201.702 88.1983 201.7 88.2307V88.7152H201.751L201.816 88.692L201.904 88.6619H201.939L202.071 88.6086L202.166 88.5668C202.326 88.4926 202.477 88.4069 202.62 88.3049L202.69 88.2539L202.727 88.2191L202.843 88.1287L202.994 87.9827L203.031 87.9363L203.084 87.8784L203.13 87.825L203.184 87.7555C203.16 87.6118 203.13 87.4704 203.105 87.329C203.077 87.1853 203.061 87.1551 203.038 87.0717C203.014 86.9859 203.014 86.9859 203.003 86.9442L202.966 86.8167C202.938 86.7332 202.915 86.6475 202.885 86.5663L202.792 86.3206L202.769 86.2603L202.743 86.1978L202.69 86.0795C202.655 85.9984 202.62 85.9173 202.581 85.8408L202.463 85.6113L202.335 85.3841L202.27 85.2729L202.201 85.1639C202.154 85.092 202.108 85.0179 202.062 84.9483L201.916 84.7374L201.879 84.6841L201.839 84.6331L201.763 84.5334C201.663 84.3966 201.552 84.2691 201.44 84.1486L201.271 83.9608L201.185 83.8681L201.097 83.78L200.921 83.5992L200.74 83.4277L200.555 83.2608L200.367 83.1008C200.237 82.9965 200.11 82.8899 199.982 82.7925C199.857 82.6975 199.718 82.5978 199.598 82.5051C199.326 82.3196 199.048 82.1435 198.765 81.9858C198.622 81.9001 198.476 81.8282 198.334 81.754L198.114 81.6474L198.003 81.5941L197.891 81.5431C197.597 81.4063 197.296 81.2858 196.99 81.1583C196.681 81.0331 196.373 80.9566 196.062 80.8708L195.828 80.8129L195.708 80.7874L195.594 80.7642L195.128 80.6715L194.66 80.595L194.426 80.5602L194.192 80.5324L193.955 80.5069L193.721 80.4837L193.253 80.449H192.787C192.634 80.449 192.476 80.449 192.323 80.449H190.942L190.49 80.4791C190.191 80.5069 189.887 80.5301 189.59 80.5625C189.294 80.5973 188.995 80.6367 188.702 80.6761L188.26 80.741L187.822 80.8106L187.388 80.8824L186.957 80.9636L186.741 81.0007L186.565 81.0331L186.139 81.1166C185.573 81.2278 185.012 81.36 184.458 81.4828L183.628 81.6659L182.81 81.8699L181.992 82.0693L181.607 82.1713L181.222 82.2779L179.646 82.7114C177.576 83.3071 175.608 83.9608 173.755 84.6331L172.344 85.1222L172.01 85.245L171.678 85.3748L171.025 85.6298C170.642 85.7759 170.257 85.9289 169.873 86.0795L168.776 86.5316L168.512 86.6405C168.313 86.7216 168.127 86.8097 167.921 86.8932L167.348 87.1435L166.79 87.3892Z" fill="#2F3729" stroke="#2F3729" stroke-width="0.96087"/>
<path d="M150.847 83.8631C149.948 83.3416 148.995 82.9568 147.987 82.7111C147.6 82.616 147.208 82.5488 146.812 82.5094C145.027 82.3402 143.532 82.8247 142.876 83.9628C141.761 85.9146 143.518 89.0209 146.779 90.9124C148.701 92.0158 150.713 92.4493 152.28 92.2499C152.6 92.2082 152.913 92.134 153.219 92.0274C153.882 91.8141 154.394 91.4108 154.756 90.8174C155.871 88.8725 154.121 85.7547 150.847 83.8631ZM154.457 90.6435C153.506 92.2893 151.065 92.2847 148.353 90.7154C145.242 88.9212 143.578 85.9587 144.642 84.1135C145.599 82.4538 147.992 82.4491 150.745 84.0393C153.856 85.8358 155.521 88.7983 154.457 90.6435Z" fill="#2F3729" stroke="#2F3729" stroke-width="0.96087"/>
<mask id="mask1_2233_9782" style="mask-type:luminance" maskUnits="userSpaceOnUse" x="23" y="77" width="132" height="22">
<path d="M154 97.8105H24V77.7964H154V97.8105Z" fill="white" stroke="white" stroke-width="0.96087"/>
</mask>
<g mask="url(#mask1_2233_9782)">
<path d="M57.6633 80.8734C65.9788 80.9105 74.2898 80.8502 82.6009 80.6926C90.6515 80.5396 98.753 80.0157 106.815 80.229C110.297 80.2939 113.755 80.6393 117.187 81.2628L117.82 81.388L118.136 81.4506L118.293 81.4807H118.443C118.835 81.5688 119.219 81.687 119.595 81.8354C119.974 81.9791 120.341 82.153 120.694 82.357C121.038 82.5609 121.367 82.7904 121.68 83.0454C121.996 83.3004 122.294 83.5786 122.574 83.8753C122.854 84.172 123.121 84.4826 123.375 84.8095C123.876 85.4655 124.342 86.147 124.772 86.8586C125.639 88.268 126.429 89.7168 127.334 91.0358C127.773 91.6895 128.254 92.3084 128.775 92.8926C129.278 93.4535 129.828 93.9589 130.426 94.4063C130.989 94.8258 131.576 95.1991 132.189 95.5282C132.765 95.8365 133.357 96.1008 133.968 96.321C135.058 96.7081 136.175 96.9631 137.32 97.0883C137.839 97.1509 138.333 97.1856 138.783 97.2042C139.234 97.225 139.69 97.2274 140.101 97.2042C140.92 97.2042 141.626 97.1509 142.197 97.1115C142.769 97.0744 143.215 97.035 143.515 97.0095L143.972 96.9654H143.515C143.215 96.9654 142.782 96.9932 142.197 97.0048C141.613 97.0164 140.92 97.0048 140.105 97.0048C139.699 97.0048 139.26 96.9631 138.799 96.9237C138.338 96.8866 137.85 96.824 137.333 96.7406C136.232 96.5853 135.16 96.3094 134.114 95.9084C133.535 95.6696 132.975 95.3891 132.434 95.0669C131.86 94.7238 131.313 94.3414 130.792 93.9148C130.247 93.4698 129.751 92.9714 129.298 92.4243C128.826 91.8471 128.391 91.2375 127.996 90.5977C127.586 89.944 127.202 89.2532 126.813 88.5369C126.427 87.823 126.039 87.0881 125.622 86.3464C125.198 85.5837 124.734 84.8489 124.231 84.1396C123.971 83.7802 123.693 83.4256 123.39 83.0871C123.086 82.7418 122.764 82.4195 122.419 82.1182C122.073 81.8122 121.707 81.534 121.323 81.286C120.928 81.0333 120.517 80.8131 120.089 80.6277C119.652 80.4353 119.204 80.2753 118.745 80.1502L118.661 80.127H118.582L118.421 80.0899L118.098 80.0134L117.454 79.8581C116.373 79.6031 115.276 79.3921 114.161 79.2252L115.346 79.2855L116.423 79.3527L116.968 79.3898L117.52 79.4292L118.639 79.5173L119.778 79.61L120.919 79.7097L121.506 79.7677L122.064 79.8117L122.351 79.8442L122.631 79.8789L122.914 79.9137H123.057L123.196 79.9323L123.759 80.0134L124.315 80.1061C125.048 80.2313 125.778 80.382 126.484 80.5628C127.169 80.7413 127.839 80.9592 128.502 81.2118L128.974 81.4089L129.091 81.4575L129.201 81.5085L129.415 81.6105L129.629 81.7241L129.735 81.7774L129.837 81.8354L130.042 81.9536L130.238 82.0811C130.755 82.4149 131.236 82.7974 131.684 83.2262C132.635 84.1372 133.474 85.1525 134.197 86.2699C134.601 86.8726 134.996 87.5077 135.387 88.173C135.78 88.8383 136.17 89.5221 136.574 90.2129L136.877 90.7368C136.925 90.8202 136.987 90.9176 137.042 91.0057L137.21 91.2769C137.239 91.3232 137.265 91.3696 137.294 91.4136L137.386 91.5435L137.57 91.8054L137.66 91.9352L137.755 92.0627L137.949 92.3154C138.468 92.9807 139.044 93.588 139.673 94.1374C140.284 94.6705 140.935 95.1457 141.626 95.5607C142.286 95.9547 142.968 96.2955 143.676 96.5829C144.338 96.8495 145.013 97.0744 145.702 97.2552C146.335 97.4174 146.975 97.5449 147.62 97.64L148.074 97.7002L148.513 97.742L148.944 97.7767L149.142 97.793H150.862C151.583 97.7767 152.298 97.7211 153.013 97.6237C153.267 97.5936 153.457 97.5588 153.587 97.538L153.79 97.5078H153.587C153.457 97.5078 153.263 97.5078 153.011 97.5078C152.296 97.5241 151.583 97.5009 150.873 97.4383L150.528 97.4035H150.35L150.166 97.3804L149.8 97.3363L149.414 97.2784L149.215 97.2459L149.014 97.2088L148.602 97.1323L148.176 97.0442L147.959 96.9932L147.745 96.9399C147.134 96.7869 146.534 96.6038 145.94 96.3905C145.305 96.1564 144.687 95.8852 144.082 95.5746C143.446 95.25 142.835 94.8768 142.253 94.4573C141.657 94.0261 141.098 93.5486 140.58 93.0201C140.059 92.4869 139.587 91.9097 139.163 91.2862L139.011 91.052L138.933 90.9315L138.861 90.8086L138.717 90.5676L138.644 90.447C138.618 90.4099 138.6 90.3636 138.578 90.3242L138.446 90.0761C138.404 89.9904 138.36 89.9139 138.311 89.8211L138.04 89.288C137.309 87.86 136.605 86.4228 135.786 85.0946C135.385 84.4386 134.95 83.8104 134.48 83.2077L134.306 82.9875L134.125 82.7719L134.036 82.6653L133.946 82.5609L133.763 82.357L133.577 82.1576C133.513 82.0927 133.456 82.0278 133.39 81.9652C133.262 81.8377 133.138 81.7125 133.023 81.5804C132.483 81.0751 131.898 80.63 131.271 80.2475L131.022 80.1015L130.638 79.8928L130.505 79.8279L130.243 79.7005L129.971 79.5869L129.837 79.5289L129.702 79.4779L129.159 79.2786C128.418 79.0282 127.663 78.8219 126.899 78.6643C126.127 78.5066 125.339 78.3954 124.553 78.3096L123.96 78.2517L123.368 78.2099H116.459L115.362 78.2447C114.534 78.2447 113.707 78.2725 112.877 78.3073C110.196 78.3073 107.512 78.3861 104.826 78.3606C102.063 78.3282 99.3025 78.2957 96.5395 78.3282C88.7338 78.4209 80.906 78.6318 73.1202 79.005C64.9768 79.2809 56.8335 79.5173 48.688 79.7167C40.4983 79.9021 32.185 80.5095 23.9997 80.2174C35.2216 80.6068 46.4436 80.8247 57.6633 80.8734Z" fill="#2F3729" stroke="#2F3729" stroke-width="0.96087"/>
</g>
<path d="M80.0109 53.2754C80.0109 56.4785 78.5005 59.2975 75.4797 61.7324C74.8807 62.1491 74.0409 62.8197 72.9602 63.7441C72.4003 64.3171 71.8078 65.1113 71.1828 66.127C70.1542 64.6035 69.1255 63.0801 68.0969 61.5566C66.4432 59.3822 65.037 58.3145 63.8781 58.3535C63.5917 58.3665 63.2401 58.5814 62.8234 58.998C62.4198 59.4147 62.1203 59.8379 61.925 60.2676C61.7297 60.7233 61.7427 61.0228 61.9641 61.166C62.2245 60.9316 62.5305 60.8145 62.882 60.8145C63.2857 60.8145 63.6242 60.9642 63.8977 61.2637C64.1841 61.5501 64.3273 61.9017 64.3273 62.3184C64.3273 62.722 64.1841 63.0671 63.8977 63.3535C63.6242 63.653 63.2857 63.8027 62.882 63.8027C62.2701 63.8158 61.6646 63.5423 61.0656 62.9824C60.4667 62.4225 60.1607 61.9082 60.1477 61.4395C60.1346 61.166 60.3104 60.6647 60.675 59.9355C61.326 58.6465 62.1398 57.5462 63.1164 56.6348C64.3143 55.515 65.5122 54.9551 66.7102 54.9551C68.2206 54.9551 69.4966 55.5801 70.5383 56.8301C70.8247 57.1816 71.4172 57.9303 72.3156 59.0762C72.6281 59.4668 73.0904 59.9941 73.7023 60.6582C74.6919 59.7467 75.1672 58.2233 75.1281 56.0879C75.0891 54.4473 74.7245 53.2298 74.0344 52.4355C73.6047 51.9408 73.0969 51.6934 72.5109 51.6934C72.1073 51.6934 71.7102 51.8171 71.3195 52.0645C70.1216 52.8327 68.5005 53.2233 66.4562 53.2363C64.2427 53.2493 62.5435 52.3314 61.3586 50.4824C61.4367 50.3783 61.593 50.2155 61.8273 49.9941C61.2284 48.8874 60.9289 47.8522 60.9289 46.8887C60.9289 44.4277 62.4719 41.7194 65.5578 38.7637C66.0396 38.2949 67.3026 37.1816 69.3469 35.4238L70.0109 36.0098C69.8937 36.14 69.6919 36.4134 69.4055 36.8301C69.6268 36.6478 69.8286 36.5566 70.0109 36.5566C70.2193 36.5566 70.5643 36.8105 71.0461 37.3184C71.8404 38.1777 72.7844 38.9004 73.8781 39.4863C75.0109 40.1113 76.007 40.4238 76.8664 40.4238C77.6867 40.4238 78.0969 40.1243 78.0969 39.5254C78.0969 39.3952 78.0643 39.265 77.9992 39.1348C77.6086 39.1348 77.2701 39.0046 76.9836 38.7441C76.7102 38.4707 76.5734 38.1452 76.5734 37.7676C76.5734 37.39 76.7102 37.071 76.9836 36.8105C77.2701 36.5371 77.6086 36.4004 77.9992 36.4004C79.2753 36.4004 79.8937 37.2402 79.8547 38.9199C79.8156 40.1829 79.2362 41.2051 78.1164 41.9863C76.6971 42.9499 75.1151 43.4512 73.3703 43.4902C71.3911 43.5293 69.5422 43.0215 67.8234 41.9668C67.2375 41.6022 66.7102 41.2246 66.2414 40.834C66.0852 41.7194 66.007 42.7025 66.007 43.7832C66.007 45.8926 66.632 47.709 67.882 49.2324C68.1815 49.597 68.6047 49.9811 69.1516 50.3848C68.8391 50.8014 68.3247 51.0944 67.6086 51.2637C68.9497 51.3158 70.1151 50.847 71.1047 49.8574C71.2479 49.7142 71.4562 49.4993 71.7297 49.2129C72.8104 47.9889 74.0865 47.377 75.5578 47.377C77.0552 47.377 78.201 47.9759 78.9953 49.1738C79.6724 50.2285 80.0109 51.5957 80.0109 53.2754ZM91.407 50.7949C91.3419 50.9121 91.1922 51.0098 90.9578 51.0879C90.0333 51.4004 89.1154 51.7064 88.2039 52.0059C86.8758 52.5658 86.2964 53.1647 86.4656 53.8027C86.6349 53.5553 86.8693 53.5358 87.1687 53.7441C87.4943 53.9525 87.5464 54.2454 87.325 54.623C87.0646 55.0788 86.6674 55.1243 86.1336 54.7598C85.4565 54.304 85.118 53.6725 85.118 52.8652C85.118 51.0553 85.8797 49.8835 87.4031 49.3496C87.0776 48.5814 86.6219 47.6309 86.0359 46.498C85.9578 46.3548 85.8536 46.3418 85.7234 46.459C85.6323 46.5241 85.5542 46.6152 85.4891 46.7324C85.3589 46.9668 85.2612 47.2793 85.1961 47.6699C85.157 47.8522 85.1115 48.2168 85.0594 48.7637C85.0333 49.6751 85.0073 51.0358 84.9812 52.8457C84.9682 53.7572 84.9747 54.61 85.0008 55.4043C85.0008 55.7298 85.0268 56.2962 85.0789 57.1035C85.0919 57.2988 85.1505 57.4941 85.2547 57.6895C85.3719 57.8848 85.5216 58.0736 85.7039 58.2559C85.8992 58.4251 86.3354 58.6074 87.0125 58.8027C87.3771 58.9199 87.5984 58.9069 87.6766 58.7637C88.0021 58.1908 88.2755 57.5267 88.4969 56.7715C88.601 56.459 88.7247 55.9902 88.868 55.3652C88.9201 55.1178 88.9917 55.0332 89.0828 55.1113C89.1609 55.2025 89.2716 55.3457 89.4148 55.541C89.519 55.6712 89.6687 55.873 89.8641 56.1465C89.9943 56.3548 90.1245 56.5501 90.2547 56.7324C90.3849 56.9017 90.424 57.0254 90.3719 57.1035C90.2286 57.3118 89.9747 57.6569 89.6102 58.1387L88.8484 59.1934C88.7964 59.2715 88.575 59.5449 88.1844 60.0137C88.0411 60.196 87.8719 60.2936 87.6766 60.3066C87.5073 60.3066 87.2469 60.3066 86.8953 60.3066C86.3875 60.3066 85.7885 60.2936 85.0984 60.2676C84.812 60.2285 84.1674 59.7142 83.1648 58.7246C82.9305 58.4902 82.5854 58.1387 82.1297 57.6699C82.0646 57.5658 81.9214 57.3835 81.7 57.123C81.5568 56.9798 81.4852 56.765 81.4852 56.4785C81.4852 56.4134 81.4786 56.2832 81.4656 56.0879C81.4526 55.8926 81.4461 55.7428 81.4461 55.6387C81.4461 54.7012 81.4461 53.9915 81.4461 53.5098C81.4461 53.2103 81.4396 52.6569 81.4266 51.8496C81.4135 51.3158 81.407 50.9121 81.407 50.6387C81.4721 49.9225 81.5828 49.0632 81.7391 48.0605C81.7391 47.9564 81.8302 47.7806 82.0125 47.5332C82.3901 47.2337 82.9565 46.791 83.7117 46.2051C83.7378 46.179 84.2521 45.7819 85.2547 45.0137C85.4891 44.8314 85.6714 44.7402 85.8016 44.7402C86.062 44.7272 86.2443 44.7402 86.3484 44.7793C86.6609 44.8835 87.1557 45.0983 87.8328 45.4238C88.2755 45.6322 88.8615 45.9382 89.5906 46.3418C89.7339 46.4329 89.838 46.5566 89.9031 46.7129C90.3458 47.7806 90.8406 48.985 91.3875 50.3262C91.4656 50.5345 91.4721 50.6908 91.407 50.7949ZM106.104 64.7988L105.83 65.3652C105.765 65.4954 105.596 65.5085 105.323 65.4043L102.491 64.3691C102.126 64.2389 101.801 64.0436 101.514 63.7832C101.241 63.5228 101.078 63.1387 101.026 62.6309C100.974 62.2012 100.948 61.498 100.948 60.5215C100.948 60.0918 100.967 59.5124 101.006 58.7832C101.045 57.9629 101.065 57.3965 101.065 57.084C101.078 55.7559 101.084 54.9551 101.084 54.6816C101.058 52.8587 101.019 51.5306 100.967 50.6973C100.928 50.2155 100.876 49.5189 100.811 48.6074C100.798 48.2298 100.616 47.9889 100.264 47.8848C100.095 47.8327 99.7823 47.9108 99.3266 48.1191C98.8318 48.3535 98.4542 48.5618 98.1937 48.7441V51.4785C98.2328 53.9915 98.2654 55.6322 98.2914 56.4004C98.3435 58.002 98.2589 59.2064 98.0375 60.0137L97.6469 61.498C97.5297 61.8887 97.3409 62.097 97.0805 62.123C96.8461 62.1621 96.5792 62.0579 96.2797 61.8105L93.5648 59.623C93.4216 59.5059 93.3435 59.4212 93.3305 59.3691C93.3305 59.3171 93.4411 59.278 93.6625 59.252L94.1898 59.1738C94.5284 59.1087 94.6977 58.8939 94.6977 58.5293L94.7172 51.9668C94.7042 50.9772 94.6977 49.8249 94.6977 48.5098C94.6977 48.2363 94.6521 48.054 94.5609 47.9629C94.4568 47.8978 94.294 47.8978 94.0727 47.9629L92.8031 48.3926C92.5557 48.4707 92.432 48.4251 92.432 48.2559C92.432 48.0996 92.5232 47.9564 92.7055 47.8262L96.475 45.2871C96.9437 44.9616 97.2237 44.7988 97.3148 44.7988C97.4581 44.7988 97.6078 44.8444 97.7641 44.9355C97.8422 44.9876 97.8943 45.1178 97.9203 45.3262L98.0961 46.5176C98.5518 46.2702 99.3005 45.9316 100.342 45.502C100.616 45.3848 100.889 45.4043 101.162 45.5605C101.449 45.7038 101.807 45.9512 102.237 46.3027C102.901 46.8626 103.383 47.2988 103.682 47.6113C103.89 47.8197 104.027 48.1061 104.092 48.4707C104.209 49.1478 104.307 49.9095 104.385 50.7559C104.476 51.7454 104.528 52.5137 104.541 53.0605C104.567 53.6855 104.6 54.4733 104.639 55.4238C104.639 56.4004 104.613 57.4876 104.561 58.6855C104.509 59.6751 104.496 60.8275 104.522 62.1426C104.522 62.5072 104.554 63.0215 104.62 63.6855C104.633 63.7507 104.672 63.8809 104.737 64.0762C104.815 64.3236 104.997 64.4538 105.284 64.4668L106.006 64.4863C106.071 64.4863 106.117 64.4928 106.143 64.5059C106.208 64.5449 106.195 64.6426 106.104 64.7988ZM118.828 57.4551C118.828 57.5072 118.73 57.5983 118.535 57.7285L114.688 60.209C114.336 60.4303 114.049 60.528 113.828 60.502C113.789 60.4889 113.626 60.3913 113.34 60.209C113.236 60.1439 113.19 60.0202 113.203 59.8379L113.281 58.7832C112.669 59.0827 111.927 59.3952 111.055 59.7207C110.794 59.8249 110.521 59.7923 110.234 59.623C110.117 59.5579 109.72 59.2845 109.043 58.8027C108.418 58.347 107.936 57.9368 107.598 57.5723C107.376 57.3118 107.24 57.0189 107.188 56.6934C107.109 56.1595 107.044 55.3913 106.992 54.3887C106.927 53.1777 106.895 52.4095 106.895 52.084C106.895 51.485 106.908 50.7298 106.934 49.8184C106.947 49.1022 107.025 48.1712 107.168 47.0254C107.246 46.7129 107.376 46.4004 107.559 46.0879C107.702 45.8145 108.008 45.5475 108.477 45.2871C108.633 45.209 109.499 44.89 111.074 44.3301C111.413 44.2129 111.751 44.1348 112.09 44.0957C112.363 44.0566 112.689 44.1868 113.066 44.4863C113.262 44.6426 113.444 44.7923 113.613 44.9355C113.626 43.2559 113.633 42.377 113.633 42.2988C113.607 41.6087 113.561 40.6387 113.496 39.3887C113.483 39.1543 113.359 39.0371 113.125 39.0371H111.641C111.523 39.0371 111.465 38.959 111.465 38.8027C111.465 38.6725 111.549 38.5618 111.719 38.4707C112.174 38.1973 112.728 37.8066 113.379 37.2988C114.069 36.7389 114.635 36.2311 115.078 35.7754C115.378 35.4759 115.879 34.9095 116.582 34.0762C116.647 33.972 116.758 33.8223 116.914 33.627C117.083 33.4316 117.168 33.5098 117.168 33.8613C117.168 34.7858 117.161 36.179 117.148 38.041C117.148 38.3535 117.116 40.0853 117.051 43.2363C117.025 44.7858 116.96 47.1751 116.855 50.4043C116.79 52.2793 116.699 54.3952 116.582 56.752C116.556 57.1035 116.751 57.2858 117.168 57.2988L118.457 57.3379C118.704 57.3509 118.828 57.39 118.828 57.4551ZM113.262 48.9785C113.262 48.054 113.249 47.2988 113.223 46.7129C113.21 46.5697 113.145 46.4199 113.027 46.2637C112.91 46.0944 112.747 45.9056 112.539 45.6973C112.331 45.4889 112.116 45.4238 111.895 45.502C111.595 45.6191 111.289 45.8275 110.977 46.127C110.807 46.2702 110.703 46.446 110.664 46.6543C110.612 46.9538 110.566 47.4616 110.527 48.1777C110.488 48.7507 110.449 49.5514 110.41 50.5801C110.371 52.416 110.365 53.7441 110.391 54.5645C110.404 55.0332 110.43 55.7103 110.469 56.5957C110.469 56.9733 110.645 57.2142 110.996 57.3184C111.165 57.3835 111.439 57.3639 111.816 57.2598C112.207 57.1426 112.63 56.9928 113.086 56.8105L113.184 53.9004C113.236 51.3613 113.262 49.7207 113.262 48.9785ZM140.136 66.5371C139.902 66.472 139.57 66.3939 139.14 66.3027C138.788 66.2376 138.261 66.166 137.558 66.0879C137.167 66.0488 136.054 66.0033 134.218 65.9512C133.879 65.9512 133.391 65.9447 132.753 65.9316C132.675 65.9316 132.629 65.8535 132.616 65.6973C132.603 65.5931 132.675 65.502 132.831 65.4238C132.909 65.3978 133.027 65.3587 133.183 65.3066C133.586 65.1113 133.892 64.903 134.101 64.6816C134.309 64.4603 134.433 64.1999 134.472 63.9004C134.55 63.2493 134.596 62.416 134.609 61.4004C134.622 60.5671 134.628 59.8509 134.628 59.252C134.628 56.6999 134.635 55.1569 134.648 54.623C134.661 54.2194 134.641 52.9238 134.589 50.7363L134.452 45.248C134.452 45.1569 134.446 44.8704 134.433 44.3887C134.42 43.946 134.413 43.6595 134.413 43.5293C134.413 42.7611 134.238 42.3835 133.886 42.3965C133.482 42.4095 133.124 42.6243 132.812 43.041C132.577 43.3405 132.434 43.7507 132.382 44.2715C132.356 44.5189 132.402 44.7598 132.519 44.9941C132.714 45.3587 132.942 45.8079 133.202 46.3418C133.333 46.6152 133.267 46.7259 133.007 46.6738C131.783 46.4525 130.859 46.2637 130.234 46.1074C130.012 46.0553 129.889 46.0033 129.863 45.9512C129.836 45.8861 129.843 45.6842 129.882 45.3457C130.038 44.1217 130.305 43.1777 130.683 42.5137C131.191 41.6022 131.803 40.821 132.519 40.1699C132.857 39.8704 133.652 39.3431 134.902 38.5879C135.188 38.4186 135.468 38.4251 135.741 38.6074C136.288 38.972 136.809 39.278 137.304 39.5254C138.15 39.9421 138.899 40.1829 139.55 40.248C139.693 40.2611 139.797 40.3197 139.863 40.4238C139.928 40.541 139.895 40.6452 139.765 40.7363C139.648 40.8145 139.472 40.9447 139.238 41.127C139.094 41.2832 139.01 41.5111 138.984 41.8105C138.892 42.8913 138.847 43.4642 138.847 43.5293L138.945 50.7754C138.971 53.2233 138.984 56.3548 138.984 60.1699C138.984 62.2663 138.99 63.6921 139.003 64.4473C139.016 64.9941 139.114 65.3587 139.296 65.541C139.426 65.6582 139.693 65.7949 140.097 65.9512C140.201 65.9902 140.279 66.0618 140.331 66.166C140.383 66.2832 140.39 66.3809 140.351 66.459C140.325 66.5371 140.253 66.5632 140.136 66.5371ZM149.266 44.8574C148.602 44.8835 147.932 44.8965 147.255 44.8965C147.255 45.1569 147.248 45.7884 147.235 46.791C147.222 48.3145 147.183 50.1113 147.118 52.1816C147.066 53.5618 146.923 56.0749 146.688 59.7207C146.649 60.4499 146.63 60.8796 146.63 61.0098C146.63 61.5566 146.779 61.9408 147.079 62.1621L148.134 62.9043C148.342 63.0475 148.394 63.1908 148.29 63.334L148.114 63.5879C148.023 63.7051 147.86 63.6986 147.626 63.5684L144.598 61.8105C144.143 61.5501 143.837 61.3418 143.68 61.1855C143.485 60.9772 143.368 60.7428 143.329 60.4824C143.29 60.3132 143.277 60.1439 143.29 59.9746C143.29 59.8965 143.309 59.1934 143.348 57.8652C143.361 57.1491 143.472 55.1504 143.68 51.8691C143.707 51.4655 143.733 50.8079 143.759 49.8965C143.785 49.0371 143.785 48.1973 143.759 47.377C143.733 46.8301 143.693 46.0098 143.641 44.916C143.641 44.7467 143.524 44.6621 143.29 44.6621H141.005C140.887 44.6621 140.829 44.5775 140.829 44.4082C140.829 44.265 140.881 44.1608 140.985 44.0957C141.272 43.9395 141.721 43.6725 142.333 43.2949C142.984 42.8522 143.726 42.2402 144.559 41.459C145.406 40.6647 146.083 39.9355 146.591 39.2715C146.669 39.1543 146.779 38.998 146.923 38.8027C147.105 38.6074 147.196 38.6855 147.196 39.0371C147.196 39.1152 147.203 39.2129 147.216 39.3301C147.229 39.4473 147.235 39.5254 147.235 39.5645L147.255 43.2363C147.697 43.2363 148.329 43.2493 149.149 43.2754C149.175 43.627 149.214 44.1543 149.266 44.8574Z" fill="#2F3729"/>
</svg>
