<svg width="253" height="98" viewBox="0 0 253 98" fill="none" xmlns="http://www.w3.org/2000/svg">
<path d="M18.8084 19.2518C19.0611 19.8962 19.177 20.5661 19.1561 21.2592C19.1353 21.9523 18.9776 22.613 18.6855 23.2412C20.7208 23.3385 22.6309 23.8763 24.4159 24.8592C23.433 23.0743 22.8952 21.1642 22.7978 19.1289C22.1696 19.421 21.509 19.5786 20.8159 19.5995C20.1228 19.6203 19.4552 19.5044 18.8084 19.2518Z" fill="black" stroke="black" stroke-width="0.96087"/>
<path d="M0.962249 55.8698V56.0901L0.999339 56.5282L1.05034 56.9709C1.05034 57.0428 1.05034 57.117 1.07815 57.1888L1.10829 57.409C1.18015 57.9955 1.2891 58.5889 1.40732 59.1754L1.53482 59.6344C1.56959 59.7804 1.60436 59.9265 1.64145 60.0748L1.69708 60.295L1.75272 60.5129L1.87326 60.9557C1.96135 61.2478 2.0448 61.5398 2.14679 61.8319L2.21865 62.0521C2.24184 62.124 2.26502 62.1982 2.29283 62.27L2.4296 62.7081C2.64982 63.2853 2.87931 63.8625 3.14589 64.4235L3.24093 64.6345L3.34525 64.8454L3.55156 65.265C3.6976 65.5455 3.84827 65.8259 4.01286 66.0995C4.33739 66.6512 4.69438 67.182 5.0815 67.6897C5.17886 67.8172 5.28317 67.9423 5.38285 68.0745L5.53584 68.2576L5.69347 68.443L5.85574 68.6239L5.93455 68.7166L6.02032 68.8047L6.18491 68.9808L6.35876 69.1547C6.58594 69.3842 6.82702 69.6067 7.07737 69.8223C7.32773 70.0379 7.58504 70.2465 7.84466 70.4366C7.97911 70.5386 8.1182 70.629 8.25728 70.7217C8.32682 70.7681 8.39869 70.8098 8.46823 70.8562L8.68381 70.9883L8.90171 71.1111L9.01298 71.1714L9.12657 71.2294L9.35142 71.3453L9.58323 71.4519C10.2114 71.7393 10.8675 71.9433 11.5467 72.0639H12.0705C12.2421 72.0639 12.4159 72.0986 12.5921 72.0986H13.6608C14.0247 72.0476 14.3794 71.9642 14.7248 71.8437C14.8963 71.7857 15.0655 71.7185 15.2324 71.6443C15.3182 71.6095 15.3947 71.5678 15.4758 71.5261L15.7123 71.4032L16.06 71.1946L16.1712 71.1181L16.3938 70.9605L16.6047 70.7866L16.7137 70.7032L16.8134 70.6104L17.0127 70.4227L17.1982 70.2233L17.2886 70.1236L17.3743 70.0193L17.5436 69.8084L17.7012 69.5882L17.7777 69.4769L17.8495 69.361C17.8959 69.2845 17.9469 69.208 17.9886 69.1315C18.0744 68.9739 18.1625 68.8186 18.2343 68.6586C18.2738 68.5775 18.3108 68.501 18.3456 68.4199L18.4453 68.1788C18.4801 68.0977 18.5079 68.0165 18.538 67.9354C18.5682 67.8543 18.6006 67.7708 18.6238 67.6897C18.6725 67.5251 18.7258 67.3582 18.7698 67.1936C18.8602 66.8621 18.9228 66.5283 18.9808 66.1992C19.0828 65.5408 19.1384 64.8802 19.1454 64.2149C19.1523 63.5658 19.1268 62.9168 19.0642 62.27C19.0063 61.6279 18.9182 60.9951 18.8115 60.3715L18.7304 59.9056L18.6377 59.4443L18.5913 59.2148L18.5427 58.983L18.4453 58.5148L18.334 58.0627L18.2807 57.8356L18.2204 57.6084L18.0999 57.1587L17.9724 56.7136L17.9075 56.4888L17.838 56.2662L17.7035 55.8258L17.5621 55.3877L17.4926 55.1675L17.4207 54.9519L17.27 54.5184L17.0405 53.8717L16.7971 53.2388C16.5792 52.6779 16.3521 52.1192 16.1179 51.5698C15.8815 51.0205 15.6358 50.4827 15.39 49.9518L14.6575 48.3918L13.2157 45.3481C12.766 44.4 12.3278 43.4682 11.9013 42.5572L11.2824 43.9874L11.1479 44.2865L10.7631 45.0908L10.9022 45.3783L11.1734 45.9439L11.3195 46.2475L12.7961 49.2564L13.5425 50.7933C13.7882 51.3079 14.0293 51.8225 14.2611 52.3302C14.4906 52.8378 14.7178 53.3872 14.9334 53.9227L15.0956 54.326L15.2533 54.734L15.4063 55.1397L15.557 55.5523L15.6288 55.7586L15.6984 55.9672L15.8398 56.3821L15.9742 56.8017L16.0437 57.008L16.1087 57.219L16.2362 57.6432L16.3544 58.0651L16.417 58.276L16.4749 58.4916L16.5862 58.9181L16.6905 59.3493L16.7392 59.5648L16.7855 59.7804L16.8783 60.2139L16.9617 60.6474C17.0776 61.2292 17.1657 61.8018 17.2283 62.3975C17.2932 62.9794 17.328 63.5635 17.3326 64.15C17.3372 64.7272 17.3002 65.2997 17.2237 65.8723C17.1819 66.1528 17.1356 66.4333 17.066 66.7022C17.066 66.7856 17.0243 66.8714 17.0011 66.9548L16.9594 67.1055C16.9594 67.1704 16.9154 67.2353 16.8945 67.3002C16.8713 67.3675 16.8504 67.4324 16.8249 67.4926L16.7508 67.685C16.7276 67.7476 16.6975 67.8079 16.6696 67.8705C16.6163 67.998 16.5514 68.1116 16.4935 68.2321C16.4633 68.2901 16.4286 68.3457 16.3938 68.4036L16.3428 68.4894L16.2895 68.5705L16.1782 68.7351L16.06 68.8881L15.9974 68.9646L15.9325 69.0388L15.8027 69.1848L15.6636 69.3239L15.594 69.3911L15.3715 69.6276L15.2139 69.7412L15.1374 69.7991L15.0516 69.8524L14.887 69.9614L14.6668 70.0773L14.537 70.1445L14.3608 70.2256L14.18 70.2998C13.9366 70.3902 13.6863 70.4551 13.4313 70.4945H11.804L11.6 70.4598L11.2963 70.3949L10.9926 70.3184L10.7933 70.2581L10.6936 70.2256C10.5615 70.1816 10.4317 70.1329 10.3088 70.0796L10.2138 70.0379L10.0167 69.9544L9.82431 69.8617L9.72927 69.8153L9.63191 69.7643L9.44414 69.6647L9.39778 69.6392L9.26101 69.558L9.12193 69.4769L9.07557 69.4468L8.94112 69.361L8.89476 69.3309L8.76031 69.2428L8.71858 69.2126C8.59804 69.1315 8.48445 69.0457 8.36855 68.9577L8.28278 68.8928L8.02547 68.6934L7.6963 68.4083L7.4529 68.1881L7.37177 68.1116L6.98929 67.7291L6.76675 67.4857L6.62071 67.3211L6.47467 67.1542L6.40513 67.0708C6.33558 66.9873 6.2614 66.9062 6.1965 66.8181L6.06669 66.6558L5.93224 66.482L5.80011 66.3058L5.67493 66.1296C5.50571 65.8909 5.34344 65.6475 5.19045 65.3994C5.03282 65.1537 4.8891 64.8987 4.74769 64.6298L4.54138 64.245L4.49038 64.15L4.43939 64.0526L4.34434 63.8533C4.08008 63.3271 3.84364 62.7893 3.6211 62.2515C3.10648 60.9742 2.71009 59.6599 2.43424 58.3108C2.40642 58.1694 2.3786 58.0303 2.34847 57.8935C2.32065 57.7544 2.29515 57.6154 2.27197 57.474L2.2372 57.263C2.14911 56.702 2.07725 56.1387 2.02162 55.5778C1.98685 55.1999 1.95903 54.8151 1.93817 54.4257H1.91962C1.91962 54.2101 1.91035 53.9945 1.8918 53.779C1.8918 53.619 1.8918 53.4591 1.8918 53.2991C1.8918 52.5851 1.91035 51.8781 1.94512 51.1781C1.94512 51.0367 1.95439 50.8976 1.97294 50.7585V50.6866C1.97294 50.5406 1.98453 50.3946 2.00771 50.2509C2.04248 49.8336 2.08652 49.421 2.1352 49.0107C2.26502 47.956 2.43887 46.9314 2.63823 45.9346C2.83758 44.9402 3.07171 43.9643 3.3267 43.0231C3.70919 41.5535 4.1589 40.158 4.61324 38.8436L4.83346 38.2224L4.99805 37.7611C5.20436 37.1885 5.41298 36.6345 5.61929 36.0967L5.37821 35.5195C5.09309 36.1802 4.80796 36.871 4.52052 37.5872C3.87609 39.2006 3.2363 40.9531 2.66836 42.8423C2.38324 43.7858 2.11434 44.764 1.88021 45.7747C1.64609 46.7853 1.43746 47.8262 1.26824 48.9017C1.19174 49.4395 1.11524 49.982 1.05729 50.536C1.02716 50.8118 1.00398 51.09 0.980794 51.3658C0.980794 51.5049 0.962249 51.6463 0.950659 51.7854C0.939068 51.9245 0.932114 52.0659 0.922842 52.2073L0.904297 52.6315C0.904297 52.7729 0.904297 52.9143 0.904297 53.058C0.904297 53.3408 0.904297 53.6306 0.904297 53.9134C0.904297 54.4906 0.904297 55.0678 0.962249 55.6519V55.8698Z" fill="black" stroke="black" stroke-width="0.96087"/>
<path d="M9.47326 26.9435C9.08846 27.6691 8.65729 28.5569 8.14268 29.6001L7.86914 30.1564L7.97345 30.4531L8.31885 29.6835C8.79638 28.6265 9.21131 27.7224 9.55439 26.9922L9.99251 26.0024L10.3217 25.2838C10.4955 24.899 10.5952 24.7112 10.5999 24.6997C10.6022 24.6881 10.4886 24.906 10.2985 25.2745L9.47326 26.9435Z" fill="black" stroke="black" stroke-width="0.96087"/>
<path d="M11.185 41.5345L11.2939 41.2679L11.7437 40.1738C11.892 39.789 12.0473 39.4042 12.1934 39.0194L12.446 38.368L12.5782 38.0365C12.6199 37.9253 12.657 37.814 12.701 37.7027L13.204 36.3374C13.8601 34.4853 14.5138 32.5172 15.1257 30.4425C15.2718 29.9233 15.4132 29.3971 15.5592 28.8663L15.6682 28.4815C15.703 28.347 15.7331 28.2126 15.7679 28.0967L15.9672 27.2853L16.1712 26.4671L16.3543 25.6372C16.4772 25.0809 16.6093 24.5222 16.7206 23.9589L16.7925 23.5046L16.8365 23.289L16.8736 23.0734L16.9547 22.6422L17.0289 22.2088C17.0544 22.0627 17.0729 21.9167 17.0961 21.7707C17.1193 21.6246 17.1425 21.4786 17.1633 21.3279C17.2004 21.0335 17.2422 20.7368 17.2746 20.4401C17.3048 20.1457 17.3326 19.842 17.3581 19.5407C17.3581 19.3923 17.3766 19.237 17.3882 19.0886V18.9102H17.2932C17.1425 18.9102 17.0057 18.9102 16.8713 18.9102H16.2199V19.0771C16.2199 19.2231 16.2199 19.3645 16.2199 19.5059C16.2199 19.7957 16.1898 20.0831 16.1619 20.3729C16.1364 20.6603 16.1086 20.9454 16.0831 21.2329C16.0831 21.3743 16.0483 21.518 16.0321 21.6594C16.0159 21.8008 15.9973 21.9445 15.9788 22.0859L15.9209 22.5124L15.8559 22.9343L15.8258 23.1476L15.7215 23.7804C15.6241 24.3414 15.5129 24.8954 15.4109 25.4494L15.2532 26.2723L15.0747 27.086L14.8986 27.8927C14.8684 28.0271 14.8406 28.1616 14.8105 28.2775L14.7131 28.6623C14.588 29.1931 14.4605 29.7147 14.3306 30.2339C13.7581 32.3016 13.1739 34.265 12.5782 36.1334L12.1192 37.5057C12.0821 37.617 12.0473 37.7329 12.0079 37.8441L11.8897 38.1756L11.6579 38.8316C11.4469 39.4482 11.2244 40.0463 11.0042 40.6281L10.7353 41.3491C10.6634 41.553 10.5823 41.7339 10.5058 41.9494L10.274 42.5382L10.0491 43.1131L9.9564 43.3519V43.3982L9.8405 43.6787L9.39079 44.7659L9.17057 45.2921L8.92485 45.7974C8.63277 46.4697 8.36156 47.1118 8.08802 47.7191L7.70322 48.5907C7.63831 48.7321 7.57572 48.8712 7.51545 49.0056L7.32769 49.3904C7.07965 49.912 6.8548 50.4057 6.63922 50.8508L6.04578 52.0701L5.79311 52.587L5.56594 53.0367L5.21359 53.7461L4.92383 54.321L5.23677 53.7554L5.61926 53.0646L5.86266 52.6218L6.13155 52.1142L6.76671 50.9204C6.9962 50.4822 7.23728 49.9978 7.50386 49.4832L7.70322 49.0984C7.77276 48.9639 7.83767 48.8248 7.90721 48.6857L8.33374 47.8257C8.63046 47.2369 8.92254 46.6041 9.2378 45.9388L9.47424 45.4358L9.71069 44.9166L10.1905 43.8549L10.3134 43.579L10.4362 43.2985L10.682 42.7213L10.9323 42.1418C11.0158 41.9309 11.1039 41.7339 11.185 41.5345Z" fill="black" stroke="black" stroke-width="0.96087"/>
<path d="M2.52413 20.7835C2.6864 22.0167 2.90894 23.2291 3.13611 24.4205C3.36097 25.6097 3.65305 26.7827 3.96599 27.9324C4.04248 28.2199 4.1213 28.505 4.20475 28.7901C4.28357 29.0729 4.36934 29.3627 4.45742 29.6385L4.71937 30.4777L4.84918 30.8926L4.99522 31.3029L5.27339 32.1212C5.31743 32.2556 5.3638 32.3947 5.41479 32.5245L5.56083 32.9093C5.65588 33.1782 5.75324 33.4448 5.84828 33.709L6.01054 34.1356L6.14499 34.4972L6.19831 34.6386C6.58775 35.6632 6.98646 36.6553 7.39444 37.615C7.80243 38.5723 8.21041 39.5135 8.62303 40.4361C8.85948 40.9484 9.10288 41.4792 9.35091 42.0263L9.59199 41.4073C9.64995 41.2567 9.7079 41.1153 9.75658 40.9762L9.99998 40.3318L10.3755 39.2631C10.1507 38.7508 9.92348 38.2385 9.69631 37.7262L9.5804 37.4574L9.27442 36.7341L9.1191 36.3679L9.00552 36.092L8.89657 35.8301L8.77834 35.538C8.5419 34.9585 8.30545 34.3697 8.07133 33.767L7.76998 32.9974L7.64712 32.6636L7.48717 32.2208L7.34808 31.8384L7.22522 31.4999L7.20668 31.442L6.91692 30.6469L6.78015 30.2621L6.64802 29.8773L6.38607 29.0659C6.29799 28.7971 6.21685 28.5282 6.13804 28.2523C6.05691 27.9741 5.97577 27.7006 5.89928 27.4248C5.58865 26.319 5.30353 25.1878 5.05317 24.0381C4.80282 22.8906 4.58028 21.7339 4.41106 20.5494C4.23489 19.3695 4.11898 18.1849 4.06567 16.9935C4.04248 16.3977 4.03785 15.8066 4.06567 15.2132C4.08653 14.6174 4.13984 14.024 4.22793 13.4352C4.31138 12.865 4.43888 12.3063 4.61042 11.7593C4.63128 11.6897 4.65678 11.6248 4.67996 11.5599L4.7495 11.3629L4.826 11.1705L4.86541 11.0754L4.90713 10.9827L4.99522 10.7973C5.02536 10.737 5.06013 10.679 5.09258 10.6164C5.15285 10.4936 5.22703 10.3823 5.29425 10.2687V10.2479L5.39625 10.1018L5.44957 10.0207C5.44957 9.99521 5.48666 9.97203 5.50984 9.94421L5.6327 9.79122L5.76483 9.64518L5.82973 9.571L5.89928 9.50609L6.03604 9.37165L6.18672 9.24879L6.2609 9.18852L6.33739 9.13289C6.54602 8.98221 6.76624 8.85472 7.00269 8.7504C7.12091 8.70404 7.23913 8.64609 7.36663 8.60668L7.55439 8.54641L7.74679 8.49542L7.84415 8.46992H7.94383L8.14319 8.43051H8.34718L8.55117 8.40269H9.77744C9.91189 8.40269 10.0417 8.4421 10.1622 8.46528L10.357 8.51164L10.4566 8.53482L10.554 8.56032L10.7487 8.61827L10.9411 8.68782H10.9875L11.0338 8.70636L11.1289 8.74577C11.1915 8.77359 11.2564 8.79445 11.319 8.8269L11.5299 8.89876L11.7107 8.99612L11.8035 9.0448L11.8915 9.09811L12.0677 9.20706L12.2416 9.32297L12.2833 9.34847L12.325 9.38092L12.4108 9.44119C12.5244 9.52232 12.6333 9.61041 12.7446 9.69849L12.9045 9.83758L12.9857 9.90712L13.0622 9.97898L13.2175 10.125L13.3658 10.2757L13.5119 10.4287L13.6556 10.5863C13.7483 10.6953 13.8434 10.8019 13.9268 10.9178C14.0126 11.0314 14.1053 11.145 14.1888 11.2586C14.3557 11.4927 14.5156 11.7314 14.6617 11.9772C14.7382 12.1 14.8054 12.2275 14.8772 12.362L14.9769 12.5544L15.0279 12.6517L15.0743 12.7468C15.1995 13.0041 15.3107 13.2683 15.4197 13.5164C15.5263 13.7621 15.6121 14.0541 15.6932 14.323L15.7488 14.527C15.7488 14.5618 15.7697 14.5943 15.7767 14.629L15.7998 14.7333L15.8949 15.1575C15.9181 15.2595 15.9389 15.3685 15.9575 15.4728H16.085L16.6135 15.5261H17.2649L17.2324 15.3221C17.2092 15.1645 17.1884 15.0115 17.1559 14.8539L17.0632 14.3879L17.0423 14.272L17.0145 14.1538L16.9566 13.9197C16.8731 13.6068 16.7758 13.2961 16.6691 12.9878C16.5602 12.6818 16.4373 12.3805 16.2843 12.0884L16.2333 11.9772L16.18 11.8659L16.0734 11.648C15.9969 11.5043 15.9227 11.3582 15.8416 11.2168C15.6839 10.9317 15.5078 10.6559 15.3223 10.3823C15.2273 10.2479 15.1346 10.1134 15.0349 9.99752C14.9352 9.88394 14.8309 9.7379 14.7266 9.61504L14.562 9.42496C14.5087 9.36469 14.4553 9.29979 14.3974 9.24183L14.2235 9.06103L14.0474 8.88485L13.9593 8.79445L13.8666 8.711L13.6788 8.54178C13.5467 8.43515 13.4215 8.32388 13.294 8.21957L13.1943 8.14307L13.1433 8.10366L13.09 8.06426L12.879 7.91822L12.682 7.81622L12.5592 7.74668L12.4479 7.68178L12.2207 7.55428L11.9912 7.43838C11.9147 7.40129 11.8336 7.36652 11.7525 7.32711L11.6342 7.2738L11.5299 7.22743L11.2842 7.13471L11.0338 7.05358L10.9064 7.01649L10.7603 6.97708L10.503 6.91218C10.3616 6.88436 10.2179 6.85423 10.0765 6.83104H9.71949L9.45523 6.8125H8.42368L8.16173 6.83568H7.90211L7.64016 6.87741L7.51035 6.90059L7.37822 6.93072L7.11627 6.99331L6.85897 7.06981C6.68743 7.1208 6.51821 7.19266 6.34899 7.25757C6.01982 7.39202 5.70687 7.55428 5.41016 7.74668L5.38002 7.76986L5.26412 7.84636L5.15749 7.92981L4.9419 8.10366L4.73791 8.28911L4.63823 8.37951L4.54551 8.48151L4.35774 8.68086L4.18389 8.88717C4.15839 8.92194 4.12594 8.95671 4.10044 8.99148L4.0193 9.09811C3.96599 9.17229 3.91267 9.24415 3.86167 9.31833C3.76663 9.46901 3.66464 9.61736 3.58582 9.77267C3.54178 9.84917 3.49773 9.92566 3.45833 10.0022L3.34242 10.2363L3.28447 10.3568L3.23579 10.475L3.13147 10.7138L3.03875 10.9549C3.00862 11.036 2.97848 11.1172 2.95066 11.1983C2.7374 11.8334 2.57513 12.4848 2.46618 13.1455C2.35955 13.7899 2.29001 14.4389 2.25524 15.0903C2.22046 15.7371 2.21351 16.3792 2.22742 17.012C2.25987 18.2753 2.35955 19.5317 2.52413 20.7835Z" fill="black" stroke="black" stroke-width="0.96087"/>
<path d="M7.01665 55.3199C6.42322 55.6839 6.01987 56.1962 5.8066 56.8591C5.69765 57.1628 5.62347 57.4758 5.58407 57.7956C5.37312 59.365 5.81819 61.3817 6.92161 63.2964C8.80853 66.5672 11.9171 68.3197 13.8712 67.1977C15.0233 66.5394 15.4916 65.0442 15.3224 63.2617C15.283 62.8653 15.2181 62.4735 15.123 62.0841C14.8773 61.0757 14.4925 60.123 13.9709 59.2259C12.0747 55.9481 8.95921 54.198 7.01665 55.3199ZM13.7901 59.3209C15.3803 62.0771 15.378 64.467 13.7159 65.4244C11.8707 66.4907 8.90821 64.8263 7.11401 61.7155C5.54466 59.0034 5.54234 56.5624 7.18587 55.612C9.03107 54.548 11.9936 56.2124 13.7901 59.3209Z" fill="black" stroke="black" stroke-width="0.96087"/>
<path d="M71.6633 12.5145C71.6633 12.4728 71.6633 12.4265 71.6633 12.3847V11.993C71.5196 11.3161 71.2924 10.6694 70.9818 10.0527L70.8752 9.82094L70.7593 9.59377L70.7013 9.48251L70.6411 9.37124L70.5182 9.15334C70.4765 9.07916 70.4301 9.00962 70.3861 8.93776C70.3443 8.86358 70.298 8.79404 70.2516 8.72682C70.1612 8.58773 70.0685 8.44865 69.9688 8.3142C69.7764 8.0453 69.584 7.788 69.3522 7.54692C69.1227 7.30352 68.9141 7.05781 68.6846 6.82832L68.5107 6.65446L68.3346 6.48988L68.2465 6.40411L68.1584 6.32298L67.9776 6.16303L67.7921 6.0054L67.609 5.85009C67.4815 5.75042 67.3586 5.64842 67.2242 5.55106C66.7142 5.16163 66.1857 4.80696 65.6317 4.48243C65.3604 4.32017 65.08 4.16718 64.7995 4.02114L64.3799 3.81483L64.1829 3.69197L63.9719 3.59461C63.4109 3.33035 62.8198 3.09855 62.2588 2.88065L61.823 2.72302L61.6051 2.64884L61.3849 2.57698C61.0975 2.47731 60.8008 2.39617 60.5087 2.30345L60.0682 2.18523L59.848 2.12728L59.6278 2.07396L59.1874 1.98124L58.7446 1.88388C58.1558 1.76566 57.5647 1.66135 56.9759 1.58485L56.758 1.55471L56.5378 1.5269L56.0974 1.47822L55.6592 1.43881H55.2211C54.637 1.39709 54.0667 1.3855 53.4825 1.38086C53.1951 1.38086 52.91 1.38086 52.6272 1.38086H52.1983L51.7764 1.3994L51.3545 1.42722L50.935 1.45736C50.6591 1.48054 50.3786 1.50372 50.1051 1.53385C49.5557 1.58949 49.0086 1.66598 48.4708 1.74711C47.3999 1.9117 46.3544 2.12959 45.3414 2.35677C44.3307 2.58394 43.3363 2.83661 42.3951 3.13332C40.5082 3.70356 38.7557 4.34335 37.14 4.98545C36.4237 5.26826 35.7329 5.54643 35.0723 5.82459L35.6495 6.04249C36.1873 5.83619 36.7413 5.62756 37.3139 5.42125L37.7752 5.25435L38.3964 5.055C39.7108 4.60297 41.0877 4.16486 42.5759 3.76847C43.5171 3.51812 44.4976 3.28399 45.4874 3.08C46.4796 2.87601 47.5181 2.6952 48.5636 2.57698C48.9739 2.5283 49.3865 2.48426 49.8037 2.44949L50.2395 2.41472H50.3114L50.731 2.36604C51.431 2.32431 52.1381 2.30577 52.852 2.3104H53.3342L53.9786 2.33822C54.3565 2.35908 54.739 2.3869 55.133 2.42167C55.6917 2.47731 56.2527 2.54917 56.816 2.63725L57.0269 2.67202L57.4465 2.74852L57.8637 2.83429C59.2129 3.11014 60.5272 3.50653 61.8045 4.02114C62.3469 4.24367 62.8847 4.47548 63.4063 4.74438L63.608 4.83942L63.703 4.89041L63.7981 4.93909L64.1829 5.14772C64.4378 5.28912 64.6905 5.43284 64.9525 5.59047C65.2144 5.7481 65.4439 5.90573 65.6827 6.07495L65.8588 6.20012L66.035 6.33225L66.2089 6.4667L66.3711 6.59651C66.4546 6.66605 66.5404 6.73559 66.6238 6.80514L66.7096 6.87236L67.0387 7.16444L67.201 7.31511L67.2821 7.38929L67.5881 7.69528L67.6669 7.77177L67.7434 7.8529L67.9613 8.0963L68.2465 8.42547L68.4458 8.68277L68.5107 8.76854C68.5988 8.88444 68.6846 8.99803 68.7657 9.11857L68.7959 9.16029L68.8839 9.29474L68.9141 9.3411L68.9998 9.47555L69.03 9.52191L69.1111 9.661L69.1923 9.79776L69.2177 9.84412L69.3174 10.0319L69.3684 10.1292L69.4148 10.2243L69.5075 10.4167L69.591 10.6137L69.6327 10.7088C69.6883 10.8409 69.737 10.9684 69.7787 11.0936L69.8112 11.1932C69.8297 11.2581 69.8529 11.3277 69.8715 11.3926C69.8923 11.4598 69.9248 11.5943 69.9479 11.6963C69.9711 11.8006 69.9943 11.9002 70.0152 11.9999C70.0337 12.0996 70.0384 12.1344 70.0499 12.2039V12.5655C70.0499 12.6003 70.0499 12.6351 70.0499 12.6698C70.0499 12.7046 70.0499 12.7626 70.0499 12.8066C70.0499 12.853 70.0499 12.8692 70.0499 12.8993C70.0499 12.9318 70.0499 12.9318 70.0499 12.9457C70.0499 12.9619 70.0499 12.9735 70.0499 12.9851C70.0499 12.9967 70.0499 13.05 70.0499 13.0801C70.0499 13.1103 70.0499 13.1311 70.0499 13.1543C70.0499 13.1775 70.0499 13.2424 70.0499 13.2841V13.8799C70.0082 14.1372 69.9433 14.3852 69.8529 14.6286C69.8297 14.6912 69.8065 14.7515 69.7787 14.8094L69.6999 14.9879C69.679 15.0343 69.6559 15.076 69.6304 15.1177L69.6072 15.1595L69.5608 15.2475L69.5145 15.3379L69.4078 15.5025L69.3522 15.586L69.2966 15.6625L69.1807 15.8178L68.9929 16.0403L68.9234 16.1099L68.7843 16.2466L68.6382 16.3788L68.564 16.4437L68.4876 16.5062L68.3346 16.6245L68.17 16.7357L68.0888 16.7891L68.0031 16.8401L67.8315 16.9397C67.711 17 67.5974 17.0672 67.4699 17.1159L67.2845 17.197L67.0921 17.2712C67.0318 17.2967 66.9622 17.3153 66.902 17.3384L66.7049 17.4057L66.5543 17.4474C66.4708 17.4706 66.3897 17.4937 66.3016 17.5123C66.0327 17.5818 65.7522 17.6282 65.4717 17.6699C64.8991 17.7464 64.3266 17.7835 63.7494 17.7766C63.1629 17.7742 62.5787 17.7395 61.9969 17.6746C61.4127 17.6073 60.8425 17.5192 60.2467 17.408L59.8133 17.3245L59.3798 17.2318L59.1642 17.1854L58.5174 17.0325L58.0909 16.9212L57.8753 16.8632L57.6644 16.8006L57.2425 16.6824L56.8183 16.5549L56.6073 16.49L56.401 16.4205L55.9814 16.286L55.5665 16.1446L55.3579 16.0751L54.739 15.8526L54.3333 15.6972L54.1293 15.6207L53.9253 15.5396L53.522 15.3797C52.9865 15.1595 52.4533 14.9416 51.9294 14.7074C51.4079 14.471 50.8886 14.2345 50.3925 13.9888L48.8556 13.2424L45.8259 11.7774L45.5222 11.6314L44.9589 11.3578L44.6692 11.2211L43.8671 11.6059L43.5658 11.7403L42.103 12.3592L44.8917 13.6736L47.9377 15.1131L49.5024 15.8178C50.0309 16.0635 50.5733 16.3092 51.1204 16.5433C51.6652 16.7775 52.2215 17.0046 52.7871 17.2249L53.2113 17.3848L53.4223 17.4659L53.6379 17.5424L54.0667 17.6977L54.5025 17.8461L54.7158 17.9203L54.936 17.9898L55.3741 18.1312L55.8169 18.2657L56.0394 18.3352L56.2619 18.4001L56.707 18.5276L57.1567 18.6458L57.3839 18.7084L57.6111 18.7617L58.0654 18.873L58.5221 18.9773L58.7516 19.026L58.9834 19.0724L59.4447 19.1651L59.9106 19.2462C60.5319 19.3575 61.167 19.4409 61.8091 19.4989C62.4559 19.5591 63.1026 19.587 63.754 19.58C64.417 19.5731 65.08 19.5174 65.736 19.4154C66.0675 19.3575 66.4013 19.2949 66.7328 19.2045C66.8973 19.1604 67.0619 19.1071 67.2265 19.0584C67.3123 19.0353 67.3934 19.0005 67.4745 18.9727C67.5534 18.9449 67.6391 18.9147 67.7156 18.88L67.959 18.7803C68.0378 18.7455 68.119 18.7084 68.1955 18.669C68.3577 18.5971 68.5107 18.5067 68.6684 18.4233L68.9002 18.2842L69.0138 18.2123L69.1273 18.1359L69.3452 17.9782L69.5562 17.809L69.6605 17.7232L69.7602 17.6305L69.9595 17.4474L70.1496 17.248L70.24 17.146L70.3258 17.0394L70.4997 16.8285L70.655 16.6059L70.7338 16.4947L70.801 16.3788L70.9401 16.1469C70.9818 16.0705 71.0259 15.9893 71.0629 15.9105C71.1024 15.8294 71.1487 15.7529 71.1835 15.6671C71.2577 15.5025 71.3226 15.3333 71.3828 15.1595C71.5011 14.8141 71.5868 14.4594 71.6355 14.0955V13.8196C71.6355 13.7732 71.6355 13.7269 71.6355 13.6805V13.2888C71.6355 13.2007 71.6355 13.1149 71.6355 13.0268C71.6981 12.8646 71.6796 12.6884 71.6633 12.5145Z" fill="black" stroke="black" stroke-width="0.96087"/>
<path d="M29.1509 8.59286C28.1101 9.10283 27.2292 9.55254 26.4943 9.92111L24.8276 10.7626C24.4428 10.9527 24.262 11.0546 24.2504 11.0639C24.2388 11.0709 24.4614 10.9596 24.8346 10.7857L25.5578 10.4357L26.5384 9.9837C27.2755 9.64062 28.1796 9.2141 29.2274 8.75049L29.997 8.40278L29.7003 8.30078L29.1509 8.59286Z" fill="black" stroke="black" stroke-width="0.96087"/>
<path d="M7.45427 5.82481L7.71389 5.78309H7.81125L8.04538 5.75991L8.33746 5.73209H9.52432L9.78627 5.75063H9.80481C9.92072 5.68109 10.032 5.60923 10.1548 5.54664L10.3357 5.4516L10.5211 5.36352L10.6138 5.32179L10.7089 5.28238L10.9013 5.20589L11.0983 5.13635L11.2977 5.0668C11.8447 4.89527 12.4034 4.76546 12.9736 4.682C13.5532 4.59855 14.1373 4.54756 14.7261 4.52901C15.3172 4.50583 15.9083 4.52901 16.5041 4.52901C17.6956 4.58233 18.8801 4.69823 20.06 4.8744C21.2353 5.04826 22.4013 5.2592 23.5511 5.51651C24.6985 5.77381 25.8298 6.05198 26.9355 6.3626L27.7631 6.60136C28.0366 6.6825 28.3055 6.76131 28.5767 6.85172L29.3857 7.11598L29.7682 7.24579L30.153 7.38487L30.9458 7.66072L31.0038 7.68158L31.3422 7.80444L31.7247 7.94121L32.1674 8.10347L32.5012 8.22633L32.886 8.377L33.2709 8.52536C33.8736 8.75949 34.467 8.99825 35.0535 9.24164L35.3455 9.35987L35.6075 9.46881L35.8833 9.5824L36.2496 9.73771L36.9728 10.0437L37.2417 10.1596L38.8204 10.8202L39.8844 10.4354L40.5311 10.1944L40.9623 10.0298L41.5812 9.78639L39.9887 9.06083C39.0777 8.64822 38.1365 8.23792 37.1676 7.82994C36.1986 7.42428 35.2134 7.02325 34.2074 6.62686L34.0729 6.59209L33.7136 6.45764L33.2848 6.2977L32.4873 6.00794L32.1025 5.86654L31.6992 5.72514L30.86 5.44001L30.4497 5.30093L30.0348 5.17112L29.2119 4.89758C28.9314 4.8095 28.6463 4.72837 28.3635 4.64492L27.5058 4.40615C26.3374 4.09785 25.1598 3.82432 23.9776 3.5786C22.7861 3.33753 21.5738 3.12658 20.3405 2.96895C19.0934 2.80205 17.8393 2.70237 16.5829 2.66992C15.9431 2.66992 15.3056 2.66992 14.6612 2.69542C14.0075 2.73019 13.3608 2.80205 12.7163 2.90636C12.051 3.01531 11.3997 3.17758 10.7622 3.39084C10.6811 3.41866 10.6022 3.44879 10.5211 3.47893L10.2777 3.57165L10.0413 3.67596L9.92072 3.72928L9.80249 3.78723L9.57069 3.90313L9.34119 4.02831C9.18588 4.11408 9.03753 4.21375 8.88685 4.30648C8.81499 4.35516 8.74081 4.41079 8.66895 4.46411L8.56 4.54524C8.52291 4.57074 8.49046 4.60319 8.45337 4.62869L8.24474 4.80254L8.04538 4.99031L7.9457 5.08303L7.85298 5.18271L7.66985 5.3867L7.49599 5.60228C7.46818 5.63705 7.43804 5.6695 7.41022 5.70891L7.33373 5.82481L7.31055 5.85495H7.4195L7.45427 5.82481Z" fill="black" stroke="black" stroke-width="0.96087"/>
<path d="M42.8335 10.8842L43.114 10.7613L43.3898 10.6385L44.4515 10.1563L44.9708 9.92219L45.4738 9.68343C46.1344 9.37049 46.7696 9.07841 47.3607 8.7817L48.2207 8.35518L48.6333 8.15119L49.0182 7.9472L50.4554 7.21005L51.6492 6.5749L52.1568 6.306L52.5996 6.06493L53.2904 5.68013L53.856 5.36719L53.2788 5.65695L52.5764 6.00929L52.1267 6.23646L51.6075 6.48681L50.3905 7.07792L48.9556 7.74784L48.5708 7.93561L48.1558 8.12337L47.2842 8.50817C46.6838 8.78634 46.0417 9.05523 45.3625 9.34731L44.8502 9.56984L44.324 9.78774L43.2368 10.2374L42.9563 10.3534H42.91L42.6712 10.4461L42.094 10.6732L41.5075 10.9027C41.3105 10.9792 41.1227 11.0604 40.9072 11.1345L40.1839 11.4034C39.5997 11.6213 39.004 11.8439 38.3897 12.0571L37.7337 12.2866L37.3976 12.4048L37.0591 12.5161L35.6868 12.9751C33.8277 13.5708 31.8434 14.155 29.7849 14.6858L28.2133 15.0683L27.8285 15.1657L27.4437 15.2537L26.637 15.4299L25.821 15.6084L24.9795 15.8194C24.4255 15.9237 23.8738 16.0349 23.3105 16.13L22.6777 16.2343L22.4667 16.2644L22.0425 16.3293L21.616 16.3873L21.1895 16.4406L20.7513 16.4916C20.4685 16.5217 20.1788 16.5519 19.8913 16.575C19.6016 16.5982 19.3188 16.6145 19.0267 16.633H16.6506L16.5231 16.5866H16.4165L15.9854 16.5449H15.7698L15.5565 16.5148L15.3711 16.4615L15.1601 16.4221H15.0674L14.7336 16.3618L14.3094 16.2644L14.1912 16.2042H14.0868L13.8828 16.1462C13.6116 16.0651 13.3404 15.9723 13.0761 15.8727C12.8119 15.773 12.5453 15.6571 12.3065 15.5273L12.2115 15.4809L12.0956 15.4346L11.9125 15.3187C11.7896 15.2468 11.6575 15.1819 11.5277 15.1031C11.2819 14.957 11.0432 14.7971 10.8091 14.6302C10.6932 14.5467 10.5772 14.461 10.466 14.3706C10.3547 14.2778 10.2481 14.1898 10.1368 14.097L9.99077 13.9556L9.83546 13.8096L9.6871 13.6589L9.54106 13.5059L9.46688 13.4271L9.39734 13.3483L9.26057 13.186C9.17016 13.0748 9.08208 12.9658 9.00326 12.8522L8.94067 12.7665L8.90127 12.7433L8.87113 12.7016L8.75523 12.5277C8.71814 12.4721 8.68337 12.4095 8.64859 12.3515L8.59528 12.2634L8.54428 12.1707L8.45156 11.976L8.36347 11.7906C8.33333 11.7303 8.31015 11.6631 8.28234 11.6028L8.24525 11.5054L8.2267 11.4614V11.415L8.15716 11.2226C8.13398 11.1577 8.11775 11.0905 8.09921 11.0256L8.06907 10.9213L8.02966 10.8216L7.9833 10.6269C7.96476 10.4924 7.93462 10.3603 7.92303 10.2421V10.1424C7.92071 10.1076 7.92071 10.0752 7.92303 10.0427V9.55825H7.87203L7.80713 9.58143L7.71904 9.61157H7.68427L7.55214 9.66489L7.4571 9.70661C7.29715 9.78079 7.14647 9.86656 7.00275 9.96855L6.93321 10.0195L6.89612 10.0543L6.78021 10.1447L6.62954 10.2908L6.59245 10.3371L6.53913 10.3951L6.49277 10.4484L6.43945 10.5179C6.46263 10.6617 6.49277 10.8031 6.51827 10.9445C6.54609 11.0882 6.56231 11.1183 6.58549 11.2018C6.60867 11.2875 6.60867 11.2875 6.62026 11.3293L6.65735 11.4568C6.68517 11.5402 6.70835 11.626 6.73849 11.7071L6.83121 11.9528L6.85439 12.0131L6.87989 12.0757L6.93321 12.1939C6.96798 12.275 7.00275 12.3562 7.04216 12.4327L7.16038 12.6621L7.28787 12.8893L7.35278 13.0006L7.42232 13.1095C7.46869 13.1814 7.51505 13.2556 7.56141 13.3251L7.70745 13.5361L7.74454 13.5894L7.78395 13.6404L7.86044 13.74C7.96012 13.8768 8.07139 14.0043 8.18266 14.1248L8.35188 14.3126L8.43765 14.4053L8.52574 14.4934L8.70191 14.6742L8.88272 14.8458L9.06817 15.0127L9.25593 15.1726C9.38575 15.2769 9.51324 15.3836 9.64074 15.4809C9.76591 15.576 9.905 15.6756 10.0255 15.7684C10.2968 15.9538 10.5749 16.13 10.8577 16.2876C11.0015 16.3734 11.1475 16.4452 11.2889 16.5194L11.5091 16.626L11.6204 16.6794L11.7317 16.7304C12.0261 16.8671 12.3274 16.9877 12.6334 17.1152C12.9417 17.2403 13.25 17.3168 13.5606 17.4026L13.7948 17.4605L13.9153 17.486L14.0289 17.5092L14.4948 17.6019L14.9631 17.6784L15.1972 17.7132L15.4313 17.741L15.6678 17.7665L15.9019 17.7897L16.3702 17.8245H16.8361C16.9891 17.8245 17.1467 17.8245 17.2997 17.8245H18.6813L19.1333 17.7943C19.4324 17.7665 19.736 17.7434 20.0327 17.7109C20.3295 17.6761 20.6285 17.6367 20.9206 17.5973L21.3633 17.5324L21.8014 17.4629L22.2349 17.391L22.6661 17.3099L22.8817 17.2728L23.0578 17.2403L23.4844 17.1569C24.05 17.0456 24.611 16.9135 25.165 16.7906L25.9949 16.6075L26.8132 16.4035L27.6314 16.2042L28.0162 16.1022L28.401 15.9955L29.9774 15.562C32.0474 14.9663 34.0155 14.3126 35.8676 13.6404L37.2793 13.1513L37.6131 13.0284L37.9446 12.8986L38.5983 12.6436C38.9808 12.4976 39.3656 12.3446 39.7504 12.1939L40.8469 11.7419L41.1111 11.6329C41.3105 11.5518 41.4959 11.4637 41.7023 11.3803L42.2748 11.1299L42.8335 10.8842Z" fill="black" stroke="black" stroke-width="0.96087"/>
<path d="M58.7756 14.4103C59.675 14.9319 60.6278 15.3167 61.6361 15.5624C62.0233 15.6574 62.415 15.7246 62.8114 15.764C64.5963 15.9333 66.0915 15.4488 66.7475 14.3106C67.8625 12.3588 66.1054 9.25259 62.8439 7.36104C60.9222 6.25764 58.9101 5.82417 57.343 6.02352C57.0231 6.06524 56.7102 6.13942 56.4042 6.24605C55.7412 6.45932 55.2289 6.86266 54.8673 7.45608C53.7523 9.40094 55.5025 12.5187 58.7756 14.4103ZM55.1664 7.62994C56.1168 5.98411 58.5577 5.98875 61.2699 7.55808C64.3808 9.35226 66.0452 12.3148 64.9811 14.1599C64.0238 15.8197 61.6315 15.8243 58.8776 14.2341C55.7667 12.4376 54.1023 9.47512 55.1664 7.62994Z" fill="black" stroke="black" stroke-width="0.96087"/>
<mask id="mask0_4037_54" style="mask-type:luminance" maskUnits="userSpaceOnUse" x="55" y="-1" width="167" height="22">
<path d="M55.623 0.462891H221V20.4771H55.623V0.462891Z" fill="white" stroke="white" stroke-width="0.96087"/>
</mask>
<g mask="url(#mask0_4037_54)">
<path d="M178.176 17.4C167.598 17.363 157.025 17.4232 146.453 17.5809C136.211 17.7338 125.905 18.2577 115.649 18.0445C111.219 17.9796 106.82 17.6342 102.455 17.0106L101.649 16.8854L101.247 16.8228L101.048 16.7927H100.857C100.357 16.7046 99.8689 16.5864 99.3917 16.438C98.9088 16.2943 98.4428 16.1205 97.9936 15.9165C97.5556 15.7125 97.1373 15.483 96.7386 15.228C96.3372 14.973 95.9582 14.6949 95.6016 14.3981C95.2451 14.1014 94.9054 13.7908 94.5825 13.464C93.9453 12.808 93.3529 12.1264 92.8054 11.4148C91.7021 10.0054 90.6971 8.55662 89.546 7.23764C88.9873 6.58394 88.3753 5.96502 87.7128 5.38086C87.0727 4.81989 86.3736 4.31455 85.6128 3.86717C84.8969 3.4476 84.1502 3.07439 83.3697 2.74522C82.637 2.43692 81.8846 2.17266 81.1069 1.95244C79.72 1.56532 78.2995 1.31034 76.8424 1.18516C76.1827 1.12257 75.5538 1.0878 74.9811 1.06926C74.4084 1.0484 73.8273 1.04608 73.3051 1.06926C72.2635 1.06926 71.3651 1.12257 70.638 1.16198C69.9109 1.19907 69.3438 1.23848 68.962 1.26398L68.3809 1.30802H68.962C69.3438 1.30802 69.8941 1.2802 70.638 1.26861C71.382 1.25702 72.2635 1.26861 73.2995 1.26861C73.816 1.26861 74.3747 1.31034 74.9615 1.34974C75.5482 1.38683 76.1686 1.44942 76.8256 1.53287C78.2265 1.68818 79.5909 1.96403 80.9216 2.36506C81.6572 2.60382 82.3702 2.8843 83.0581 3.20652C83.788 3.54959 84.4842 3.93207 85.1468 4.3586C85.8402 4.80367 86.4719 5.30205 87.0474 5.84911C87.6482 6.42631 88.2013 7.03596 88.7038 7.67575C89.226 8.32945 89.7145 9.02023 90.2086 9.73651C90.6999 10.4505 91.194 11.1853 91.7246 11.9271C92.2636 12.6897 92.8532 13.4246 93.4933 14.1339C93.8245 14.4932 94.1783 14.8479 94.5629 15.1863C94.9503 15.5317 95.3602 15.8539 95.7982 16.1552C96.2389 16.4612 96.705 16.7394 97.1934 16.9874C97.696 17.2401 98.2182 17.4603 98.7628 17.6458C99.3187 17.8382 99.8886 17.9981 100.473 18.1233L100.579 18.1465H100.68L100.885 18.1836L101.295 18.26L102.115 18.4154C103.49 18.6703 104.886 18.8813 106.304 19.0482L104.796 18.9879L103.426 18.9207L102.732 18.8836L102.031 18.8442L100.607 18.7561L99.1586 18.6634L97.7072 18.5637L96.9604 18.5058L96.2501 18.4617L95.8852 18.4293L95.5286 18.3945L95.1693 18.3597H94.9868L94.8099 18.3412L94.0941 18.26L93.3866 18.1673C92.4545 18.0422 91.5253 17.8915 90.6269 17.7107C89.7566 17.5322 88.9031 17.3143 88.0609 17.0616L87.4601 16.8646L87.3113 16.8159L87.1709 16.7649L86.8986 16.6629L86.6263 16.5493L86.4915 16.496L86.3624 16.438L86.1013 16.3198L85.8515 16.1923C85.1945 15.8585 84.5825 15.476 84.0126 15.0472C82.8026 14.1362 81.7358 13.1209 80.8149 12.0036C80.3012 11.4009 79.7986 10.7657 79.3017 10.1004C78.802 9.43516 78.3051 8.75133 77.7913 8.06055L77.4067 7.53667C77.345 7.45322 77.2664 7.35586 77.1962 7.26777L76.9828 6.99656C76.9463 6.9502 76.9126 6.90383 76.8761 6.85979L76.7582 6.72998L76.5252 6.46804L76.4101 6.33823L76.2894 6.21073L76.0423 5.95806C75.3826 5.29278 74.6498 4.68544 73.8497 4.13606C73.0721 3.60291 72.2439 3.1277 71.3651 2.71277C70.5257 2.3187 69.6582 1.97794 68.757 1.6905C67.9148 1.42392 67.0558 1.19907 66.1798 1.01826C65.3741 0.855995 64.56 0.728502 63.7402 0.633461L63.1619 0.573191L62.6032 0.531466L62.0557 0.496695L61.8031 0.480469H59.6161C58.698 0.496695 57.7884 0.552329 56.8788 0.649688C56.556 0.679822 56.3145 0.714594 56.1489 0.735456L55.8906 0.765591H56.1489C56.3145 0.765591 56.5616 0.765591 56.8816 0.765591C57.7913 0.749364 58.698 0.772545 59.602 0.835133L60.04 0.869904H60.2674L60.5004 0.893085L60.9664 0.937128L61.4577 0.99508L61.7104 1.02753L61.9659 1.06462L62.4909 1.14112L63.0327 1.2292L63.3078 1.2802L63.5802 1.33352C64.3578 1.48651 65.1214 1.66964 65.8766 1.8829C66.6852 2.11702 67.4712 2.38824 68.2405 2.69886C69.049 3.02339 69.8267 3.3966 70.5678 3.81617C71.3258 4.24733 72.0361 4.72485 72.6959 5.25337C73.3584 5.78653 73.9592 6.36372 74.4982 6.98728L74.6919 7.22141L74.7902 7.34195L74.8828 7.46481L75.0653 7.70589L75.158 7.82643C75.1917 7.86351 75.2141 7.90988 75.2422 7.94928L75.4106 8.19732C75.464 8.28308 75.5201 8.35958 75.5819 8.4523L75.9272 8.98546C76.8565 10.4134 77.752 11.8506 78.7936 13.1788C79.3045 13.8349 79.8576 14.4631 80.4556 15.0658L80.6774 15.286L80.9076 15.5015L81.0199 15.6082L81.135 15.7125L81.368 15.9165L81.6038 16.1158C81.6852 16.1807 81.7582 16.2456 81.8425 16.3082C82.0053 16.4357 82.1625 16.5609 82.3085 16.693C82.9963 17.1984 83.7403 17.6434 84.5376 18.0259L84.8548 18.172L85.3433 18.3806L85.5118 18.4455L85.8458 18.573L86.1912 18.6866L86.3624 18.7445L86.5337 18.7955L87.2243 18.9949C88.1676 19.2452 89.1277 19.4515 90.0991 19.6092C91.0817 19.7668 92.0839 19.8781 93.0834 19.9638L93.8386 20.0218L94.591 20.0635H103.381L104.776 20.0287C105.829 20.0287 106.882 20.0009 107.937 19.9661C111.348 19.9661 114.762 19.8873 118.179 19.9128C121.694 19.9453 125.206 19.9777 128.721 19.9453C138.651 19.8526 148.609 19.6416 158.513 19.2684C168.873 18.9926 179.232 18.7561 189.594 18.5568C200.013 18.3713 210.588 17.764 221.001 18.0561C206.725 17.6666 192.449 17.4487 178.176 17.4Z" fill="black" stroke="black" stroke-width="0.96087"/>
</g>
</svg>
