<svg width="137" height="65" viewBox="0 0 137 65" fill="none" xmlns="http://www.w3.org/2000/svg">
<path d="M104.254 0.549696C102.855 0.547998 101.463 0.637977 100.076 0.821331C98.6909 1.00468 97.3225 1.27972 95.9728 1.64642C94.6248 2.01313 93.3057 2.46812 92.0172 3.01139C90.7286 3.55466 89.4808 4.18282 88.2771 4.89246C87.0717 5.60381 85.9189 6.38985 84.8205 7.25569C83.7204 8.11983 82.6831 9.05528 81.7086 10.0586C80.7341 11.062 79.8309 12.1265 78.999 13.252C78.1655 14.3759 77.4117 15.5524 76.7377 16.7782C76.0925 16.3623 75.4236 15.9922 74.7276 15.6679C74.0332 15.3436 73.3185 15.0703 72.5868 14.8428C71.8533 14.617 71.1097 14.4421 70.3526 14.3182C69.5954 14.1943 68.8348 14.1213 68.0691 14.1026C67.3018 14.0822 66.5378 14.1145 65.7755 14.1994C65.0132 14.2843 64.2611 14.4201 63.5175 14.6085C62.7739 14.797 62.0473 15.0346 61.336 15.3216C60.6263 15.6085 59.9387 15.9429 59.2732 16.3249C58.9592 15.7782 58.6281 15.2435 58.2818 14.7172C57.9354 14.1909 57.5738 13.6748 57.1969 13.1705C56.82 12.6663 56.4279 12.1723 56.0204 11.6918C55.6147 11.2114 55.1936 10.7428 54.759 10.2878C54.3244 9.83113 53.8762 9.38973 53.4144 8.9602C52.9526 8.53238 52.479 8.11644 51.9934 7.71747C51.5062 7.31681 51.0087 6.93143 50.4994 6.56132C49.9901 6.19122 49.4706 5.8364 48.9392 5.49685C48.4095 5.15731 47.8697 4.83474 47.3196 4.52745C46.7695 4.22187 46.211 3.93156 45.6439 3.65822C45.0752 3.38489 44.5014 3.12853 43.9191 2.89085C43.335 2.65147 42.7459 2.43077 42.15 2.22874C41.5541 2.02501 40.9531 1.83996 40.3471 1.67359C39.7393 1.50551 39.1281 1.35781 38.5118 1.22709C37.8955 1.09636 37.2776 0.98601 36.6545 0.892635C36.0315 0.799261 35.4067 0.724561 34.7802 0.670234C34.1521 0.614209 33.5239 0.57686 32.8958 0.559882C32.2659 0.541208 31.6378 0.542905 31.0079 0.563278C30.378 0.58365 29.7516 0.622698 29.1234 0.68042C28.497 0.738143 27.8722 0.81454 27.2508 0.909613C26.6278 1.00468 26.0098 1.11843 25.3935 1.25085C24.779 1.38328 24.1678 1.53437 23.5617 1.70415C22.9556 1.87392 22.3546 2.06067 21.7587 2.26609C21.1645 2.47152 20.5754 2.69392 19.9931 2.93499C19.4125 3.17607 18.8386 3.43412 18.2716 3.70915C17.7046 3.98418 17.1477 4.27619 16.5994 4.58518C16.051 4.89246 15.5111 5.21843 14.9814 5.55967C14.4517 5.90091 13.9339 6.25743 13.4263 6.62923C12.9187 7.00103 12.4213 7.38811 11.9374 7.79047C11.4519 8.19283 10.9799 8.60878 10.5198 9.04C10.0597 9.46952 9.61324 9.91432 9.18032 10.371C8.7474 10.8277 8.32806 11.298 7.92401 11.7801C7.51825 12.2623 7.12777 12.7563 6.75258 13.2622C6.37738 13.7681 6.01747 14.286 5.67283 14.8139C5.32989 15.3402 5.00053 15.8784 4.68815 16.4251C4.37577 16.9717 4.08037 17.5286 3.80194 18.0939C3.52352 18.6593 3.26207 19.2314 3.0176 19.812C2.77312 20.3927 2.54563 20.9801 2.33681 21.5743C2.12799 22.1702 1.93615 22.7695 1.76298 23.3755C1.58981 23.9816 1.43532 24.5911 1.2978 25.2074C1.16029 25.822 1.04315 26.4416 0.942981 27.063C0.844513 27.6861 0.763023 28.3108 0.700207 28.9373C0.63909 29.5637 0.594949 30.1936 0.571181 30.8218C0.545715 31.4516 0.540622 32.0815 0.554204 32.713C0.567785 33.3429 0.600042 33.971 0.650974 34.5992C0.701905 35.2273 0.771512 35.8538 0.859793 36.4786C0.948075 37.1016 1.05503 37.723 1.18236 38.3393C1.30799 38.9572 1.4523 39.5701 1.61358 40.1796C1.77656 40.7891 1.95652 41.3918 2.15515 41.9894C2.35379 42.5869 2.57109 43.1795 2.80538 43.7635C3.03967 44.3492 3.29093 44.9264 3.55917 45.4968C3.8291 46.0656 4.11432 46.6275 4.41652 47.181C4.71871 47.7327 5.03788 48.276 5.37233 48.8091C5.70678 49.3439 6.05821 49.8668 6.42492 50.3795C6.79163 50.8905 7.17192 51.393 7.56918 51.882C7.96475 52.3709 8.3756 52.848 8.80003 53.3131C9.22616 53.7783 9.66417 54.2299 10.1158 54.6679C10.5691 55.1076 11.0325 55.5321 11.5113 55.9429C11.9883 56.3538 12.4773 56.7493 12.9798 57.1296C13.4806 57.5116 13.9934 57.8766 14.5162 58.228C15.0391 58.5778 15.5722 58.9122 16.1155 59.2314C16.6588 59.5489 17.2105 59.8511 17.7725 60.1363C18.3344 60.4215 18.9032 60.6897 19.4804 60.941C20.0576 61.1906 20.6416 61.4249 21.2341 61.6405C21.8249 61.8561 22.4225 62.0547 23.0252 62.2347C23.6296 62.4146 24.2374 62.5759 24.8503 62.7185C25.4631 62.8628 26.0794 62.9868 26.7008 63.0937C27.3205 63.2007 27.9435 63.2873 28.57 63.3569C29.1947 63.4265 29.8229 63.4757 30.451 63.5063C31.0792 63.5385 31.7091 63.5504 32.3389 63.5436C32.9671 63.5368 33.5969 63.5114 34.2234 63.4672C34.8515 63.4231 35.478 63.3603 36.1028 63.2788C36.7258 63.1956 37.3472 63.0954 37.9652 62.9766C38.5831 62.856 39.1977 62.7185 39.8072 62.5623C40.4167 62.4061 41.021 62.233 41.622 62.0394C42.2213 61.8476 42.8138 61.6371 43.4013 61.4079C43.987 61.1804 44.5659 60.9342 45.138 60.6711C45.7102 60.4096 46.2738 60.1295 46.8289 59.8324C47.3841 59.5353 47.9308 59.2212 48.4672 58.8919C49.0037 58.5625 49.53 58.2179 50.0461 57.8562C50.5622 57.4946 51.0665 57.1177 51.5588 56.7273C52.0528 56.3351 52.5333 55.9293 53.0019 55.5083C53.4704 55.0873 53.9271 54.6544 54.3702 54.2062C54.8133 53.758 55.2411 53.2979 55.6571 52.8242C56.0713 52.3505 56.472 51.8633 56.8591 51.3659C57.2445 50.8684 57.6163 50.3591 57.9711 49.8396C58.3276 49.3201 58.6671 48.7887 58.9897 48.2488C59.314 47.709 59.6213 47.1589 59.9116 46.6004C60.2036 46.0401 60.4769 45.4731 60.7333 44.8992C60.9913 44.3237 61.2307 43.7397 61.4514 43.1506C61.6738 42.5615 61.8775 41.9656 62.0643 41.3629C62.2493 40.7619 62.4174 40.1541 62.5685 39.5412C62.7179 38.9301 62.8486 38.3138 62.9624 37.6941C63.0744 37.0745 63.1695 36.4514 63.2442 35.8249C63.3206 35.2002 63.3766 34.572 63.414 33.9439C63.453 33.314 63.4717 32.6842 63.4717 32.0543C63.4717 31.747 63.4717 31.4431 63.4717 31.1494C63.4717 30.8557 63.4496 30.5382 63.431 30.2445C63.431 30.1002 63.4309 29.9593 63.3987 29.7912C63.3987 29.5739 63.3715 29.3396 63.3495 29.1444C63.3223 28.8456 63.29 28.5519 63.2544 28.2395L63.2136 27.9186C63.2136 27.7285 63.1644 27.5434 63.1372 27.3567L63.0693 26.9492C63.0337 26.715 62.9929 26.4977 62.9471 26.2532C62.903 26.0002 62.852 25.7456 62.7943 25.4977C62.7349 25.2481 62.7162 25.1259 62.6721 24.9408C62.6721 24.8594 62.6347 24.7728 62.6126 24.6913C62.5634 24.474 62.5091 24.2397 62.4497 24.0444C62.4293 23.946 62.4021 23.8458 62.3682 23.7456C62.3325 23.5929 62.2867 23.4384 62.2425 23.2941C62.1967 23.1481 62.1203 22.8679 62.0524 22.6608C61.9845 22.452 61.903 22.1803 61.8181 21.9444C61.7672 21.7865 61.7129 21.6235 61.6551 21.4656C61.5957 21.3077 61.5244 21.104 61.4565 20.9274L61.3343 20.6049C61.2698 20.4385 61.2035 20.2755 61.1356 20.1074C60.9183 19.5744 60.6823 19.0498 60.4396 18.5336C60.353 18.3435 60.263 18.1585 60.1679 17.9717C60.7655 17.6271 61.3852 17.3249 62.0252 17.0651C62.6653 16.8054 63.3206 16.5915 63.9895 16.4234C64.6601 16.2553 65.3375 16.1331 66.0234 16.0584C66.7109 15.9837 67.3985 15.9582 68.0895 15.9786C68.7788 16.0006 69.4646 16.0686 70.1454 16.184C70.8262 16.3011 71.4951 16.4641 72.1538 16.6729C72.8109 16.8818 73.4526 17.1347 74.0757 17.4335C74.6987 17.7306 75.298 18.0702 75.8735 18.4522C75.7428 18.7238 75.6155 18.9988 75.4949 19.2756C75.3727 19.5506 75.2641 19.8001 75.1554 20.0667C75.0467 20.3349 74.9839 20.4877 74.9024 20.6999C74.821 20.9139 74.7479 21.0989 74.6766 21.2975C74.6036 21.4979 74.5357 21.6778 74.4729 21.8731C74.4101 22.0666 74.3456 22.2432 74.2879 22.4299C74.2879 22.4791 74.2505 22.5335 74.2369 22.5827C74.1656 22.8102 74.0977 23.036 74.0349 23.2618C73.9704 23.4876 73.9076 23.7151 73.8448 23.9409C73.7955 24.1191 73.7514 24.2957 73.7089 24.4706C73.6682 24.6336 73.6275 24.7914 73.5918 24.9544C73.5918 25.0274 73.5545 25.0987 73.5426 25.1717C73.4882 25.4162 73.4339 25.6607 73.3881 25.9085C73.383 25.9238 73.383 25.9391 73.3881 25.9544L73.3609 26.0817C73.3337 26.2039 73.3117 26.3262 73.293 26.4484C73.293 26.5299 73.2607 26.6148 73.2472 26.7014C73.2336 26.7863 73.2115 26.9187 73.1979 27.0222C73.1979 27.0545 73.1979 27.0817 73.1979 27.1122L73.1572 27.3567C73.1572 27.411 73.1572 27.462 73.1572 27.5163V27.5978C73.1572 27.7421 73.1164 27.8864 73.0995 28.0494C73.0995 28.0494 73.0995 28.0816 73.0995 28.0952C73.0587 28.411 73.0214 28.7285 72.9942 29.0442C72.967 29.3617 72.9399 29.6198 72.9229 29.9101C72.9229 29.9678 72.9229 30.0272 72.9229 30.0866C72.8991 30.4075 72.8856 30.7284 72.8771 31.0492C72.8686 31.3701 72.8771 31.7232 72.8771 32.0628C72.8771 32.5789 72.8906 33.095 72.9161 33.6094C72.9416 34.1255 72.9789 34.6399 73.0299 35.1526C73.0808 35.6653 73.1436 36.1781 73.22 36.6891C73.2947 37.1984 73.383 37.706 73.4848 38.2119C73.585 38.7178 73.6988 39.2221 73.8244 39.7212C73.9483 40.222 74.0858 40.7195 74.2369 41.2135C74.3863 41.7058 74.5476 42.1965 74.7225 42.682C74.8957 43.1676 75.0807 43.648 75.2793 44.1251C75.4763 44.6004 75.6851 45.0724 75.9058 45.5393C76.1265 46.0045 76.3574 46.4662 76.6019 46.9212C76.8446 47.3745 77.0993 47.8244 77.3641 48.2658C77.629 48.7089 77.904 49.1435 78.1909 49.5731C78.4778 50.0009 78.7749 50.4236 79.0822 50.8379C79.3895 51.2504 79.707 51.6579 80.033 52.0568C80.3606 52.4541 80.6968 52.8446 81.0431 53.2266C81.3894 53.6086 81.746 53.982 82.1093 54.3471C82.4743 54.7104 82.8478 55.0669 83.2298 55.4132C83.6117 55.7596 84.0022 56.0957 84.4012 56.4217C84.7985 56.7493 85.2059 57.0668 85.6201 57.3724C86.0344 57.6797 86.4554 57.9768 86.8832 58.2637C87.3128 58.5489 87.7474 58.8239 88.1905 59.0888C88.6319 59.3536 89.0801 59.6083 89.5351 59.8511C89.9901 60.0938 90.4502 60.3247 90.917 60.5454C91.3822 60.7661 91.8525 60.9733 92.3295 61.1702C92.8049 61.3688 93.2871 61.5539 93.7726 61.727C94.2564 61.9002 94.7471 62.0615 95.2394 62.2109C95.7335 62.3603 96.2292 62.4961 96.73 62.6217C97.2292 62.7457 97.7317 62.8594 98.2376 62.9596C98.7435 63.0598 99.2511 63.1463 99.7605 63.221C100.27 63.2974 100.781 63.3603 101.293 63.4095C101.806 63.4587 102.321 63.4961 102.835 63.5215C103.349 63.547 103.866 63.5589 104.38 63.5572C104.896 63.5572 105.41 63.5436 105.925 63.5181C106.439 63.4927 106.954 63.4536 107.466 63.4027C107.979 63.3518 108.49 63.2873 108.999 63.2109C109.509 63.1345 110.016 63.0462 110.522 62.9443C111.027 62.8441 111.529 62.7304 112.03 62.6031C112.529 62.4774 113.025 62.3399 113.517 62.1888C114.011 62.0394 114.5 61.8764 114.984 61.7016C115.469 61.5284 115.95 61.3417 116.425 61.143C116.901 60.9444 117.373 60.7356 117.838 60.5149C118.303 60.2925 118.763 60.0599 119.216 59.8171C119.671 59.5726 120.12 59.318 120.561 59.0514C121.002 58.7866 121.437 58.5099 121.865 58.223C122.293 57.936 122.714 57.6372 123.126 57.33C123.54 57.0227 123.946 56.7035 124.343 56.3758C124.741 56.0482 125.131 55.7103 125.511 55.364C125.893 55.0177 126.265 54.6611 126.63 54.2961C126.994 53.9294 127.348 53.5559 127.693 53.1739C128.039 52.7902 128.374 52.3998 128.701 52.0008C129.027 51.6001 129.343 51.1944 129.649 50.7785C129.956 50.3642 130.252 49.9415 130.537 49.512C130.822 49.0824 131.097 48.6461 131.362 48.203C131.627 47.7616 131.88 47.3117 132.121 46.8567C132.363 46.4017 132.594 45.9399 132.813 45.4731C133.032 45.0062 133.241 44.5342 133.436 44.0572C133.633 43.5801 133.818 43.0997 133.99 42.6124C134.163 42.1269 134.324 41.6379 134.472 41.1439C134.621 40.6498 134.757 40.1524 134.883 39.6516C135.007 39.1508 135.119 38.6482 135.217 38.1406C135.318 37.6347 135.404 37.1271 135.479 36.6161C135.553 36.1068 135.616 35.594 135.666 35.0813C135.715 34.5669 135.752 34.0525 135.776 33.5381C135.8 33.022 135.812 32.5059 135.812 31.9915C135.81 31.4754 135.796 30.9593 135.769 30.4449C135.744 29.9287 135.705 29.4143 135.654 28.9016C135.601 28.3889 135.536 27.8762 135.46 27.3669C135.384 26.8559 135.295 26.3483 135.194 25.8423C135.092 25.3364 134.978 24.8339 134.851 24.3331C134.725 23.8339 134.586 23.3365 134.436 22.8442C134.285 22.3501 134.122 21.8612 133.947 21.3756C133.773 20.8901 133.588 20.4096 133.389 19.9326C133.19 19.4572 132.981 18.9869 132.759 18.5201C132.538 18.0549 132.306 17.5948 132.061 17.1398C131.817 16.6848 131.562 16.2366 131.297 15.7952C131.031 15.3538 130.754 14.9192 130.467 14.4897C130.18 14.0619 129.881 13.6408 129.574 13.2283C129.267 12.814 128.948 12.4083 128.62 12.011C128.292 11.612 127.954 11.2233 127.608 10.8413C127.262 10.4593 126.905 10.0875 126.54 9.72248C126.175 9.35917 125.8 9.00434 125.418 8.65971C125.036 8.31337 124.644 7.97722 124.245 7.65126C123.846 7.3253 123.44 7.00952 123.024 6.70223C122.61 6.39665 122.189 6.10124 121.76 5.81433C121.33 5.52911 120.894 5.25408 120.452 4.99093C120.009 4.72609 119.561 4.47313 119.104 4.23205C118.649 3.98928 118.189 3.75839 117.722 3.53938C117.257 3.32038 116.785 3.11325 116.308 2.91632C115.833 2.72108 115.351 2.53603 114.865 2.36286C114.38 2.19139 113.891 2.03011 113.397 1.88241C112.903 1.73301 112.407 1.59719 111.906 1.47326C111.407 1.34932 110.903 1.23727 110.398 1.1388C109.892 1.04034 109.385 0.952055 108.874 0.879054C108.364 0.804354 107.853 0.743236 107.341 0.694002C106.826 0.644768 106.314 0.607419 105.799 0.58365C105.283 0.559882 104.769 0.549696 104.254 0.549696ZM61.6008 32.0543C61.6008 34.1849 61.3733 36.2901 60.9149 38.3715C60.4582 40.4529 59.7826 42.4596 58.8879 44.3933C58.6366 44.9417 58.3684 45.4799 58.0848 46.0096C57.7996 46.5409 57.5008 47.0621 57.1833 47.5749C56.8676 48.0876 56.5365 48.5884 56.1902 49.0807C55.8438 49.5731 55.4822 50.0535 55.1053 50.5238C54.7301 50.9941 54.3397 51.4508 53.9356 51.8973C53.5315 52.3438 53.1139 52.7767 52.6844 53.1977C52.2549 53.6187 51.8118 54.0262 51.3568 54.4184C50.9018 54.8122 50.4349 55.1925 49.9562 55.5575C49.4774 55.9225 48.9884 56.2723 48.4893 56.6084C47.9902 56.9429 47.4809 57.262 46.9614 57.5676C46.4419 57.8715 45.9156 58.1584 45.3774 58.4318C44.8409 58.7034 44.2976 58.9581 43.7459 59.1974C43.1924 59.4351 42.6339 59.6575 42.0685 59.8613C41.5032 60.0667 40.9311 60.2534 40.3538 60.4232C39.7783 60.593 39.196 60.7441 38.6103 60.8782C38.0229 61.0123 37.4338 61.1295 36.8396 61.2279C36.2471 61.3247 35.6512 61.4062 35.0519 61.4673C34.4543 61.5284 33.855 61.5726 33.254 61.598C32.653 61.6218 32.052 61.6286 31.451 61.6184C30.85 61.6065 30.249 61.576 29.6497 61.5284C29.0504 61.4792 28.4528 61.413 27.8569 61.3281C27.261 61.2449 26.6702 61.1413 26.0811 61.0208C25.492 60.9003 24.9063 60.761 24.3257 60.6049C23.7451 60.447 23.1695 60.2738 22.5991 60.082C22.0287 59.8901 21.465 59.6813 20.9082 59.4555C20.3513 59.2297 19.8013 58.9852 19.258 58.7255C18.7147 58.4657 18.1816 58.1907 17.6553 57.8987C17.129 57.605 16.6129 57.2977 16.107 56.9734C15.5994 56.6492 15.1037 56.3113 14.6164 55.9565C14.1309 55.6017 13.6555 55.2333 13.1903 54.8513C12.7269 54.4676 12.2753 54.0703 11.8356 53.6595C11.3958 53.2486 10.9697 52.8242 10.5555 52.3879C10.1412 51.9516 9.74056 51.5017 9.35518 51.0416C8.9681 50.5798 8.5963 50.1062 8.23808 49.6223C7.88156 49.1385 7.53862 48.6444 7.21096 48.1402C6.8833 47.6343 6.57092 47.1199 6.27552 46.5953C5.97842 46.0724 5.69829 45.5393 5.43515 44.9977C5.1703 44.4578 4.92413 43.9095 4.69324 43.3526C4.46235 42.7958 4.25014 42.2338 4.0532 41.6651C3.85797 41.0947 3.67801 40.5208 3.51842 39.9402C3.35714 39.3596 3.21283 38.7756 3.0872 38.1865C2.96157 37.599 2.85461 37.0065 2.76463 36.4106C2.67635 35.8147 2.60505 35.2171 2.55242 34.6179C2.49809 34.0186 2.46414 33.4176 2.44716 32.8149C2.43188 32.2139 2.43358 31.6112 2.45395 31.0102C2.47432 30.4075 2.51167 29.8082 2.5694 29.2089C2.62542 28.6079 2.70012 28.012 2.7935 27.4161C2.88687 26.8219 2.99892 26.2311 3.12795 25.642C3.25697 25.0546 3.40298 24.4706 3.56935 23.8917C3.73403 23.3127 3.91569 22.7389 4.11602 22.1719C4.31465 21.6031 4.53196 21.0412 4.76625 20.4877C4.99883 19.9326 5.2501 19.3859 5.51834 18.846C5.78488 18.3062 6.0684 17.7765 6.3672 17.2536C6.66769 16.7324 6.98177 16.2197 7.31283 15.7171C7.64388 15.2129 7.99022 14.7206 8.35013 14.2401C8.71175 13.758 9.08694 13.2877 9.47572 12.8293C9.8662 12.3692 10.2686 11.9227 10.6845 11.4898C11.1021 11.0552 11.5317 10.6342 11.9731 10.225C12.4162 9.81755 12.8695 9.42368 13.3363 9.04339C13.8032 8.6631 14.2803 8.29809 14.7692 7.94666C15.2565 7.59524 15.7556 7.25909 16.2649 6.93822C16.7742 6.61735 17.292 6.31346 17.82 6.02484C18.348 5.73453 18.8828 5.4629 19.4278 5.20654C19.9727 4.95019 20.5228 4.71081 21.083 4.48841C21.6416 4.26601 22.2052 4.06058 22.7774 3.87213C23.3495 3.68369 23.925 3.51392 24.5073 3.36112C25.0879 3.20833 25.6737 3.07251 26.2645 2.95537C26.8536 2.83822 27.4478 2.73976 28.0437 2.65826C28.6396 2.57677 29.2372 2.51566 29.8365 2.46982C30.4358 2.42568 31.0368 2.40021 31.6378 2.39172C32.2404 2.38493 32.8414 2.39512 33.4407 2.42398C34.0417 2.45284 34.641 2.50038 35.2386 2.56659C35.8379 2.6311 36.4321 2.71429 37.0246 2.81615C37.6171 2.91971 38.2062 3.03855 38.7919 3.17607C39.3777 3.31528 39.9583 3.46978 40.5338 3.64294C41.111 3.81611 41.6798 4.00795 42.2451 4.21507C42.8087 4.42389 43.3673 4.64969 43.9174 4.89077C44.4674 5.13354 45.0107 5.39159 45.5455 5.66663C46.0803 5.94335 46.6065 6.23366 47.1227 6.54095C47.6405 6.84824 48.1481 7.1725 48.6455 7.51035C49.1429 7.8482 49.6285 8.20132 50.1055 8.56973C50.5809 8.93813 51.0444 9.32012 51.4977 9.71739C51.951 10.113 52.3907 10.5238 52.8185 10.9465C53.2463 11.371 53.6606 11.8056 54.0612 12.2555C54.4619 12.7037 54.849 13.1638 55.2225 13.6357C55.596 14.1094 55.9542 14.5915 56.2971 15.0856C56.6418 15.5796 56.9694 16.0838 57.2818 16.5982C57.5942 17.1127 57.8913 17.6356 58.1731 18.1686C58.4532 18.7 58.7181 19.2416 58.9659 19.79C59.2138 20.3383 59.4464 20.8935 59.6603 21.4571C59.8742 22.0191 60.0712 22.5878 60.2511 23.1616C60.4311 23.7372 60.5924 24.3161 60.7367 24.9018C60.881 25.4858 61.0066 26.0732 61.1153 26.6657C61.2239 27.2582 61.3139 27.8541 61.3869 28.4517C61.4582 29.0493 61.5125 29.6486 61.5482 30.2496C61.5838 30.8506 61.6008 31.4516 61.6008 32.0543ZM104.254 61.6761C103.769 61.6761 103.285 61.6642 102.801 61.6405C102.317 61.6167 101.835 61.581 101.353 61.5335C100.871 61.486 100.39 61.4282 99.9116 61.3569C99.4328 61.2856 98.9557 61.2025 98.4804 61.1091C98.005 61.014 97.533 60.9087 97.0628 60.7899C96.5942 60.6728 96.1273 60.5437 95.6639 60.4028C95.2004 60.2619 94.7403 60.1108 94.2853 59.9478C93.8286 59.7849 93.377 59.61 92.9288 59.4249C92.4823 59.2382 92.0392 59.043 91.6012 58.8358C91.1632 58.6287 90.732 58.4097 90.3042 58.1822C89.8763 57.953 89.4553 57.7153 89.041 57.4658C88.6251 57.2162 88.216 56.9565 87.8136 56.6882C87.4112 56.4183 87.014 56.1399 86.6252 55.8512C86.2364 55.5609 85.8544 55.2638 85.4809 54.9565C85.1057 54.6476 84.739 54.3318 84.3808 54.0058C84.0226 53.6799 83.6712 53.3471 83.3282 53.0042C82.987 52.6612 82.6525 52.3098 82.3283 51.9499C82.0023 51.5917 81.6865 51.225 81.3792 50.8498C81.072 50.4746 80.7732 50.0926 80.4846 49.7038C80.1976 49.3133 79.9175 48.9178 79.6493 48.5137C79.381 48.1113 79.1213 47.7022 78.8717 47.2862C78.6238 46.8703 78.3845 46.4476 78.157 46.0197C77.9278 45.5919 77.7105 45.159 77.5033 44.721C77.2962 44.283 77.101 43.8399 76.9159 43.3917C76.7309 42.9435 76.556 42.4919 76.393 42.0352C76.2301 41.5785 76.079 41.1184 75.938 40.6549C75.7971 40.1898 75.6681 39.7229 75.551 39.2526C75.4338 38.7824 75.3286 38.3087 75.2335 37.8333C75.1384 37.358 75.0569 36.8809 74.9856 36.4005C74.9143 35.9217 74.8549 35.4412 74.8091 34.9574C74.7615 34.4752 74.7259 33.9914 74.7021 33.5075C74.6783 33.0237 74.6665 32.5398 74.6665 32.0543C74.6665 31.5687 74.68 31.0849 74.7038 30.601C74.7276 30.1172 74.7632 29.6333 74.8108 29.1512C74.8583 28.669 74.9177 28.1886 74.9873 27.7081C75.0586 27.2294 75.1418 26.7506 75.2369 26.2753C75.3303 25.7999 75.4372 25.3279 75.5544 24.8577C75.6732 24.3874 75.8022 23.9205 75.9415 23.457C76.0824 22.9936 76.2351 22.5335 76.3981 22.0768C76.5611 21.6201 76.736 21.1685 76.921 20.7203C77.1061 20.2721 77.3013 19.829 77.5084 19.391C77.7156 18.953 77.9346 18.5201 78.1621 18.0922C78.3913 17.6644 78.6289 17.2434 78.8785 16.8274C79.1264 16.4115 79.3861 16.0023 79.6544 15.6C79.9243 15.1959 80.2027 14.8004 80.4913 14.4116C80.7799 14.0211 81.077 13.6391 81.3843 13.2656C81.6916 12.8904 82.0074 12.5237 82.3334 12.1638C82.6576 11.8056 82.9921 11.4542 83.335 11.1112C83.6763 10.7683 84.0277 10.4355 84.3859 10.1096C84.7441 9.7836 85.1108 9.46782 85.486 9.16053C85.8595 8.85325 86.2415 8.55445 86.6303 8.26584C87.0191 7.97722 87.4146 7.6971 87.817 7.42886C88.2211 7.15892 88.6285 6.90087 89.0444 6.6513C89.4604 6.40174 89.8814 6.16236 90.3075 5.93486C90.7354 5.70567 91.1666 5.48836 91.6046 5.28124C92.0426 5.07412 92.4857 4.87719 92.9322 4.69213C93.3804 4.50708 93.832 4.33222 94.287 4.16924C94.7437 4.00456 95.2021 3.85346 95.6656 3.71255C96.129 3.57164 96.5959 3.44261 97.0662 3.32547C97.5347 3.20663 98.0067 3.10137 98.4821 3.0063C98.9574 2.91122 99.4345 2.82973 99.9132 2.75843C100.392 2.68713 100.872 2.62771 101.355 2.58017C101.835 2.53263 102.319 2.49698 102.803 2.47321C103.285 2.44945 103.769 2.43756 104.254 2.43756C104.735 2.44265 105.214 2.46133 105.694 2.49019C106.173 2.51905 106.651 2.56149 107.129 2.61412C107.606 2.66675 108.083 2.73127 108.556 2.80597C109.032 2.88236 109.504 2.96895 109.974 3.06911C110.444 3.16758 110.911 3.27793 111.376 3.40017C111.84 3.52071 112.302 3.65483 112.76 3.79913C113.218 3.94344 113.673 4.09793 114.123 4.26431C114.575 4.43068 115.021 4.60895 115.463 4.79569C115.906 4.98414 116.342 5.18278 116.775 5.39329C117.208 5.60211 117.634 5.82282 118.057 6.05201C118.478 6.2829 118.894 6.52397 119.305 6.77354C119.714 7.0248 120.118 7.28455 120.515 7.55449C120.912 7.82613 121.303 8.10455 121.687 8.39486C122.07 8.68347 122.447 8.98227 122.815 9.28956C123.186 9.59855 123.547 9.91432 123.9 10.2403C124.255 10.5645 124.6 10.899 124.938 11.2402C125.275 11.5832 125.605 11.9329 125.924 12.2911C126.245 12.6493 126.557 13.0161 126.859 13.3896C127.162 13.7631 127.455 14.1433 127.741 14.5304C128.024 14.9192 128.299 15.3131 128.564 15.7137C128.829 16.1161 129.083 16.5218 129.33 16.9361C129.574 17.3503 129.81 17.7697 130.034 18.1941C130.26 18.6185 130.474 19.0498 130.678 19.4844C130.881 19.9207 131.075 20.3604 131.257 20.8052C131.44 21.25 131.611 21.6999 131.771 22.1532C131.932 22.6065 132.082 23.0632 132.221 23.5232C132.358 23.985 132.486 24.4485 132.601 24.9154C132.717 25.3806 132.822 25.8508 132.915 26.3228C133.007 26.7948 133.088 27.2684 133.16 27.7438C133.229 28.2191 133.287 28.6979 133.335 29.1767C133.38 29.6537 133.416 30.1342 133.44 30.6146C133.462 31.0951 133.474 31.5755 133.474 32.056C133.474 32.5381 133.462 33.0186 133.44 33.4991C133.416 33.9795 133.38 34.4583 133.335 34.937C133.287 35.4158 133.229 35.8928 133.16 36.3682C133.088 36.8453 133.007 37.3189 132.915 37.7909C132.822 38.2629 132.717 38.7314 132.601 39.1983C132.486 39.6652 132.358 40.1287 132.221 40.5887C132.082 41.0505 131.932 41.5072 131.771 41.9605C131.611 42.4138 131.44 42.862 131.257 43.3068C131.075 43.7516 130.881 44.193 130.678 44.6276C130.474 45.0639 130.26 45.4935 130.034 45.9196C129.81 46.344 129.574 46.7633 129.33 47.1759C129.083 47.5901 128.829 47.9976 128.564 48.3983C128.299 48.8006 128.024 49.1945 127.741 49.5816C127.455 49.9703 127.162 50.3506 126.859 50.7241C126.557 51.0976 126.245 51.4626 125.924 51.8209C125.605 52.1791 125.275 52.5305 124.938 52.8717C124.6 53.2147 124.255 53.5474 123.9 53.8734C123.547 54.1994 123.186 54.5151 122.815 54.8224C122.447 55.1297 122.07 55.4285 121.687 55.7188C121.303 56.0074 120.912 56.2876 120.515 56.5575C120.118 56.8274 119.714 57.0889 119.305 57.3384C118.894 57.5897 118.478 57.8308 118.057 58.06C117.634 58.2909 117.208 58.5099 116.775 58.7204C116.342 58.9292 115.906 59.1278 115.463 59.3163C115.021 59.5047 114.575 59.6813 114.123 59.8494C113.673 60.0157 113.218 60.1702 112.76 60.3145C112.302 60.4588 111.84 60.5913 111.376 60.7135C110.911 60.8357 110.444 60.9461 109.974 61.0446C109.504 61.143 109.032 61.2313 108.556 61.306C108.083 61.3824 107.606 61.4469 107.129 61.4996C106.651 61.5522 106.173 61.5929 105.694 61.6218C105.214 61.6524 104.735 61.6693 104.254 61.6761Z" fill="url(#paint0_linear_2233_1188)" fill-opacity="0.9" stroke="url(#paint1_linear_2233_1188)" stroke-opacity="0.9" stroke-width="1.09444"/>
<defs>
<linearGradient id="paint0_linear_2233_1188" x1="124.539" y1="71.9587" x2="6.52619" y2="17.3841" gradientUnits="userSpaceOnUse">
<stop stop-color="#283025"/>
<stop offset="1" stop-color="#435839"/>
</linearGradient>
<linearGradient id="paint1_linear_2233_1188" x1="124.539" y1="71.9587" x2="6.52619" y2="17.3841" gradientUnits="userSpaceOnUse">
<stop stop-color="#283025"/>
<stop offset="1" stop-color="#435839"/>
</linearGradient>
</defs>
</svg>
