<svg width="381" height="29" viewBox="0 0 381 29" fill="none" xmlns="http://www.w3.org/2000/svg">
<mask id="mask0_2066_838" style="mask-type:luminance" maskUnits="userSpaceOnUse" x="-1" y="-1" width="199" height="30">
<path d="M0.397461 28.498H197.34V0.349005H0.397461V28.498Z" fill="white" stroke="white" stroke-width="0.880087"/>
</mask>
<g mask="url(#mask0_2066_838)">
<path d="M184.964 17.0203C184.992 17.8729 185.262 18.643 185.771 19.326C186.275 19.9906 186.908 20.504 187.659 20.8707C188.397 21.2466 189.186 21.462 190.011 21.517C190.841 21.5721 191.647 21.462 192.431 21.187C192.821 21.0403 193.187 20.8432 193.527 20.6003C193.696 20.4719 193.857 20.339 194.008 20.1923C194.081 20.1236 194.164 20.0594 194.237 19.9906L194.439 19.7615C194.993 19.1335 195.42 18.4322 195.704 17.6437C195.984 16.8599 196.139 16.0532 196.176 15.2235C196.217 14.3938 196.139 13.5779 195.951 12.7712C195.764 11.9598 195.47 11.1944 195.076 10.4655L194.755 9.92923L194.402 9.42501C194.15 9.09956 193.884 8.78328 193.595 8.48992C193.032 7.89403 192.413 7.36231 191.744 6.89018C191.074 6.4318 190.373 6.02384 189.64 5.67547C188.168 4.98791 186.642 4.49286 185.051 4.18116C183.474 3.86946 181.879 3.69986 180.27 3.68153C177.02 3.64944 173.871 4.19033 170.819 5.30419C169.301 5.85882 167.844 6.54639 166.45 7.37148C165.061 8.19197 163.76 9.1179 162.467 10.0255C159.905 11.8407 157.333 13.6146 154.409 14.3342C153.684 14.513 152.951 14.6276 152.208 14.678C151.48 14.7285 150.755 14.6918 150.036 14.5634C149.334 14.4351 148.661 14.2105 148.023 13.8942C147.868 13.8071 147.712 13.7246 147.56 13.6375L147.359 13.5L147.157 13.3487C146.887 13.1379 146.644 12.8995 146.419 12.6428C145.484 11.5381 144.998 10.2638 144.966 8.81537C144.948 8.14155 145.076 7.49524 145.356 6.88101C145.631 6.29428 146.043 5.82674 146.584 5.48295C147.629 4.78622 149.032 4.85039 150.256 5.43712C151.535 6.05593 152.497 7.00019 153.148 8.27448C153.29 8.57243 153.405 8.88412 153.492 9.20499C153.579 9.52585 153.634 9.84672 153.657 10.1768C153.689 10.8827 153.629 11.5794 153.483 12.267C153.13 13.6925 152.506 14.9851 151.608 16.1403C150.7 17.3412 149.655 18.4047 148.473 19.3352C147.272 20.2748 146.007 21.1137 144.677 21.8608C141.987 23.346 139.145 24.4277 136.151 25.1016C133.144 25.7708 130.105 26.1008 127.025 26.0871C120.874 26.0871 114.722 24.932 108.827 23.048C107.351 22.5713 105.898 22.0533 104.445 21.4758L103.359 21.0541C102.997 20.912 102.639 20.7561 102.277 20.6049C101.562 20.3023 100.838 20.0181 100.123 19.6927C97.2579 18.4551 94.4297 17.0937 91.6061 15.714L83.1261 11.4923C80.2888 10.0942 77.4147 8.72828 74.4949 7.4494C71.5704 6.17511 68.5772 5.01999 65.5198 4.02531C63.998 3.51192 62.4395 3.0673 60.8443 2.68684C60.0376 2.50808 59.2354 2.33389 58.4195 2.20096C58.0161 2.12762 57.599 2.0772 57.1865 2.02219C56.7739 1.96719 56.3522 1.92594 55.9351 1.89843C55.0963 1.82968 54.2483 1.82509 53.4003 1.83884C52.5431 1.86635 51.6859 1.94427 50.8425 2.07262C50.6271 2.1047 50.4116 2.14137 50.2008 2.18721C49.9899 2.22846 49.7791 2.26513 49.5636 2.31556C49.1419 2.43015 48.7065 2.52183 48.2939 2.66851C47.4551 2.93895 46.6438 3.27815 45.8599 3.68153C44.2602 4.50202 42.853 5.57463 41.6383 6.89935C41.0195 7.56858 40.4832 8.30198 40.0294 9.09039L39.6993 9.70004C39.5893 9.90173 39.4976 10.1217 39.4105 10.3326C39.2364 10.7589 39.0805 11.1944 38.9522 11.639C38.8972 11.8636 38.8467 12.0928 38.7963 12.3174L38.7184 12.652C38.6955 12.7712 38.6817 12.9041 38.6634 13.0279C38.5992 13.5321 38.5855 14.0363 38.6267 14.5451C38.6955 15.6223 39.0118 16.6216 39.5801 17.5429C39.9239 18.07 40.3548 18.5009 40.8819 18.8401C41.157 19.0143 41.4503 19.1564 41.762 19.2572C41.9179 19.3031 42.0737 19.3443 42.2296 19.381C42.3946 19.4085 42.555 19.4314 42.72 19.4406C43.3984 19.4818 44.0402 19.3489 44.6452 19.0464C45.1815 18.7668 45.6445 18.3909 46.0387 17.9279C46.7629 17.057 47.1846 16.0578 47.2947 14.9256C47.3451 14.3526 47.2992 13.7842 47.1571 13.225C47.0242 12.7253 46.8363 12.2486 46.5888 11.7902C46.1212 10.9468 45.5253 10.2043 44.8057 9.56252C44.1593 8.98497 43.4672 8.45783 42.7338 7.99029C39.9881 6.23011 37.0957 4.75871 34.0567 3.58527C31.0268 2.42098 27.9098 1.57757 24.7103 1.05043C21.5154 0.54163 18.3068 0.358278 15.0752 0.495792L13.8697 0.5783L13.2692 0.619555L12.6641 0.674561C11.862 0.757069 11.0552 0.867079 10.2531 1.01834C8.60749 1.30254 7.04442 1.82509 5.55927 2.59058C5.18799 2.78769 4.83045 3.00771 4.48208 3.24148C4.3079 3.36066 4.1383 3.49359 3.9687 3.61735C3.7991 3.74112 3.64325 3.89238 3.47823 4.02531C2.84567 4.58912 2.29103 5.22626 1.82349 5.93675C1.35136 6.64724 0.99382 7.41273 0.746296 8.22864C0.494188 9.05831 0.397929 9.90173 0.457518 10.7635C0.457518 10.9697 0.50794 11.1898 0.535442 11.4006C0.558362 11.6115 0.640869 11.8223 0.682123 12.0424C0.727962 12.2624 0.833388 12.4503 0.906729 12.652C0.980069 12.8537 1.09925 13.0325 1.20009 13.2204C1.63097 13.9584 2.19477 14.5772 2.88234 15.0814C3.56533 15.581 4.32165 15.9111 5.15132 16.0623C5.99015 16.2182 6.80148 16.1265 7.58072 15.7873L7.46154 15.4848C6.73272 15.7369 5.99473 15.769 5.25216 15.5765C4.51875 15.3885 3.85869 15.0493 3.28113 14.5634C2.70357 14.0821 2.2452 13.5092 1.90141 12.8399C1.56679 12.1753 1.40178 11.4694 1.40636 10.7222C1.4247 9.20041 1.89683 7.83902 2.82734 6.63807C3.26738 6.04218 3.77618 5.51504 4.35374 5.05666L4.79378 4.72663C4.94505 4.62579 5.09631 4.52494 5.25216 4.42868C5.56844 4.23616 5.89389 4.06198 6.22851 3.90613C7.60364 3.28274 9.03837 2.87936 10.5327 2.69143C11.2844 2.58142 12.0453 2.51724 12.8108 2.47141L13.3884 2.4439L13.9705 2.43473L15.1256 2.40723C18.2151 2.41182 21.2771 2.70976 24.307 3.31024C25.8104 3.63569 27.3093 3.98405 28.7716 4.4516C29.5096 4.65329 30.2338 4.92832 30.958 5.17584C31.3247 5.29502 31.6777 5.44628 32.0352 5.57921C32.3928 5.71673 32.7503 5.85424 33.1033 6.00551C35.9314 7.19271 38.6175 8.65035 41.157 10.383C41.7483 10.7818 42.3075 11.2264 42.8346 11.7169C43.3022 12.1432 43.6872 12.6337 43.9852 13.1883C44.1135 13.4358 44.2098 13.6971 44.2785 13.9675C44.2923 14.0363 44.2923 14.073 44.3014 14.128L44.3152 14.2059V14.2884C44.3152 14.3434 44.3289 14.3938 44.3152 14.4534C44.306 14.513 44.306 14.568 44.3014 14.6276C44.2694 14.8706 44.2006 15.1089 44.0998 15.3335C44.0035 15.5535 43.8797 15.7552 43.7239 15.9432C43.5955 16.0853 43.4489 16.1998 43.2793 16.2915C43.1601 16.3465 43.0409 16.3649 42.9126 16.3557C42.8805 16.3557 42.853 16.3557 42.8163 16.3557C42.7842 16.3419 42.7521 16.3282 42.7155 16.3236C42.6513 16.2961 42.5917 16.264 42.5367 16.2274C42.3946 16.1219 42.2754 15.9982 42.1837 15.8469C42.0646 15.636 41.9683 15.4114 41.9041 15.1731C41.8308 14.8981 41.7849 14.623 41.7712 14.3388C41.7574 14.0546 41.7666 13.7659 41.8079 13.4817L41.8445 13.2754L41.9041 13.0416C41.9454 12.8812 41.982 12.7208 42.0233 12.5649C42.4313 11.2677 43.1005 10.1263 44.0356 9.1454C44.9936 8.12322 46.0983 7.30272 47.3451 6.67932C47.9685 6.36762 48.6148 6.10635 49.2794 5.89549C49.6095 5.77632 49.9533 5.70756 50.2879 5.61588C50.4575 5.57921 50.6362 5.54713 50.8058 5.51046C50.98 5.47379 51.1542 5.4417 51.333 5.41878C52.0435 5.30877 52.7585 5.2446 53.4782 5.21709C54.2024 5.21709 54.9312 5.21709 55.6647 5.28127C58.5983 5.51046 61.564 6.25303 64.5114 7.21104C67.4633 8.13238 70.374 9.20499 73.2481 10.4197C79.0099 12.8124 84.6434 15.6085 90.3685 18.3084C96.0937 21.0037 101.924 23.5889 108.062 25.5141C109.593 25.9862 111.138 26.4079 112.705 26.7746C114.264 27.1414 115.836 27.4622 117.427 27.7143C120.612 28.2369 123.816 28.4844 127.043 28.4523C130.293 28.4294 133.497 28.0444 136.66 27.3018C139.851 26.5409 142.871 25.3583 145.727 23.7402C147.143 22.9151 148.491 21.9892 149.77 20.9578C151.076 19.9036 152.227 18.7026 153.221 17.3504C154.271 15.9523 154.986 14.3984 155.38 12.6933C155.555 11.8223 155.614 10.9422 155.559 10.0576C155.522 9.59461 155.435 9.13623 155.307 8.69161C155.174 8.25156 155 7.82985 154.794 7.4219C154.583 7.02311 154.344 6.64265 154.074 6.28512C153.804 5.93217 153.506 5.59755 153.185 5.29044C152.538 4.66704 151.805 4.16741 150.989 3.79154C150.572 3.59902 150.146 3.45234 149.701 3.35149C149.247 3.24148 148.784 3.19106 148.321 3.20023C147.84 3.20023 147.372 3.26898 146.91 3.40191C146.217 3.61277 145.599 3.96114 145.053 4.43785C144.508 4.91915 144.086 5.49212 143.783 6.15677C143.403 7.01394 143.229 7.91236 143.265 8.85204C143.33 10.7039 143.971 12.322 145.186 13.7109C145.489 14.0501 145.814 14.3526 146.172 14.623L146.451 14.8247L146.735 15.0081C146.937 15.1135 147.125 15.2098 147.317 15.3152C148.097 15.6911 148.917 15.9477 149.779 16.0853C150.618 16.2274 151.461 16.2549 152.309 16.1815C153.143 16.1128 153.964 15.9707 154.771 15.7552C156.361 15.3106 157.86 14.6551 159.267 13.7934C160.661 12.9637 161.958 12.024 163.232 11.0935C164.511 10.163 165.772 9.23708 167.087 8.42575C168.407 7.61442 169.787 6.93143 171.231 6.37221C174.146 5.25377 177.163 4.68996 180.279 4.67162C181.833 4.66704 183.369 4.79997 184.895 5.07958C186.417 5.34544 187.889 5.79923 189.3 6.4318C190.002 6.74808 190.671 7.11937 191.313 7.54566C191.945 7.97195 192.532 8.46242 193.068 9.00789C193.334 9.28292 193.586 9.56711 193.82 9.86964L194.155 10.328L194.457 10.8277C194.828 11.4923 195.113 12.1936 195.301 12.9316C195.489 13.6788 195.571 14.4351 195.548 15.2006C195.53 15.9661 195.401 16.7132 195.158 17.4421C194.911 18.1663 194.535 18.8172 194.04 19.3948L193.857 19.6102C193.788 19.6744 193.715 19.7385 193.655 19.8027C193.522 19.9356 193.38 20.0594 193.229 20.1694C192.931 20.394 192.605 20.5774 192.257 20.7149C191.537 20.9807 190.795 21.0953 190.029 21.0541C189.264 21.0174 188.539 20.8295 187.847 20.4949C187.146 20.174 186.555 19.711 186.073 19.1014C185.592 18.4872 185.335 17.7904 185.294 17.0066L184.964 17.0203Z" fill="#2F3729" stroke="#2F3729" stroke-width="0.880087"/>
</g>
<mask id="mask1_2066_838" style="mask-type:luminance" maskUnits="userSpaceOnUse" x="183" y="-1" width="198" height="30">
<path d="M184.432 28.498H380.398V0.349005H184.432V28.498Z" fill="white" stroke="white" stroke-width="0.880087"/>
</mask>
<g mask="url(#mask1_2066_838)">
<path d="M195.515 17.0066C195.474 17.7904 195.213 18.4871 194.736 19.1013C194.255 19.711 193.663 20.1739 192.957 20.4948C192.27 20.8294 191.541 21.0174 190.776 21.054C190.01 21.0953 189.267 20.9807 188.548 20.7148C188.199 20.5773 187.879 20.394 187.576 20.1694C187.429 20.0594 187.287 19.9356 187.15 19.8027C187.086 19.7385 187.012 19.6743 186.953 19.6101L186.765 19.3947C186.27 18.8171 185.894 18.1663 185.646 17.442C185.399 16.7178 185.266 15.9706 185.243 15.2005C185.22 14.435 185.303 13.6787 185.495 12.9316C185.683 12.1936 185.967 11.4923 186.348 10.8276L186.65 10.3417L186.989 9.88335C187.223 9.58082 187.471 9.29204 187.741 9.02159C188.277 8.47612 188.86 7.98566 189.497 7.55936C190.134 7.13307 190.808 6.76179 191.504 6.44551C192.916 5.80836 194.383 5.35915 195.9 5.0887C197.427 4.81368 198.967 4.67616 200.516 4.68533C203.633 4.70367 206.649 5.26747 209.565 6.38133C211.004 6.93597 212.384 7.61895 213.704 8.4257C215.019 9.23703 216.284 10.1584 217.559 11.0935C218.838 12.024 220.135 12.9591 221.524 13.7887C222.935 14.6551 224.434 15.3106 226.025 15.7506C226.832 15.9706 227.652 16.1127 228.482 16.1815C229.33 16.2548 230.178 16.2227 231.017 16.0852C231.874 15.9477 232.694 15.691 233.478 15.3106C233.68 15.2097 233.863 15.1089 234.056 15.0034L234.344 14.8247L234.619 14.623C234.977 14.3525 235.307 14.0454 235.605 13.7108C236.824 12.3219 237.466 10.6993 237.526 8.84741C237.562 7.91232 237.388 7.0139 237.008 6.15214C236.71 5.49208 236.283 4.9191 235.738 4.43781C235.192 3.95651 234.574 3.61272 233.882 3.39729C233.423 3.26894 232.951 3.20018 232.474 3.1956C232.007 3.18185 231.548 3.22769 231.095 3.33311C230.65 3.43396 230.219 3.58064 229.807 3.77316C228.991 4.14903 228.257 4.64866 227.606 5.27205C227.285 5.57917 226.992 5.91379 226.722 6.26674C226.451 6.62427 226.208 7.00473 225.997 7.40352C225.791 7.81147 225.622 8.23318 225.489 8.67323C225.36 9.11785 225.273 9.57623 225.232 10.0392C225.177 10.9239 225.236 11.804 225.415 12.6749C225.805 14.38 226.525 15.9339 227.57 17.332C228.569 18.6888 229.724 19.8989 231.03 20.9578C232.309 21.9845 233.657 22.9105 235.073 23.731C237.929 25.349 240.954 26.5362 244.14 27.2926C247.303 28.0397 250.511 28.4248 253.757 28.4523C256.984 28.4844 260.192 28.2414 263.374 27.7189C264.96 27.4713 266.536 27.1459 268.099 26.7792C269.663 26.4171 271.212 25.9954 272.743 25.5186C278.876 23.6026 284.702 21.0036 290.423 18.2992C296.143 15.5947 301.786 12.8032 307.548 10.4105C310.422 9.19578 313.328 8.12775 316.28 7.20183C319.222 6.24382 322.184 5.50583 325.126 5.27205C325.86 5.20788 326.589 5.2033 327.317 5.21247C328.033 5.23538 328.748 5.30414 329.458 5.41415C329.637 5.43707 329.811 5.46916 329.985 5.50583C330.159 5.53791 330.338 5.57 330.508 5.61126C330.842 5.69835 331.182 5.77169 331.512 5.88628C332.181 6.09714 332.823 6.35841 333.451 6.67469C334.702 7.29351 335.802 8.11859 336.76 9.13619C337.695 10.1171 338.364 11.2585 338.772 12.5557C338.814 12.7161 338.85 12.872 338.892 13.0324L338.951 13.2708L338.983 13.4725C339.07 14.0408 339.038 14.6092 338.892 15.1639C338.823 15.4022 338.731 15.6268 338.607 15.8377C338.516 15.989 338.401 16.1173 338.259 16.2181C338.199 16.2502 338.14 16.2777 338.076 16.2961C338.039 16.3052 338.007 16.3144 337.975 16.3282C337.938 16.3282 337.911 16.3282 337.883 16.3282C337.755 16.3419 337.631 16.319 337.512 16.264C337.342 16.1769 337.196 16.0577 337.067 15.9156C336.911 15.7323 336.788 15.526 336.691 15.306C336.59 15.0814 336.522 14.8476 336.49 14.6001C336.49 14.5451 336.49 14.4855 336.476 14.4259C336.467 14.3709 336.476 14.3159 336.476 14.2609V14.1784L336.494 14.1004C336.499 14.05 336.508 13.995 336.522 13.94C336.586 13.6696 336.682 13.4129 336.81 13.1653C337.113 12.6061 337.498 12.1157 337.966 11.6894C338.493 11.2035 339.047 10.7589 339.639 10.3555C342.183 8.62739 344.864 7.16516 347.697 5.97796C348.05 5.82669 348.407 5.69376 348.765 5.55167C349.118 5.40957 349.475 5.26289 349.842 5.14829C350.566 4.89618 351.291 4.63491 352.029 4.42406C353.491 3.95651 354.99 3.61272 356.493 3.27811C359.523 2.68221 362.585 2.37968 365.675 2.37968L366.83 2.4026L367.412 2.41636L367.985 2.44386C368.755 2.4897 369.516 2.55387 370.268 2.66388C371.762 2.84723 373.197 3.25519 374.572 3.87858C374.906 4.03443 375.232 4.20862 375.548 4.40113C375.704 4.49739 375.855 4.60282 376.006 4.69908L376.446 5.02453C377.024 5.48749 377.533 6.01463 377.973 6.61052C378.899 7.81147 379.376 9.17286 379.394 10.6901C379.403 11.4418 379.238 12.1523 378.899 12.8216C378.555 13.4908 378.097 14.0638 377.519 14.5451C376.942 15.0309 376.286 15.3701 375.553 15.5581C374.805 15.7506 374.068 15.7185 373.339 15.4664L373.219 15.7689C374.003 16.1081 374.81 16.1998 375.649 16.044C376.479 15.8927 377.235 15.5627 377.918 15.063C378.61 14.5588 379.169 13.94 379.605 13.202C379.706 13.0141 379.806 12.8261 379.898 12.6336C379.985 12.4411 380.054 12.2257 380.118 12.024C380.187 11.8223 380.233 11.6023 380.269 11.3914C380.301 11.1806 380.338 10.9697 380.347 10.7543C380.407 9.89251 380.311 9.04451 380.059 8.21943C379.806 7.39893 379.444 6.63344 378.972 5.92295C378.5 5.21247 377.95 4.57532 377.313 4.00693C377.152 3.874 376.992 3.7319 376.827 3.60356C376.662 3.47521 376.483 3.34686 376.309 3.22769C375.961 2.99391 375.603 2.77389 375.236 2.57679C373.751 1.81129 372.188 1.28874 370.543 1.00455C369.74 0.8487 368.934 0.743273 368.131 0.660765L367.526 0.605759L366.921 0.564505L365.716 0.481997C362.489 0.349068 359.276 0.537003 356.085 1.05497C352.886 1.58211 349.769 2.42552 346.739 3.58981C343.704 4.76325 340.817 6.23007 338.076 7.99024C337.342 8.45779 336.655 8.98034 336.008 9.5579C335.289 10.1996 334.697 10.9422 334.225 11.7902C333.978 12.244 333.79 12.7207 333.657 13.2203C333.515 13.7796 333.469 14.348 333.519 14.9209C333.629 16.0531 334.046 17.057 334.771 17.9279C335.165 18.3909 335.628 18.7667 336.164 19.0463C336.774 19.3489 337.411 19.4818 338.089 19.4405C338.25 19.4268 338.424 19.413 338.58 19.381C338.74 19.3489 338.896 19.303 339.047 19.2572C339.359 19.1564 339.652 19.0143 339.927 18.8401C340.455 18.5009 340.885 18.0654 341.229 17.5429C341.798 16.6215 342.114 15.6222 342.183 14.5451C342.224 14.0363 342.21 13.532 342.146 13.0278C342.132 12.9041 342.114 12.7711 342.091 12.652L342.018 12.3082C341.963 12.0836 341.917 11.8544 341.857 11.6298C341.724 11.1806 341.568 10.7451 341.385 10.3188C341.289 10.1171 341.206 9.89251 341.096 9.68624L340.771 9.08118C340.312 8.28819 339.776 7.55937 339.162 6.88555C337.947 5.56083 336.545 4.48823 334.949 3.67231C334.166 3.26436 333.354 2.92516 332.515 2.6593C332.098 2.51262 331.667 2.41636 331.241 2.30634C331.026 2.25592 330.815 2.21925 330.604 2.17341C330.393 2.12757 330.182 2.09091 329.967 2.0634C329.119 1.93047 328.266 1.85255 327.409 1.82505C326.561 1.8113 325.709 1.82505 324.874 1.88922C324.453 1.91214 324.04 1.96714 323.623 2.0084C323.206 2.05424 322.798 2.11841 322.39 2.19175C321.569 2.3201 320.763 2.49428 319.965 2.67763C318.37 3.0535 316.811 3.50271 315.29 4.01151C312.232 5.00161 309.239 6.16131 306.315 7.44019C303.39 8.71448 300.521 10.0713 297.67 11.4785L289.194 15.691C286.38 17.0707 283.547 18.4321 280.677 19.6743C279.967 19.9952 279.243 20.2794 278.523 20.5819C278.165 20.7332 277.808 20.889 277.441 21.0311L276.355 21.4574C274.906 22.0304 273.449 22.5484 271.977 23.0251C266.083 24.909 259.931 26.0641 253.775 26.0641C250.699 26.0779 247.656 25.7478 244.653 25.0786C241.656 24.4048 238.814 23.323 236.123 21.8379C234.798 21.0999 233.533 20.2656 232.328 19.3351C231.15 18.4092 230.104 17.3503 229.192 16.154C228.298 14.9989 227.67 13.7062 227.318 12.2807C227.171 11.5931 227.111 10.8964 227.143 10.1905C227.171 9.86501 227.226 9.53956 227.313 9.22328C227.405 8.89783 227.528 8.58613 227.675 8.2836C228.326 7.00931 229.289 6.06505 230.567 5.44624C231.791 4.8641 233.185 4.79534 234.239 5.49208C234.785 5.84045 235.192 6.30341 235.467 6.89013C235.752 7.50436 235.885 8.15067 235.871 8.82449C235.834 10.273 235.353 11.5473 234.413 12.652C234.193 12.9132 233.946 13.147 233.675 13.3579L233.474 13.5091L233.272 13.6466C233.125 13.7337 232.965 13.8162 232.809 13.9033C232.172 14.2196 231.503 14.4442 230.801 14.5726C230.077 14.7009 229.353 14.7422 228.624 14.6872C227.881 14.6367 227.148 14.5221 226.424 14.3434C223.472 13.6146 220.886 11.8406 218.32 10.0163C217.027 9.10869 215.725 8.19651 214.336 7.36226C212.943 6.54177 211.485 5.84961 209.968 5.29497C206.915 4.18111 203.766 3.64023 200.516 3.6769C198.907 3.69065 197.312 3.86025 195.735 4.17653C194.145 4.48364 192.614 4.97869 191.147 5.66626C190.413 6.01463 189.712 6.42259 189.038 6.88555C188.369 7.3531 187.755 7.88481 187.186 8.48071C186.907 8.77865 186.641 9.09035 186.398 9.4158L186.041 9.92002L185.724 10.4563C185.325 11.1851 185.032 11.9598 184.84 12.7711C184.652 13.5779 184.578 14.3938 184.62 15.2235C184.652 16.0531 184.807 16.8599 185.087 17.6437C185.376 18.4321 185.798 19.138 186.357 19.7614L186.558 19.9906C186.632 20.0639 186.71 20.1327 186.788 20.1969C186.939 20.339 187.099 20.4765 187.264 20.6002C187.608 20.8432 187.975 21.0403 188.364 21.1916C189.148 21.462 189.955 21.572 190.785 21.517C191.61 21.462 192.394 21.2466 193.136 20.8707C193.888 20.5086 194.516 19.9952 195.025 19.3259C195.534 18.643 195.799 17.8775 195.827 17.0203L195.515 17.0066Z" fill="#2F3729" stroke="#2F3729" stroke-width="0.880087"/>
</g>
</svg>
